<svg xmlns="http://www.w3.org/2000/svg" width="744.094" height="524.409" version="1"><defs><filter height="1.893" y="-.446" width="1.012" x="-.006" id="a"><feGaussianBlur stdDeviation="1.569"/></filter><filter height="1.037" y="-.018" width="2.578" x="-.789" id="b"><feGaussianBlur stdDeviation="4.544"/></filter></defs><path fill="#fff" d="M0-.886h744.094v526.181H0z"/><path d="M1000.575 214.928c-21.42 12.557-92.435 32.262-104.683 38.541-11.791-.45-25.579 17.12-25.579 33 0 18.819 13.064 34.094 34.095 34.094 23.009 3.83 109.16 26.602 118.82 19.633-31.19-8.67-58.374-39.94-57.492-63.94.851-23.15 20.42-52.015 34.84-61.328z" opacity=".2" fill="#e5b48c"/><g fill="#f0f0f0" fill-opacity=".2" fill-rule="evenodd"><path d="M1095.228 287.16H968.055m127.35-25.558H968.434m50.896 76.277V211.084m25.557 126.404V210.895" stroke-width="1.27" stroke="wheat"/><path d="M993.772 327.084V221.298m76.672 105.031V222.433m14.179 90.283H980.16m103.896-76.671H980.161" stroke="#e1ca9f" stroke-width="1.863"/></g><path d="M1097.555 274.38c0 36.127-29.32 65.447-65.447 65.447-36.126 0-65.446-29.32-65.446-65.446 0-36.127 29.32-65.447 65.446-65.447 36.127 0 65.447 29.32 65.447 65.447z" fill="none" stroke="#eee8aa" stroke-width="2.627" stroke-linecap="square" stroke-opacity=".506" stroke-dashoffset="1.061"/><path d="M938.5 286.908c0 18.829-15.264 34.093-34.093 34.093-18.83 0-34.094-15.264-34.094-34.093 0-18.83 15.264-34.094 34.094-34.094 18.829 0 34.093 15.264 34.093 34.094z" fill="none" stroke="#eee8aa" stroke-width="2.173" stroke-linecap="square" stroke-opacity=".506" stroke-dashoffset="1.061"/><path d="M1031.037 368.125a460.74 460.74 0 0 0 5.625 5.273c1.016 1.016 2.11 1.485 3.281 1.406.781-.078 1.367-.625 1.758-1.64.313-1.016.156-2.656-.469-4.922-.703-2.11-4.297-3.945-10.781-5.508-1.172-.312-1.992-.351-2.46-.117-.313.312-.43.937-.353 1.875.235.781 1.368 1.992 3.399 3.633m-11.367 25.43c1.406 2.89 2.812 4.96 4.219 6.21.78.313 1.523.196 2.226-.351.547-.547.86-1.367.938-2.461-.235-2.422-2.11-4.531-5.625-6.328-.782-.547-1.485-.782-2.11-.704-.312 0-.508.352-.586 1.055-.078.703.235 1.563.938 2.578m13.476 6.328c-15.468 3.516-27.03 5.704-34.687 6.563-.938.078-1.524.43-1.758 1.055-.234.78.234 1.601 1.406 2.46 2.813 2.11 5.781 2.618 8.906 1.524 12.735-4.453 26.954-7.852 42.657-10.195 1.25-.078 1.914-.43 1.992-1.055.078-.937-.547-1.719-1.875-2.344-2.344-1.015-6.367-.703-12.07.938 1.25-1.719 2.539-3.711 3.867-5.977.703-1.015 1.601-2.148 2.695-3.398 1.016-.781 1.25-1.563.703-2.344-.547-1.016-1.68-2.148-3.398-3.398a8.9 8.9 0 0 1 2.578-.586c3.047-.547 4.765-1.055 5.156-1.524.547-.547.703-1.054.469-1.523-.469-.781-1.602-1.406-3.399-1.875-1.875-.469-6.328.43-13.359 2.695-5.625 1.172-11.094 1.992-16.406 2.461-2.188.313-2.5 1.055-.938 2.227 2.344 1.406 5.938 1.68 10.782.82a292.68 292.68 0 0 1 11.132-1.992c.782 2.578-.625 7.578-4.218 15-.078.078-.157.234-.235.468m-11.015 40.547c3.75-.78 7.07-1.445 9.96-1.992 1.407-.312 1.797-.86 1.172-1.64-.703-.782-1.835-1.29-3.398-1.524-2.344-.234-4.883.508-7.617 2.227.078-3.047.273-5.703.586-7.97 3.125-.78 5.937-1.405 8.437-1.874 1.25-.313 1.602-.86 1.055-1.64-.703-.782-1.836-1.25-3.398-1.407-1.485 0-3.399.469-5.743 1.406-.078 0-.117.04-.117.117.078-3.359.313-5.703.703-7.03v-.704c6.407-2.11 10.196-2.969 11.367-2.578.704.469.938 1.445.704 2.93 1.015 12.5 1.093 23.632.234 33.398-.078 1.953-.703 3.125-1.875 3.516-.547.078-2.149-.196-4.805-.82-.78-.235-1.172-.118-1.172.35.078.548.586 1.173 1.524 1.876 1.875 1.953 3.476 3.906 4.805 5.86.78 1.015 1.64 1.523 2.578 1.523 1.171-.235 2.46-2.031 3.867-5.39 1.719-3.36 2.46-6.798 2.226-10.313a1644.196 1644.196 0 0 0-1.757-24.024c-.313-3.047.156-5.742 1.406-8.086.781-1.015.703-1.953-.235-2.812-1.171-.938-2.968-1.797-5.39-2.578-.938-.47-3.164.117-6.68 1.757-.234 0-2.773.938-7.617 2.813-1.64-1.64-3.672-2.461-6.094-2.461-1.015.313-1.328.898-.937 1.758 3.125 7.265 3.086 18.203-.117 32.812-1.641 4.688-2.461 7.11-2.461 7.266 0 2.344.664 4.375 1.992 6.094.547 1.015 1.172 1.328 1.875.937 3.047-1.953 4.61-7.617 4.687-16.992 0-1.719.078-3.32.235-4.805m37.734 1.172c3.281 1.406 6.328 1.719 9.14.938 4.297-.703 8.75-1.407 13.36-2.11 1.953-.312 3.125-.664 3.516-1.054.546-.547.703-1.094.468-1.641-.468-.781-1.64-1.445-3.515-1.992-1.485-.313-5.43.312-11.836 1.875-3.75.703-7.305 1.133-10.664 1.289-.469 0-.742.078-.82.234 0-4.218.038-7.187.117-8.906 2.343 1.016 9.18.508 20.507-1.523 1.953-.313 3.086-.625 3.399-.938.547-.469.703-.937.469-1.406-.313-.703-1.368-1.29-3.164-1.758-1.72-.469-3.477-.352-5.274.352a57.769 57.769 0 0 1-7.031 1.757c-2.656.47-5.586.782-8.79.938.079-2.656.313-5.352.704-8.086 3.281.312 7.266.195 11.953-.352 6.64-1.406 10.078-2.148 10.313-2.226.468-.469.585-.938.351-1.406-.312-.704-1.367-1.29-3.164-1.758-1.719-.313-3.477-.156-5.273.469-2.11.546-4.258 1.093-6.446 1.64a489.74 489.74 0 0 1-7.5.938c.078-3.75.391-6.016.938-6.797 2.11-1.016 9.14-2.696 21.094-5.04.78-.077 1.21-.507 1.289-1.288 0-.547-.782-1.172-2.344-1.875a585.66 585.66 0 0 0 4.219-9.61 5.792 5.792 0 0 1 1.875-1.758c1.015-.703 1.445-1.406 1.289-2.109-.235-.703-2.149-2.11-5.742-4.219-1.641-.78-3.126-.78-4.454 0-3.28 1.485-7.46 3.164-12.539 5.04-1.484.312-2.187-.274-2.109-1.758.703-4.297 1.328-8.008 1.875-11.133 2.656.937 6.797.742 12.422-.586a878.838 878.838 0 0 0 7.383-1.758c1.484-.312 2.343-.625 2.578-.938.547-.546.664-1.132.351-1.757-.547-.781-1.875-1.406-3.984-1.875-1.485-.235-5.313.664-11.484 2.695-2.11.469-4.336.899-6.68 1.29.547-2.891 1.094-4.923 1.64-6.095.782-1.953.118-3.476-1.992-4.57-3.593-1.484-5.937-1.992-7.03-1.523-.938.312-.938 1.132 0 2.46 1.25 1.876 1.483 7.97.702 18.282.078 3.125-.547 5.976-1.875 8.554-.781 1.172-.312 2.5 1.406 3.985 1.25 1.25 2.344 1.406 3.282.469 2.812-2.344 7.265-4.141 13.36-5.391 2.108-.547 2.89.703 2.343 3.75-.469 1.719-1.25 4.258-2.344 7.617a4.948 4.948 0 0 0-1.523.469c-5.86 2.187-11.133 3.867-15.82 5.039-.704-.469-1.524-.82-2.462-1.055-1.015-.312-1.836-.273-2.46.117-.547.313-.587 1.133-.118 2.461 1.016 3.047 1.485 6.016 1.407 8.907-.782 17.89-.352 29.297 1.289 34.218.546 2.188 1.796 4.258 3.75 6.211 6.562 5.625 16.328 7.578 29.296 5.86 1.485-.313 3.086-.664 4.805-1.055 3.36-1.016 6.64-2.813 9.844-5.39 1.484-1.016 1.836-2.54 1.055-4.57-.782-2.345-1.563-6.876-2.344-13.595.078-1.25-.157-2.148-.703-2.695-.47-.312-.938.234-1.407 1.64-2.89 7.032-5.195 11.563-6.914 13.594-1.015 1.485-3.125 2.657-6.328 3.516-7.5 1.719-14.375 1.21-20.625-1.523-3.984-2.11-6.328-5.938-7.03-11.485m-30.871-197.483c2.135 2.583 4.097 4.196 5.884 4.842.894.149 1.59-.199 2.086-1.043.348-.745.422-1.589.223-2.532-.446-1.39-1.191-2.433-2.234-3.129-3.277-1.638-5.636-2.16-7.076-1.564a.572.572 0 0 0-.224.075c-.347.05-.422.447-.223 1.191.05.646.57 1.366 1.564 2.16m-14.673 12.96c1.34.795 2.88.944 4.618.448 6.405-2.086 14.921-3.7 25.548-4.842 2.433-.298 4.022-.347 4.767-.149.496.348.67.72.521 1.117 0 .15-1.067 2.235-3.203 6.257-.496.795-.595 1.291-.297 1.49.496.199 1.216 0 2.16-.596 3.178-1.937 6.082-3.203 8.714-3.799 2.135-.447 3.178-.968 3.129-1.564-.15-.496-2.036-2.185-5.661-5.065-1.341-1.092-4.27-1.192-8.79-.298-2.979.348-10.775 1.59-23.388 3.724a208.36 208.36 0 0 1-7.746 1.192c-.497-1.54-1.142-2.557-1.936-3.054-.944-.744-1.465-.447-1.565.894.298 2.135-1.092 4.966-4.17 8.491-.895 1.043-.795 2.756.297 5.14.05.198.174.447.373.745.943 1.191 1.787 1.142 2.532-.15.894-1.34 1.639-2.954 2.235-4.84.645-2.136 1.266-3.85 1.862-5.14m21.451 23.91c9.236-.894 17.852-.87 25.846.074 1.093.149 1.813.025 2.16-.373.348-.645.249-1.241-.298-1.787-1.39-1.34-3.128-2.483-5.213-3.427-.646-.297-1.59-.248-2.83.15-1.242.347-8.02 1.24-20.335 2.68-.497-1.638-1.291-2.978-2.384-4.021.05-.05.15-.124.298-.224 6.009-4.816 9.609-7.423 10.8-7.82.944-.299 1.292-.87 1.043-1.714-.198-.794-1.936-2.11-5.214-3.947-.943-.497-1.986-.522-3.128-.075-2.88 1.043-6.58 2.135-11.098 3.277-1.192.348-3.178.472-5.959.373-1.192-.05-1.564.422-1.117 1.415.347.646.993 1.266 1.936 1.862 1.54.894 3.154.844 4.842-.149 1.043-.347 4.196-1.49 9.46-3.426.744-.199 1.415-.124 2.01.223.596.447.745 1.018.447 1.713a285.922 285.922 0 0 0-5.064 7.821 5.9 5.9 0 0 0-1.714-1.191c-.596-.348-1.042-.323-1.34.074-.2.199-.1.695.298 1.49.645 1.39 1.216 2.98 1.713 4.767-5.562.496-10.403 1.018-14.525 1.564-4.816.646-8.963.943-12.439.894-.645-.05-1.018.198-1.117.745-.05.596.373 1.241 1.266 1.936 2.086 1.49 3.898 1.987 5.438 1.49 5.263-1.837 12.588-3.153 21.973-3.948 1.191 9.435.819 15.443-1.118 18.026-.05 0-.099.05-.149.148-.347.2-2.88-.05-7.597-.744-.596-.199-1.043-.174-1.34.074-.299.05 0 .422.893 1.117 3.128 2.583 5.562 4.99 7.3 7.225.943 1.043 1.936 1.291 2.979.745 1.241-.645 2.284-2.507 3.128-5.586 1.093-3.923 1.34-9.211.745-15.865-.05-2.136-.248-3.998-.596-5.587" font-size="120" font-weight="400" font-family="Bitstream Vera Sans"/><path d="M847.373 341.412c52.913 24.381 90.394 62.505 104.274 74.663-.13.173-1.937 1.144-1.937 1.144l7.182 3.92-2.014-8.42s-1.333 2.071-1.414 2.135c-36.804-35.78-75.704-63.09-106.091-73.442z" fill="#d40000" fill-rule="evenodd"/><path d="M818.514 456.125c45.081-34.853 76.049-42.986 108.14-50.159.104.203.136 3.173.136 3.173l9.792-7.053-11.943-1.633s1.483 2.436 1.505 2.542c-43.577 8.473-75.26 23.579-107.63 53.13z" opacity=".4" fill="#e6b4ff" fill-rule="evenodd"/><path d="M834.12 355.75c16.445 6.781 19.915 9.187 28.87 17.441-.316.403-2.98 2.088-2.98 2.088l11.961 4.442-5.37-11.734s-1.17 2.604-1.373 2.761c-13.098-11.715-22.931-12.824-31.108-14.998z" opacity=".3" fill="#97fc65" fill-rule="evenodd"/><path opacity=".2" fill="#eee" d="M-1474.943 81.461h744.094v526.181h-744.094z"/><text style="text-align:start;line-height:100%;-inkscape-font-specification:Arial Italic" x="1014.148" y="60.925" font-size="15.748" font-style="italic" font-weight="400" font-family="Arial"><tspan x="1014.148" y="60.925">Body, </tspan><tspan x="1014.148" y="76.674" fill="#888">Long, medium, </tspan><tspan x="1014.148" y="92.422" fill="#888">and short brust </tspan><tspan x="1014.148" y="108.171" fill="#888">are possible.</tspan><tspan x="1014.148" y="123.919" fill="#888">Calligraphers </tspan><tspan x="1014.148" y="139.668" fill="#888">store them on </tspan><tspan x="1014.148" y="155.416" fill="#888">special support,</tspan><tspan x="1014.148" y="171.165" fill="#888">to keep them </tspan><tspan x="1014.148" y="186.913" fill="#888">pending vertically.</tspan></text><path d="M810.128 102.368c0-.794 2.041-1.979 4.089-1.979 2.047 0 4.09 1.002 4.09 1.98-.012 47.872-.029 103.36.006 104.025-1.172-.002-6.902.002-8.192 0 .036-.67.018-56.154.007-104.026z" fill="#816647" stroke="#000" stroke-width=".211" stroke-linecap="square" stroke-linejoin="round" stroke-dashoffset="7.29"/><g stroke="#000" stroke-linecap="square" stroke-linejoin="round" stroke-dashoffset="7.29"><path d="M808.639 245.818c-.05-.618-.114-1.295-.151-1.897.656-1.057.049-.296-.004-.377-.905-11.779 1.413-23.464 1.637-35.206.013-.49 1.615-.923 4.102-.923s4.089.433 4.09.923c.633 11.757 1.923 23.449 1.636 35.249-.252.025-.415-.087-.019.377-.036.58-.1 1.258-.147 1.854" fill="#282828" stroke-width=".211"/><path d="M809.583 207.303c0 .386.171.883.495 1.383.202-.419 1.976-.775 4.138-.775 1.975 0 3.627.296 4.045.667.274-.463.419-.917.419-1.275 0-1.215-2.038-2.01-4.548-2.01-2.511 0-4.549.795-4.549 2.01z" fill="#036" stroke-width=".278"/><path d="M809.193 213.416c0 .42.185.959.537 1.502.22-.455 2.146-.842 4.494-.842 2.145 0 3.94.322 4.393.725.299-.503.456-.996.456-1.385 0-1.32-2.213-2.182-4.94-2.182-2.727 0-4.94.862-4.94 2.182z" fill="#036" stroke-width=".302"/><path d="M814.2 244.756c3.074 0 5.614.514 5.614 1.148 0 .634-2.54 1.148-5.615 1.148-3.074 0-5.614-.536-5.614-1.17 0-.634 2.54-1.126 5.614-1.126z" fill="#666" stroke-width=".108"/><path d="M814.2 245.146c2.742 0 4.968.428 4.968.956.133 14.819-1.994 29.622-4.969 34.997-2.468-6.721-5.102-19.377-4.968-34.997 0-.528 2.226-.956 4.968-.956z" fill="#fdd99b" stroke-width=".093"/><path d="M808.423 243.705c.133.216.27-.1.097.302 0-.604 2.538-1.092 5.676-1.092 3.137 0 5.688.488 5.688 1.092.065-.42-.099-.064.092-.33 0-.724-2.263-1.21-5.78-1.21-3.518 0-5.773.513-5.773 1.238z" fill="#666" stroke-width=".123"/><path d="M814.124 257.563c1.242-4.762.279 1.423 2.556-.903.054 6.892 2.603-5.51 2.126.776-.803 10.587-2.389 19.44-4.682 23.655-1.712-5.2-3.527-13.243-4.493-23.247-.595-6.156.744 4.63.8-2.798 0-.66 2.665 4.615 3.693 2.517z" stroke-width=".109"/></g><path d="M813.608 76.559c-3.121-7.214-1.098-10.45.883-10.45 1.978 0 3.354 3.205.308 10.638" fill="none" stroke="#7e0101" stroke-width=".678"/><path d="M814.217 76.575a2.792 2.792 0 0 1 0 5.581 2.792 2.792 0 0 1 0-5.58z" fill="#036" stroke="#000" stroke-linecap="square" stroke-linejoin="round" stroke-dashoffset="7.29" stroke-width=".339"/><path d="M818.311 101.154c-3.278-1.166-5.029-1.045-8.188-.001l-.002-10.419c1.756-1.41.679-2.303.679-3.974 0-1.672-1.358-6.157-1.358-6.194.013-.49 2.294-.923 4.78-.923 2.488 0 4.769.433 4.77.923 0 .038-1.357 4.523-1.358 6.194 0 1.672-1.014 2.69.679 3.976 0 3.837 0 6.58-.002 10.418z" fill="#282828" stroke="#000" stroke-width=".211" stroke-linecap="square" stroke-linejoin="round" stroke-dashoffset="7.29"/><path d="M809.663 101.755c0 .386.17.883.494 1.383.202-.419 1.977-.775 4.138-.775 1.975 0 3.627.404 4.045.775.275-.463.42-1.025.42-1.383 0-1.215-2.038-2.009-4.549-2.009-2.51 0-4.548.794-4.548 2.01zm0-13.57c0 .386.849 1.31 1.172 1.811.203-.42 1.299-1.203 3.46-1.203 1.975 0 2.949.832 3.367 1.203.274-.463 1.097-1.453 1.097-1.81 0-1.216-2.037-2.01-4.548-2.01-2.51 0-4.548.794-4.548 2.01z" fill="#036" stroke="#000" stroke-width=".278" stroke-linecap="square" stroke-linejoin="round" stroke-dashoffset="7.29"/><path d="M63.06 477.94c32.331-7.076 84.164-8.998 100.66-9.842 3.198-.163 3.545-1.576 3.688-1.585 33.534-2.234 57.911 3.992 89.575 4.982 3.05-.185 6.102-1.862 9.153.47l9.152.469c2.698-.606 5.395-3.615 8.093.214h303.12c2.614-1.09 5.228-3.51 7.842 0h32.155c2.614-.884 5.229-4.228 7.843 0l18.784-4.183" fill="none" stroke="#fff" filter="url(#a)" transform="rotate(-90 476.778 -175.256) scale(.33925)"/><path d="M63.06 477.94c32.331-7.076 84.164-8.998 100.66-9.842 3.198-.163 3.545-1.576 3.688-1.585 33.534-2.234 57.911 3.992 89.575 4.982 3.05-.185 6.102-1.862 9.153.47l9.152.469c2.698-.606 5.395-3.615 8.093.214h303.12c2.614-1.09 5.228-3.51 7.842 0h32.155c2.614-.884 5.229-4.228 7.843 0l18.784-4.183" fill="none" stroke="#fff" stroke-width="1.916" filter="url(#b)" transform="rotate(-90 476.778 -175.256) scale(.33925)"/><path d="M853.646 101.344c0-.395 2.057-.985 4.12-.985s4.12.499 4.12.985c-.01 23.848-.028 51.488.007 51.82h-8.254c.036-.333.018-27.973.007-51.82z" fill="#816647" stroke="#000" stroke-width=".149" stroke-linecap="square" stroke-linejoin="round" stroke-dashoffset="7.29"/><g stroke="#000" stroke-linecap="square" stroke-linejoin="round" stroke-dashoffset="7.29"><path d="M852.188 191.783c-.05-.619-.114-1.296-.15-1.898.655-1.057.048-.296-.005-.377-.904-11.779 1.413-23.464 1.637-35.206.013-.49 1.615-.923 4.102-.923s4.089.434 4.09.923c.633 11.758 1.923 23.45 1.636 35.25-.252.025-.415-.088-.019.376-.036.581-.1 1.258-.147 1.855" fill="#282828" stroke-width=".211"/><path d="M853.133 153.267c0 .386.17.883.494 1.384.202-.42 1.976-.776 4.138-.776 1.975 0 3.627.297 4.045.668.274-.464.419-.918.419-1.276 0-1.215-2.038-2.009-4.548-2.009-2.51 0-4.548.794-4.548 2.01z" fill="#036" stroke-width=".278"/><path d="M852.742 159.38c0 .42.185.96.537 1.503.22-.456 2.146-.843 4.494-.843 2.145 0 3.94.322 4.394.725.298-.503.455-.996.455-1.385 0-1.32-2.213-2.182-4.94-2.182-2.727 0-4.94.862-4.94 2.182z" fill="#036" stroke-width=".302"/><path d="M857.748 190.72c3.075 0 5.615.515 5.615 1.149 0 .633-2.54 1.148-5.615 1.148-3.074 0-5.614-.537-5.614-1.17 0-.634 2.54-1.127 5.614-1.127z" fill="#666" stroke-width=".108"/><path d="M857.748 191.11c2.743 0 4.969.429 4.969.957.133 14.818-1.994 29.622-4.969 34.996-2.468-6.72-5.102-19.376-4.968-34.996 0-.528 2.226-.957 4.968-.957z" fill="#fdd99b" stroke-width=".093"/><path d="M851.972 189.67c.133.215.27-.101.097.301 0-.604 2.538-1.091 5.676-1.091 3.137 0 5.688.487 5.688 1.091.065-.42-.099-.063.093-.329 0-.725-2.264-1.21-5.781-1.21-3.518 0-5.773.512-5.773 1.237z" fill="#666" stroke-width=".123"/><path d="M857.674 203.527c1.241-4.761.278 1.423 2.555-.903.054 6.893 2.603-5.51 2.126.777-.803 10.586-2.389 19.44-4.681 23.654-1.713-5.2-3.527-13.242-4.494-23.247-.595-6.156.744 4.63.8-2.798 0-.66 2.665 4.615 3.694 2.517z" stroke-width=".109"/></g><path d="M857.157 76.575c-3.121-7.213-1.098-10.45.883-10.45 1.978 0 3.354 3.205.309 10.638" fill="none" stroke="#7e0101" stroke-width=".678"/><path d="M857.766 76.575a2.792 2.792 0 0 1 0 5.581 2.792 2.792 0 0 1 0-5.58z" fill="#036" stroke="#000" stroke-linecap="square" stroke-linejoin="round" stroke-dashoffset="7.29" stroke-width=".339"/><path d="M861.86 101.154c-3.278-1.166-5.028-1.045-8.188-.001l-.001-10.419c1.755-1.41.678-2.303.678-3.974 0-1.672-1.358-6.157-1.358-6.194.013-.49 2.294-.923 4.78-.923 2.488 0 4.769.433 4.77.923 0 .038-1.357 4.523-1.357 6.194 0 1.672-1.015 2.69.678 3.976 0 3.837 0 6.58-.002 10.418z" fill="#282828" stroke="#000" stroke-width=".211" stroke-linecap="square" stroke-linejoin="round" stroke-dashoffset="7.29"/><path d="M853.212 101.755c0 .386.17.883.494 1.383.202-.419 1.977-.775 4.138-.775 1.975 0 3.628.404 4.045.775.275-.463.42-1.025.42-1.383 0-1.215-2.038-2.009-4.549-2.009-2.51 0-4.548.794-4.548 2.01zm0-13.57c0 .386.85 1.31 1.173 1.811.202-.42 1.298-1.203 3.46-1.203 1.974 0 2.948.832 3.366 1.203.274-.463 1.097-1.453 1.097-1.81 0-1.216-2.037-2.01-4.548-2.01-2.51 0-4.548.794-4.548 2.01z" fill="#036" stroke="#000" stroke-width=".278" stroke-linecap="square" stroke-linejoin="round" stroke-dashoffset="7.29"/><path d="M222.339 477.94c32.332-7.076 84.164-8.998 100.661-9.842 3.198-.163 3.545-1.576 3.688-1.585 33.533-2.234 57.91 3.992 89.575 4.982 3.05-.185 6.101-1.862 9.152.47l9.153.469c2.697-.606 5.395-3.615 8.093.214H586.5c2.614-1.09 5.228-3.51 7.842 0h32.155c2.614-.884 5.229-4.228 7.843 0l18.784-4.183" fill="none" stroke="#fff" filter="url(#a)" transform="rotate(-90 498.552 -197.03) scale(.33925)"/><path d="M222.339 477.94c32.332-7.076 84.164-8.998 100.661-9.842 3.198-.163 3.545-1.576 3.688-1.585 33.533-2.234 57.91 3.992 89.575 4.982 3.05-.185 6.101-1.862 9.152.47l9.153.469c2.697-.606 5.395-3.615 8.093.214H586.5c2.614-1.09 5.228-3.51 7.842 0h32.155c2.614-.884 5.229-4.228 7.843 0l18.784-4.183" fill="none" stroke="#fff" stroke-width="1.916" filter="url(#b)" transform="rotate(-90 498.552 -197.03) scale(.33925)"/><path d="M587.042 466.007c2.34 0 5.833 6.018 5.833 12.053 0 6.036-2.953 12.055-5.833 12.055-141.114-.032-35.048-.083-37.01.02.007-3.456-.007-20.345 0-24.148 1.973.105-104.1.052 37.01.02z" fill="#816647" stroke="#000" stroke-width=".621" stroke-linecap="square" stroke-linejoin="round" stroke-dashoffset="7.29" transform="matrix(0 -.33925 .60276 0 656.985 301.523)"/><g stroke="#000" stroke-linecap="square" stroke-linejoin="round" stroke-dashoffset="7.29"><path d="M399.884 263.437c5.946-.473 12.448-1.096 18.235-1.45 10.16 6.305 2.844.469 3.62-.037 113.188-8.693 225.472 13.574 338.305 15.727 4.706.124 8.87 15.519 8.87 39.416 0 23.898-4.164 39.293-8.87 39.305-112.982 6.083-225.328 18.478-338.715 15.723-.245-2.427.837-3.988-3.622-.184-5.583-.344-12.09-.955-17.823-1.411" fill="#282828" stroke-width="2.025" transform="matrix(0 -.10407 .1849 0 886.52 194.308)"/><path d="M769.99 272.513c-3.71 0-8.485 1.64-13.293 4.748 4.028 1.944 7.452 18.994 7.452 39.763 0 18.982-2.85 34.858-6.416 38.872 4.454 2.638 8.815 4.028 12.257 4.028 11.678 0 19.307-19.58 19.307-43.705 0-24.126-7.63-43.706-19.307-43.706z" fill="#036" stroke-width="2.674" transform="matrix(0 -.10407 .1849 0 886.52 194.308)"/><path d="M711.25 268.761c-4.03 0-9.216 1.78-14.437 5.156 4.374 2.112 8.093 20.63 8.093 43.188 0 20.616-3.096 37.859-6.968 42.219 4.837 2.865 9.573 4.375 13.312 4.375 12.683 0 20.969-21.265 20.969-47.469s-8.286-47.469-20.969-47.469z" fill="#036" stroke-width="2.904" transform="matrix(0 -.10407 .1849 0 886.52 194.308)"/><path transform="matrix(0 -.10768 .19132 0 883.146 192.673)" d="M381.138 323.858c0 28.553-4.777 52.138-10.663 52.138s-10.663-23.585-10.663-52.138c0-28.552 4.983-52.137 10.869-52.137s10.457 23.585 10.457 52.137z" fill="#666"/><path d="M406.35 316.867c0 26.354-4.12 47.742-9.195 47.742-142.395 1.284-284.643-19.157-336.288-47.742 64.58-23.72 186.193-49.025 336.288-47.742 5.075 0 9.195 21.389 9.195 47.742z" fill="#fdd99b" stroke-width=".892" transform="matrix(0 -.10407 .1849 0 886.52 194.308)"/><path d="M420.195 261.366c-2.074 1.273.962 2.587-2.905.925 5.807 0 10.49 24.393 10.49 54.542s-4.683 54.66-10.49 54.66c4.045.621.611-.95 3.163.89 6.968 0 11.638-21.75 11.638-55.55s-4.928-55.467-11.896-55.467z" fill="#666" stroke-width="1.184" transform="matrix(0 -.10407 .1849 0 886.52 194.308)"/><path d="M287.032 316.15c45.75 11.934-13.676 2.673 8.675 24.552-66.234.527 52.949 25.014-7.462 20.432-101.728-7.716-186.808-22.952-227.3-44.985 49.96-16.457 127.247-33.891 223.387-43.179 59.152-5.714-44.497 7.148 26.883 7.686 6.34 0-44.345 25.61-24.183 35.493z" stroke-width="1.046" transform="matrix(0 -.10407 .1849 0 886.52 194.308)"/></g><path d="M663.072 476.884c21.262-5.178 30.804-1.822 30.804 1.466 0 3.281-9.449 5.563-31.359.51" fill="none" stroke="#7e0101" stroke-width="1.5" transform="matrix(0 -.33925 .60276 0 656.985 301.523)"/><g stroke="#000" stroke-linecap="square" stroke-linejoin="round" stroke-dashoffset="7.29"><path transform="matrix(0 -.33925 .60276 0 656.514 345.733)" d="M793.39 478.843a8.229 8.229 0 0 1-8.226 8.226 8.229 8.229 0 0 1-8.226-8.226 8.229 8.229 0 0 1 8.226-8.226 8.229 8.229 0 0 1 8.226 8.226z" fill="#036"/><path d="M720.938 490.129c3.437-9.663 3.082-14.823.004-24.137 11.313-.003 19.398-.003 30.711-.004 4.158 5.176 6.79 2 11.716 2 4.926-.001 18.147-4.001 18.257-4.001 1.444.038 2.721 6.76 2.721 14.09 0 7.331-1.277 14.054-2.72 14.058-.112 0-13.334-4-18.26-4-4.927-.001-7.929-2.993-11.718 1.998-11.312-.001-19.398 0-30.711-.004z" fill="#282828" stroke-width=".621" transform="matrix(0 -.33925 .60276 0 656.985 345.733)"/><path d="M719.167 464.637c-1.138 0-2.602.503-4.077 1.456 1.235.596 2.286 5.826 2.286 12.198 0 5.822-1.193 10.692-2.286 11.924 1.366.809 3.021 1.235 4.077 1.235 3.582 0 5.923-6.006 5.923-13.407 0-7.4-2.34-13.406-5.923-13.406zm40 0c-1.138 0-3.863 2.503-5.338 3.456 1.236.596 3.547 3.826 3.547 10.198 0 5.822-2.453 8.692-3.547 9.924 1.366.809 4.282 3.235 5.338 3.235 3.582 0 5.923-6.006 5.923-13.407 0-7.4-2.34-13.406-5.923-13.406z" fill="#036" stroke-width=".82" transform="matrix(0 -.33925 .60276 0 656.985 345.733)"/></g><path d="M337.562 477.94c32.332-7.076 84.164-8.998 100.662-9.842 3.197-.163 3.544-1.576 3.687-1.585 33.534-2.234 57.911 3.992 89.575 4.982 3.05-.185 6.102-1.862 9.152.47l9.153.469c2.698-.606 5.395-3.615 8.093.214h28.617c2.614-1.09 5.228-3.51 7.842 0h32.155c2.614-.884 5.229-4.228 7.843 0l18.784-4.183" fill="none" stroke="#fff" filter="url(#a)" transform="matrix(0 -.33925 .60276 0 656.985 301.523)"/><path d="M337.562 477.94c32.332-7.076 84.164-8.998 100.662-9.842 3.197-.163 3.544-1.576 3.687-1.585 33.534-2.234 57.911 3.992 89.575 4.982 3.05-.185 6.102-1.862 9.152.47l9.153.469c2.698-.606 5.395-3.615 8.093.214h28.617c2.614-1.09 5.228-3.51 7.842 0h32.155c2.614-.884 5.229-4.228 7.843 0l18.784-4.183" fill="none" stroke="#fff" stroke-width="1.916" filter="url(#b)" transform="matrix(0 -.33925 .60276 0 656.985 301.523)"/><path d="M816.484 68.237a1.98 1.98 0 1 1-3.959 0 1.98 1.98 0 0 1 3.96 0zm43.549 0a1.98 1.98 0 1 1-3.959 0 1.98 1.98 0 0 1 3.96 0zm87.154 0a1.98 1.98 0 1 1-3.959 0 1.98 1.98 0 0 1 3.96 0z" fill="#565248"/><path d="M897.226 102.368c0-.794 2.042-1.979 4.089-1.979 2.047 0 4.09 1.002 4.09 1.98-.011 47.872-.029 11.89.006 12.555-1.172-.002-6.902.002-8.192 0 .036-.67.018 35.316.007-12.556z" fill="#816647" stroke="#000" stroke-width=".211" stroke-linecap="square" stroke-linejoin="round" stroke-dashoffset="7.29"/><g stroke="#000" stroke-linecap="square" stroke-linejoin="round" stroke-dashoffset="7.29"><path d="M895.737 152.693c-.05-.619-.114-1.295-.15-1.897.655-1.058.048-.296-.005-.377-.904-11.78 1.413-23.464 1.637-35.206.013-.49 1.615-.923 4.102-.923s4.089.433 4.09.923c.633 11.757 1.923 23.449 1.636 35.248-.252.026-.415-.087-.019.377-.036.581-.1 1.259-.147 1.855" fill="#282828" stroke-width=".211"/><path d="M896.682 114.178c0 .386.17.883.494 1.383.202-.42 1.976-.776 4.138-.776 1.975 0 3.627.297 4.045.668.274-.463.42-.917.42-1.275 0-1.216-2.038-2.01-4.55-2.01-2.51 0-4.547.794-4.547 2.01z" fill="#036" stroke-width=".278"/><path d="M896.291 120.29c0 .42.185.96.537 1.503.22-.455 2.146-.842 4.494-.842 2.146 0 3.94.322 4.394.725.298-.504.455-.996.455-1.386 0-1.32-2.213-2.182-4.94-2.182-2.727 0-4.94.863-4.94 2.182z" fill="#036" stroke-width=".302"/><path d="M901.297 151.63c3.075 0 5.615.515 5.615 1.149s-2.54 1.148-5.615 1.148c-3.074 0-5.614-.536-5.614-1.17 0-.634 2.54-1.126 5.614-1.126z" fill="#666" stroke-width=".108"/><path d="M901.297 152.02c2.743 0 4.969.429 4.969.957.133 14.819-1.994 29.622-4.969 34.996-2.468-6.72-5.102-19.376-4.968-34.996 0-.528 2.226-.957 4.968-.957z" fill="#fdd99b" stroke-width=".093"/><path d="M895.522 150.58c.132.215.269-.1.096.302 0-.605 2.538-1.092 5.676-1.092 3.137 0 5.688.487 5.688 1.092.065-.421-.099-.064.093-.33 0-.724-2.264-1.21-5.781-1.21-3.518 0-5.772.512-5.772 1.237z" fill="#666" stroke-width=".123"/><path d="M901.223 164.437c1.242-4.76.278 1.423 2.555-.902.055 6.892 2.603-5.51 2.126.776-.803 10.586-2.389 19.44-4.681 23.654-1.713-5.199-3.527-13.242-4.494-23.247-.595-6.156.744 4.63.8-2.797 0-.66 2.665 4.614 3.694 2.516z" stroke-width=".109"/></g><path d="M900.636 76.575c-3.12-7.213-1.098-10.45.884-10.45 1.978 0 3.353 3.205.308 10.638" fill="none" stroke="#7e0101" stroke-width=".678"/><path d="M901.315 76.575a2.792 2.792 0 0 1 0 5.581 2.792 2.792 0 0 1 0-5.58z" fill="#036" stroke="#000" stroke-linecap="square" stroke-linejoin="round" stroke-dashoffset="7.29" stroke-width=".339"/><path d="M905.41 101.154c-3.279-1.166-5.03-1.045-8.189-.001l-.001-10.419c1.755-1.41.678-2.303.678-3.974 0-1.672-1.357-6.157-1.357-6.194.012-.49 2.293-.923 4.78-.923s4.768.433 4.769.923c0 .038-1.357 4.523-1.357 6.194 0 1.672-1.015 2.69.678 3.976 0 3.837 0 6.58-.002 10.418z" fill="#282828" stroke="#000" stroke-width=".211" stroke-linecap="square" stroke-linejoin="round" stroke-dashoffset="7.29"/><path d="M896.761 101.755c0 .386.17.883.494 1.383.202-.419 1.977-.775 4.138-.775 1.976 0 3.628.404 4.045.775.275-.463.42-1.025.42-1.383 0-1.215-2.038-2.009-4.549-2.009-2.51 0-4.548.794-4.548 2.01zm0-13.57c0 .386.85 1.31 1.173 1.811.202-.42 1.298-1.203 3.46-1.203 1.975 0 2.948.832 3.366 1.203.274-.463 1.098-1.453 1.098-1.81 0-1.216-2.038-2.01-4.549-2.01-2.51 0-4.548.794-4.548 2.01z" fill="#036" stroke="#000" stroke-width=".278" stroke-linecap="square" stroke-linejoin="round" stroke-dashoffset="7.29"/><path d="M337.562 477.94c32.332-7.076 84.164-8.998 100.662-9.842 3.197-.163 3.544-1.576 3.687-1.585 33.534-2.234 57.911 3.992 89.575 4.982 3.05-.185 6.102-1.862 9.152.47l9.153.469c2.698-.606 5.395-3.615 8.093.214h28.617c2.614-1.09 5.228-3.51 7.842 0h32.155c2.614-.884 5.229-4.228 7.843 0l18.784-4.183" fill="none" stroke="#fff" filter="url(#a)" transform="rotate(-90 520.327 -218.805) scale(.33925)"/><path d="M337.562 477.94c32.332-7.076 84.164-8.998 100.662-9.842 3.197-.163 3.544-1.576 3.687-1.585 33.534-2.234 57.911 3.992 89.575 4.982 3.05-.185 6.102-1.862 9.152.47l9.153.469c2.698-.606 5.395-3.615 8.093.214h28.617c2.614-1.09 5.228-3.51 7.842 0h32.155c2.614-.884 5.229-4.228 7.843 0l18.784-4.183" fill="none" stroke="#fff" stroke-width="1.916" filter="url(#b)" transform="rotate(-90 520.327 -218.805) scale(.33925)"/><path d="M903.582 68.237a1.98 1.98 0 1 1-3.959 0 1.98 1.98 0 0 1 3.96 0z" fill="#565248"/><path d="M986.544 95.385c0-.307 1.6-.766 3.203-.766 1.604 0 3.203.388 3.203.766-.008 18.54-.022 56.027.005 56.285h-6.416c.028-.26.014-37.746.005-56.285z" fill="#816647" stroke="#000" stroke-width=".116" stroke-linecap="square" stroke-linejoin="round" stroke-dashoffset="7.29"/><g stroke="#000" stroke-linecap="square" stroke-linejoin="round" stroke-dashoffset="7.29"><path d="M985.41 181.692c-.037-.481-.088-1.007-.116-1.475.51-.822.038-.23-.003-.293-.704-9.157 1.098-18.241 1.272-27.37.01-.38 1.255-.717 3.189-.717 1.933 0 3.179.337 3.18.718.492 9.14 1.494 18.229 1.272 27.402-.197.02-.323-.068-.015.293-.028.452-.078.978-.114 1.442" fill="#282828" stroke-width=".164"/><path d="M986.145 151.75c0 .3.133.686.384 1.075.158-.326 1.537-.603 3.217-.603 1.536 0 2.82.231 3.145.52.213-.36.326-.714.326-.992 0-.945-1.584-1.562-3.536-1.562s-3.536.617-3.536 1.562z" fill="#036" stroke-width=".216"/><path d="M985.842 156.502c0 .326.144.746.417 1.168.17-.354 1.669-.655 3.494-.655 1.668 0 3.063.25 3.415.564.232-.391.354-.775.354-1.077 0-1.026-1.72-1.696-3.84-1.696s-3.84.67-3.84 1.696z" fill="#036" stroke-width=".235"/><path d="M989.733 180.866c2.39 0 4.365.4 4.365.892 0 .493-1.974.893-4.365.893-2.39 0-4.364-.417-4.364-.91 0-.492 1.974-.875 4.364-.875z" fill="#666" stroke-width=".084"/><path d="M989.734 181.15c1.794 0 3.25.22 3.25.494.088 7.664-1.304 15.321-3.25 18.1-1.616-3.475-3.339-10.021-3.252-18.1 0-.273 1.457-.495 3.252-.495z" fill="#fdd99b" stroke-width=".054"/><path d="M985.243 180.049c.103.167.21-.078.075.235 0-.47 1.974-.849 4.413-.849s4.422.379 4.422.849c.05-.328-.077-.05.072-.256 0-.564-1.76-.942-4.494-.942-2.735 0-4.488.399-4.488.963z" fill="#666" stroke-width=".096"/><path d="M989.685 187.571c.812-2.462.182.737 1.672-.466.036 3.565 1.703-2.85 1.391.401-.525 5.476-1.563 10.055-3.063 12.235-1.121-2.69-2.308-6.85-2.94-12.024-.39-3.184.486 2.395.523-1.447 0-.342 1.744 2.387 2.417 1.301z" stroke-width=".063"/></g><path d="M989.069 76.575c-3.122-7.213-1.098-10.45.883-10.45 1.978 0 3.353 3.205.308 10.638" fill="none" stroke="#7e0101" stroke-width=".679"/><path d="M989.747 76.537a2.17 2.17 0 1 1-.001 4.34 2.17 2.17 0 0 1 .001-4.34z" fill="#036" stroke="#000" stroke-linecap="square" stroke-linejoin="round" stroke-dashoffset="7.29" stroke-width=".264"/><path d="M992.93 95.645c-2.548-.906-3.91-.813-6.365 0l-.002-8.1c1.365-1.097.528-1.791.528-3.09 0-1.3-1.055-4.786-1.055-4.815.01-.38 1.783-.718 3.716-.718 1.933 0 3.706.337 3.707.718 0 .03-1.055 3.516-1.055 4.815 0 1.3-.789 2.091.527 3.09v8.1z" fill="#282828" stroke="#000" stroke-width=".164" stroke-linecap="square" stroke-linejoin="round" stroke-dashoffset="7.29"/><path d="M986.207 96.112c0 .3.133.687.384 1.076.157-.326 1.537-.603 3.217-.603 1.536 0 2.82.314 3.145.603.213-.36.326-.797.326-1.076 0-.944-1.584-1.562-3.536-1.562s-3.536.618-3.536 1.562zm0-10.549c0 .3.66 1.019.912 1.408.157-.326 1.009-.936 2.689-.936 1.536 0 2.293.647 2.617.936.214-.36.854-1.13.854-1.408 0-.945-1.584-1.562-3.536-1.562s-3.536.617-3.536 1.562z" fill="#036" stroke="#000" stroke-width=".216" stroke-linecap="square" stroke-linejoin="round" stroke-dashoffset="7.29"/><path d="M257.956 478.525c32.332-7.077 48.547-9.583 65.044-10.427 3.198-.163 3.545-1.576 3.688-1.585 33.533-2.234 57.91 3.992 89.575 4.982 3.05-.185 6.101-1.862 9.152.47l9.153.469c2.697-.606 5.395-3.615 8.093.214h204.507c2.614-1.09 5.228-3.51 7.843 0h32.154c2.615-.884 5.229-4.228 7.843 0l18.784-4.183" fill="none" stroke="#fff" filter="url(#a)" transform="rotate(-90 565.336 -298.332) scale(.26373)"/><path d="M258.54 478.525c32.332-7.077 47.963-9.583 64.46-10.427 3.198-.163 3.545-1.576 3.688-1.585 33.533-2.234 57.91 3.992 89.574 4.982 3.051-.185 6.102-1.862 9.153.47l9.153.469c2.697-.606 5.395-3.615 8.093.214h204.12c2.613-1.09 5.228-3.51 7.842 0h32.155c2.614-.884 5.228-4.228 7.842 0l18.785-4.183" fill="none" stroke="#fff" stroke-width="1.916" filter="url(#b)" transform="rotate(-90 565.336 -298.332) scale(.26373)"/><path d="M991.348 68.237a1.98 1.98 0 1 1-3.959 0 1.98 1.98 0 0 1 3.96 0z" fill="#565248"/><path opacity=".3" fill="#bebebe" d="M241.772 85.244v59.584h-222.7V85.244z"/><path opacity=".3" fill="#98fc66" d="M241.772 150.508v176.675h-222.7V150.508z"/><path opacity=".3" fill="#ace" d="M241.772 334.15v115.54h-222.7V334.15z"/><path opacity=".3" fill="#bebebe" d="M242.373 454.919v38.162H19.072v-38.162z"/><g font-style="italic"><text style="text-align:start;line-height:100%;-inkscape-font-specification:Arial Italic" x="134.168" y="466.436" font-size="15.748" font-weight="400" font-family="Arial" transform="translate(-.627 14.948)"><tspan x="134.168" y="466.436">stroke, character</tspan></text><text style="text-align:start;line-height:100%;-inkscape-font-specification:Arial Italic" x="141.648" y="289.568" font-size="15.748" font-weight="400" font-family="Arial" transform="translate(-.627 14.948)"><tspan x="141.648" y="306.74">body, handle</tspan></text><text style="text-align:start;line-height:100%;-inkscape-font-specification:Arial Italic" x="142.168" y="120.088" font-size="15.748" font-weight="400" font-family="Arial" transform="translate(-.627 14.948)"><tspan x="142.168" y="120.088">tail</tspan></text><text y="58.694" x="41.929" style="text-align:start;line-height:100%;-inkscape-font-specification:Times New Roman Bold Italic" font-size="29.15" font-weight="700" font-family="Times New Roman" transform="translate(-.627 14.948)"><tspan y="58.694" x="41.929" style="text-align:start;line-height:100%;-inkscape-font-specification:Times New Roman Bold Italic">Brush</tspan></text><text y="22.834" x="110.878" style="text-align:start;line-height:100%;-inkscape-font-specification:Times New Roman Bold Italic" font-size="29.15" font-weight="700" font-family="Times New Roman" transform="translate(-.627 14.948)"><tspan y="22.834" x="110.878" style="text-align:start;line-height:100%;-inkscape-font-specification:Times New Roman Bold Italic">Brush: <tspan fill="#888">head types, compostions, and brush size</tspan></tspan></text><text y="60.164" x="117.466" style="text-align:start;line-height:100%;-inkscape-font-specification:Arial Italic" font-size="15.748" font-weight="400" font-family="Arial" transform="translate(-.627 14.948)"><tspan y="60.164" x="117.466">(for begginers)</tspan></text></g><path d="M98.658 149.5c0-1.38 3.552-3.442 7.114-3.442s7.114 1.742 7.114 3.442c-.019 83.28-.05 179.804.011 180.963-2.039-.005-12.006.004-14.25 0 .061-1.165.03-97.686.011-180.963z" fill="#816647" stroke="#000" stroke-width=".366" stroke-linecap="square" stroke-linejoin="round" stroke-dashoffset="7.29"/><g stroke="#000" stroke-linecap="square" stroke-linejoin="round" stroke-dashoffset="7.29"><path d="M96.068 399.045c-.085-1.076-.198-2.254-.262-3.301 1.141-1.84.085-.515-.007-.655-1.574-20.491 2.458-40.818 2.847-61.245.023-.852 2.81-1.606 7.136-1.606 4.326 0 7.113.754 7.115 1.606 1.102 20.454 3.346 40.792 2.847 61.319-.44.044-.722-.152-.033.655-.063 1.011-.173 2.19-.256 3.227" fill="#282828" stroke-width=".367"/><path d="M97.712 332.044c0 .671.296 1.536.86 2.406.351-.73 3.438-1.349 7.198-1.349 3.436 0 6.31.516 7.037 1.162.477-.807.729-1.596.729-2.22 0-2.113-3.545-3.494-7.912-3.494-4.368 0-7.912 1.38-7.912 3.495z" fill="#036" stroke-width=".484"/><path d="M97.032 342.678c0 .729.323 1.668.934 2.613.382-.792 3.734-1.465 7.818-1.465 3.732 0 6.854.56 7.643 1.262.519-.876.792-1.734.792-2.41 0-2.297-3.85-3.797-8.593-3.797-4.744 0-8.594 1.5-8.594 3.797z" fill="#036" stroke-width=".526"/><path d="M105.741 397.197c5.349 0 9.767.895 9.767 1.997 0 1.103-4.418 1.998-9.767 1.998-5.348 0-9.767-.934-9.767-2.036 0-1.103 4.419-1.96 9.767-1.96z" fill="#666" stroke-width=".187"/><path d="M105.741 397.875c4.771 0 8.643.745 8.643 1.664.232 25.778-3.468 51.53-8.643 60.88-4.294-11.692-8.875-33.708-8.643-60.88 0-.919 3.872-1.664 8.643-1.664z" fill="#fdd99b" stroke-width=".161"/><path d="M95.694 395.368c.23.375.468-.174.167.526 0-1.051 4.416-1.899 9.874-1.899s9.895.848 9.895 1.899c.113-.732-.172-.11.161-.573 0-1.261-3.937-2.107-10.056-2.107s-10.041.893-10.041 2.154z" fill="#666" stroke-width=".214"/><path d="M105.611 419.475c2.16-8.282.484 2.476 4.445-1.57.095 11.99 4.528-9.586 3.699 1.35-1.397 18.416-4.155 33.819-8.144 41.15-2.98-9.045-6.135-23.037-7.817-40.441-1.034-10.709 1.294 8.055 1.392-4.867 0-1.148 4.636 8.028 6.425 4.378z" stroke-width=".189"/></g><path d="M104.591 104.63c-5.43-12.548-1.91-18.179 1.537-18.179 3.44 0 5.833 5.577.536 18.507" fill="none" stroke="#7e0101" stroke-width="1.18"/><path d="M105.772 104.63a4.856 4.856 0 0 1 4.855 4.855 4.856 4.856 0 0 1-4.855 4.855 4.856 4.856 0 0 1-4.855-4.855 4.856 4.856 0 0 1 4.855-4.854z" fill="#036" stroke="#000" stroke-linecap="square" stroke-linejoin="round" stroke-dashoffset="7.29" stroke-width=".59"/><path d="M112.894 147.389c-5.702-2.029-8.748-1.82-14.244-.003-.002-6.676-.002-11.448-.002-18.124 3.054-2.454 1.18-4.007 1.18-6.914-.001-2.907-2.362-10.71-2.362-10.775.023-.852 3.99-1.606 8.316-1.606 4.326 0 8.294.754 8.296 1.606 0 .066-2.36 7.868-2.36 10.776-.001 2.908-1.767 4.679 1.179 6.915 0 6.676 0 11.448-.003 18.125z" fill="#282828" stroke="#000" stroke-width=".366" stroke-linecap="square" stroke-linejoin="round" stroke-dashoffset="7.29"/><path d="M97.85 148.434c0 .671.297 1.536.86 2.406.351-.73 3.438-1.349 7.198-1.349 3.436 0 6.31.704 7.037 1.35.477-.807.729-1.784.729-2.407 0-2.114-3.544-3.495-7.912-3.495s-7.912 1.38-7.912 3.495zm0-23.607c0 .672 1.477 2.28 2.04 3.15.352-.728 2.258-2.092 6.018-2.092 3.436 0 5.13 1.447 5.856 2.093.478-.807 1.91-2.527 1.91-3.15 0-2.115-3.544-3.496-7.912-3.496s-7.912 1.381-7.912 3.495z" fill="#036" stroke="#000" stroke-width=".484" stroke-linecap="square" stroke-linejoin="round" stroke-dashoffset="7.29"/><path d="M63.06 477.94c32.331-7.076 84.164-8.998 100.66-9.842 3.198-.163 3.545-1.576 3.688-1.585 33.534-2.234 57.911 3.992 89.575 4.982 3.05-.185 6.102-1.862 9.153.47l9.152.469c2.698-.606 5.395-3.615 8.093.214h303.12c2.614-1.09 5.228-3.51 7.842 0h32.155c2.614-.884 5.229-4.228 7.843 0l18.784-4.183" fill="none" stroke="#fff" filter="url(#a)" transform="rotate(-90 159.794 336.154) scale(.59016)"/><path d="M63.06 477.94c32.331-7.076 84.164-8.998 100.66-9.842 3.198-.163 3.545-1.576 3.688-1.585 33.534-2.234 57.911 3.992 89.575 4.982 3.05-.185 6.102-1.862 9.153.47l9.152.469c2.698-.606 5.395-3.615 8.093.214h303.12c2.614-1.09 5.228-3.51 7.842 0h32.155c2.614-.884 5.229-4.228 7.843 0l18.784-4.183" fill="none" stroke="#fff" stroke-width="1.916" filter="url(#b)" transform="rotate(-90 159.794 336.154) scale(.59016)"/><path d="M70.85 477.962c2.376-1.04 3.86-1.994 4.454-2.865.137-.435-.183-.773-.96-1.015-.684-.17-1.461-.206-2.329-.109-1.279.218-2.238.58-2.878 1.088-1.507 1.596-1.987 2.744-1.439 3.445 0 .024.023.06.069.109.046.17.411.205 1.096.109.594-.025 1.256-.278 1.987-.762m11.923 7.144c.73-.653.868-1.402.41-2.248-1.918-3.119-3.402-7.265-4.453-12.439-.274-1.184-.32-1.958-.137-2.32.32-.242.662-.327 1.028-.255.137 0 2.055.52 5.755 1.56.731.242 1.188.29 1.37.145.184-.242 0-.592-.547-1.052-1.782-1.547-2.947-2.961-3.495-4.243-.41-1.04-.89-1.547-1.439-1.523-.457.073-2.01.992-4.66 2.756-1.004.653-1.095 2.08-.273 4.28.32 1.45 1.462 5.246 3.426 11.386a58.56 58.56 0 0 1 1.096 3.772c-1.416.242-2.352.556-2.81.943-.684.459-.41.713.823.761 1.964-.145 4.568.532 7.811 2.03.96.436 2.536.388 4.728-.144.183-.024.411-.085.685-.181 1.097-.46 1.051-.87-.137-1.233-1.233-.436-2.718-.798-4.453-1.088-1.965-.315-3.54-.617-4.728-.907m21.995-10.444c-.823-4.497-.8-8.691.068-12.583.137-.532.023-.883-.342-1.052-.594-.17-1.142-.121-1.645.145a11.17 11.17 0 0 0-3.152 2.538c-.274.315-.228.774.137 1.378.32.605 1.142 3.905 2.467 9.9-1.508.242-2.74.629-3.7 1.16a1.553 1.553 0 0 1-.206-.144c-4.43-2.925-6.829-4.678-7.194-5.258-.274-.46-.8-.629-1.576-.508-.731.097-1.942.943-3.632 2.538-.457.46-.48.967-.068 1.523.959 1.403 1.964 3.204 3.014 5.404.32.58.434 1.547.343 2.9-.046.581.388.762 1.302.545.594-.17 1.165-.484 1.713-.943.822-.75.777-1.535-.137-2.357-.32-.508-1.37-2.043-3.152-4.606-.183-.362-.114-.689.206-.979.41-.29.936-.362 1.576-.217 2.1.75 4.499 1.571 7.194 2.466-.457.241-.822.52-1.096.834-.32.29-.297.507.068.652.183.097.64.049 1.37-.145a47.48 47.48 0 0 1 4.386-.834c.457 2.708.936 5.065 1.439 7.072.594 2.345.868 4.363.822 6.056-.045.314.183.495.685.544.549.024 1.142-.182 1.782-.617 1.37-1.015 1.827-1.898 1.37-2.647-1.69-2.563-2.9-6.129-3.631-10.698 8.679-.58 14.206-.399 16.582.544 0 .024.045.048.137.073.182.169-.046 1.402-.686 3.698-.182.29-.16.508.069.653.046.145.388 0 1.028-.435 2.375-1.523 4.59-2.708 6.646-3.554.96-.46 1.188-.943.685-1.45-.593-.605-2.306-1.112-5.139-1.523-3.608-.532-8.473-.653-14.594-.363-1.965.024-3.678.12-5.14.29" font-size="120" font-weight="400" font-family="Bitstream Vera Sans"/><text style="text-align:start;line-height:100%;-inkscape-font-specification:Arial Italic" x="136.769" y="438.775" font-size="15.748" font-style="italic" font-weight="400" font-family="Arial"><tspan x="136.769" y="438.775">head</tspan></text><text style="text-align:start;line-height:100%;-inkscape-font-specification:Arial Italic" x="31.183" y="418.775" font-size="15.748" font-style="italic" font-weight="400" font-family="Arial"><tspan x="31.183" y="418.775">hairs</tspan></text><text y="102.775" x="31.215" style="text-align:start;line-height:100%;-inkscape-font-specification:Arial Italic" font-size="15.748" font-style="italic" font-weight="400" font-family="Arial"><tspan y="102.775" x="31.215">loops</tspan></text><text y="372.775" x="31.183" style="text-align:start;line-height:100%;-inkscape-font-specification:Arial Italic" font-size="15.748" font-style="italic" font-weight="400" font-family="Arial"><tspan y="372.775" x="31.183">horn</tspan></text><text style="text-align:start;line-height:100%;-inkscape-font-specification:Arial Italic" x="31.183" y="132.775" font-size="15.748" font-style="italic" font-weight="400" font-family="Arial"><tspan x="31.183" y="132.775">horn</tspan></text><text y="440.775" x="32.286" style="text-align:start;line-height:100%;-inkscape-font-specification:Arial Italic" font-size="15.748" font-style="italic" font-weight="400" font-family="Arial"><tspan y="440.775" x="32.286">...ink</tspan></text><text style="text-align:start;line-height:100%;-inkscape-font-specification:Arial Italic" x="267.619" y="80.106" font-size="15.748" font-style="italic" font-weight="400" font-family="Arial"><tspan x="267.619" y="80.106">Head and Hairs, </tspan><tspan x="267.619" y="95.854" fill="#888">Head types are according to hairs size/length, </tspan><tspan x="267.619" y="111.603" fill="#888">types (goat, rabbit, weasel, plum,...), and </tspan><tspan x="267.619" y="127.351" fill="#888">method of composition. Size and length allow </tspan><tspan x="267.619" y="143.1" fill="#888">large or small writings, types and composition </tspan><tspan x="267.619" y="158.848" fill="#888">make flexibility or rigidity and rebound.</tspan></text><text y="242.775" x="31.435" style="text-align:start;line-height:100%;-inkscape-font-specification:Arial Italic" font-size="15.748" font-style="italic" font-weight="400" font-family="Arial"><tspan y="242.775" x="31.435">bamboo</tspan></text><g stroke="#000"><path d="M335.078 859.75c-1.965 5.238-9.023 16.408-14.63 16.936-1.322-1.456-2.1-1.564-3.164-2.493 2.954 4.867 4.868 10.019 4.038 21.605-.481 1.087-2.021.818-3.01 1.311 3.565-.28 16.053 14.213 17.827 28.33 1.34 4.725-.67 6.189-3.22 7.224l-15.671-8.311-12.232-15.403c-4.407-15.057-6.523-25.316-6.065-39.657 16.421-24.806 23.317-24.126 34.63-26.494m-18.177 29.196c.6.713 1.236 1.435 1.84 2.157-.508-.45-1.096-1.078-1.84-2.157zm2.518 25.374c.052-.115.173-.202.331-.237-.12.065-.232.143-.33.237z" fill="#f1e2ba" fill-rule="evenodd" stroke-width=".92" transform="matrix(.70038 0 0 .73641 396.485 -355.297)"/><path d="M335.144 851.528c-2.065 5.507-9.484 8.03-15.379 8.585-1.389-1.53-2.207-1.644-3.325-2.62 3.105 5.116 5.117 10.531 4.245 22.71-.507 1.143-2.125.86-3.165 1.379 3.748-.295 20.825 6.38 26.312 24.182 2.066 2.334-1.035 5.19-3.386 7.595l-20.423-6.762-16.48-12.57c-4.632-15.827-6.857-26.612-6.375-41.686 28.784-30.684 14.305-13.509 39.037-23.57m-21.742 26.41c.63.75 1.3 1.509 1.935 2.268-.535-.474-1.152-1.133-1.935-2.268zm2.647 26.673c.055-.121.182-.213.348-.25-.126.07-.244.15-.348.25z" fill="#f1e2ba" fill-rule="evenodd" stroke-width=".967" transform="matrix(.70038 0 0 .73641 396.485 -355.297)"/><path d="M876.669 849.621c-15.191-.754-45.877-9.323-68.886-7.867-36.942 2.352-69.26-57.757-58.652-117.26.208-1.17 19.66-13.664 19.587-13.65-4.653.904-11.084-1.304-16.937-3.719.065-2.13-.462-2.837-.593-4.375-.518 7.253-2.1 16.604-13.026 22.026-1.196.406-1.86-3.058-3.006-3.495 1.624 1.273 4.806 11.843 6.022 22.186.664 5.655-.307 11.746-.458 17.27-.067 2.453-.426 3.028-1.126 5.044-.137 3.21-4.493 2.818-7.969 2.688l-10.344-20.375-5.906-29.813c7.91-14.569 14.21-22.613 24.803-32.414 9.166.181 24.287-.816 31.345 1.473 4.285 6.372 7.894 9.929 15.196 11.754-7.43-1.634-15.794-8.138-18.219-21 3.577-.13 7.983-.85 11.031-3.813-13.388 10.158-25.281.202-27.186-1.78-.226 6.095-6.944 10.659-11.003 12.726-7.446 3.793-16.216 9.205-24.673 2.53 6.97-6.533 14.337-16.049 19.602-25.546 11.932-4.614 30.75-14.548 36.135-14.742.77-.028 1.265.09 1.438.343L822 693.22c5.117 5.505 7.123 23.29 12.125 41.521 5.002 18.23-2.97-10.592 0 .229 2.97 10.82 6.97 21.71 13.344 30.125 6.346 9.726 17.773 11.475 27.557 12.605m-123.651-78.074c-.069 1.006-.116 2.047-.188 3.063-.057-.74-.043-1.673.188-3.063zm-16.719 21.531c.128-.043.288-.008.438.094a1.71 1.71 0 0 0-.438-.094z" fill="#f1e2ba" fill-rule="evenodd" transform="matrix(.70038 0 0 .73641 99.102 -273.683)"/><path d="M791.764 701.092c3.923.593 7.78 1.382 11.284 3.235m-22.658-1.017c-3.903 2.177-8.41 5.797-10.196 10.515" fill="none" transform="matrix(.70038 0 0 .73641 99.102 -273.683)"/><path d="M723.51 751.834c2.975-1.467 7.064-1.61 10.038-.32 5.059 6.659 5.073 15.938 4.245 18.942-2.372 1.01-3.533 1.792-6.316.338-2.864-6.97-5.11-11.143-7.966-18.96zm-8.676-63.204l19.574-23.26c2.764 1.59 3.189 4.706 3.667 7.67-5.526 10.126-15.13 17.072-23.241 15.59z" fill="#e4d7b1" fill-rule="evenodd" transform="matrix(.70038 0 0 .73641 99.102 -273.683)"/><path d="M743.267 793.856c1.639-2.883 4.943-5.297 8.13-5.898 7.923 2.671 10.59 7.18 15.171 13.005-1.397 2.167-2.946 3.755-6.066 4.114-6.282-4.162-10.483-6.355-17.235-11.221z" fill="#cccccf" fill-rule="evenodd" transform="matrix(.70038 0 0 .73641 99.102 -273.683)"/><path d="M742.156 812.805c1.68-2.26 4.717-3.953 7.466-4.129 6.403 3.075 8.184 7.153 11.442 12.54-1.403 1.682-2.874 2.86-5.542 2.839-4.864-4.16-8.178-6.446-13.366-11.25z" fill="#cccccf" fill-rule="evenodd" stroke-width=".85" transform="matrix(.70038 0 0 .73641 99.102 -273.683)"/></g><path d="M618.32 132.183c0-1.582 4.067-3.942 8.145-3.942 4.079 0 8.146 1.996 8.146 3.942-.021 95.358-.056 205.882.013 207.208-2.335-.005-13.748.005-16.317 0 .07-1.333.035-111.853.013-207.208z" fill="#816647" stroke="#000" stroke-width=".42" stroke-linecap="square" stroke-linejoin="round" stroke-dashoffset="7.29"/><g stroke="#000" stroke-linecap="square" stroke-linejoin="round" stroke-dashoffset="7.29"><path d="M615.355 417.92c-.098-1.232-.228-2.58-.3-3.78 1.306-2.105.096-.589-.009-.75-1.802-23.462 2.814-46.738 3.26-70.127.026-.975 3.217-1.838 8.171-1.838 4.954 0 8.145.863 8.147 1.838 1.261 23.42 3.83 46.708 3.26 70.212-.503.051-.827-.173-.038.751-.072 1.157-.198 2.506-.293 3.695" fill="#282828" stroke-width=".42"/><path d="M617.236 341.202c0 .769.34 1.758.984 2.755.403-.835 3.937-1.545 8.243-1.545 3.935 0 7.225.591 8.057 1.33.547-.923.835-1.827.835-2.54 0-2.421-4.058-4.002-9.06-4.002-5 0-9.059 1.58-9.059 4.002z" fill="#036" stroke-width=".554"/><path d="M616.458 353.378c0 .835.37 1.91 1.07 2.992.437-.906 4.275-1.677 8.951-1.677 4.274 0 7.848.641 8.752 1.444.594-1.002.907-1.984.907-2.76 0-2.628-4.408-4.346-9.84-4.346-5.432 0-9.84 1.718-9.84 4.347z" fill="#036" stroke-width=".602"/><path d="M626.43 415.804c6.125 0 11.183 1.025 11.183 2.287 0 1.263-5.058 2.287-11.183 2.287-6.124 0-11.183-1.068-11.183-2.33 0-1.263 5.059-2.244 11.183-2.244z" fill="#666" stroke-width=".214"/><path d="M626.43 416.58c5.463 0 9.897.854 9.897 1.906.266 29.517-3.971 59.004-9.897 69.71-4.917-13.388-10.162-38.597-9.896-69.71 0-1.052 4.433-1.906 9.896-1.906z" fill="#fdd99b" stroke-width=".185"/><path d="M614.925 413.71c.264.43.537-.2.192.602 0-1.203 5.057-2.174 11.306-2.174 6.25 0 11.33.97 11.33 2.174.13-.838-.196-.126.185-.655 0-1.444-4.509-2.413-11.515-2.413s-11.498 1.022-11.498 2.466z" fill="#666" stroke-width=".245"/><path d="M626.281 441.314c2.474-9.484.555 2.834 5.09-1.799.11 13.73 5.185-10.975 4.235 1.547-1.6 21.087-4.758 38.723-9.325 47.117-3.411-10.356-7.025-26.377-8.95-46.306-1.185-12.261 1.482 9.224 1.593-5.572 0-1.315 5.309 9.192 7.357 5.013z" stroke-width=".217"/></g><path d="M625.114 80.806c-6.218-14.369-2.188-20.816 1.76-20.816 3.94 0 6.678 6.385.613 21.19" fill="none" stroke="#7e0101" stroke-width="1.351"/><path d="M626.465 80.806a5.56 5.56 0 0 1 5.56 5.558 5.56 5.56 0 0 1-5.56 5.56 5.56 5.56 0 0 1-5.558-5.56 5.56 5.56 0 0 1 5.558-5.558z" fill="#036" stroke="#000" stroke-linecap="square" stroke-linejoin="round" stroke-dashoffset="7.29" stroke-width=".676"/><path d="M634.62 129.765c-6.529-2.323-10.016-2.083-16.31-.003-.002-7.644-.002-13.108-.002-20.753 3.497-2.81 1.35-4.588 1.35-7.917 0-3.329-2.703-12.263-2.703-12.337.026-.976 4.569-1.839 9.522-1.839 4.954 0 9.497.863 9.5 1.839 0 .075-2.704 9.01-2.704 12.339 0 3.329-2.022 5.357 1.35 7.918 0 7.644 0 13.108-.002 20.753z" fill="#282828" stroke="#000" stroke-width=".42" stroke-linecap="square" stroke-linejoin="round" stroke-dashoffset="7.29"/><path d="M617.394 130.962c0 .769.34 1.758.984 2.755.404-.835 3.938-1.545 8.243-1.545 3.935 0 7.226.806 8.058 1.545.546-.923.835-2.042.835-2.755 0-2.421-4.059-4.002-9.06-4.002s-9.06 1.58-9.06 4.002zm0-27.031c0 .77 1.692 2.611 2.336 3.608.403-.835 2.586-2.397 6.891-2.397 3.935 0 5.874 1.658 6.706 2.397.547-.923 2.187-2.894 2.187-3.608 0-2.42-4.059-4.001-9.06-4.001s-9.06 1.58-9.06 4.001z" fill="#036" stroke="#000" stroke-width=".554" stroke-linecap="square" stroke-linejoin="round" stroke-dashoffset="7.29"/><path d="M63.06 477.94c32.331-7.076 84.164-8.998 100.66-9.842 3.198-.163 3.545-1.576 3.688-1.585 33.534-2.234 57.911 3.992 89.575 4.982 3.05-.185 6.102-1.862 9.153.47l9.152.469c2.698-.606 5.395-3.615 8.093.214h303.12c2.614-1.09 5.228-3.51 7.842 0h32.155c2.614-.884 5.229-4.228 7.843 0l18.784-4.183" fill="none" stroke="#fff" filter="url(#a)" transform="rotate(-90 416.146 112.73) scale(.67575)"/><path d="M63.06 477.94c32.331-7.076 84.164-8.998 100.66-9.842 3.198-.163 3.545-1.576 3.688-1.585 33.534-2.234 57.911 3.992 89.575 4.982 3.05-.185 6.102-1.862 9.153.47l9.152.469c2.698-.606 5.395-3.615 8.093.214h303.12c2.614-1.09 5.228-3.51 7.842 0h32.155c2.614-.884 5.229-4.228 7.843 0l18.784-4.183" fill="none" stroke="#fff" stroke-width="1.916" filter="url(#b)" transform="rotate(-90 416.146 112.73) scale(.67575)"/><g stroke="#000"><path transform="matrix(.70038 0 0 .73641 99.102 -273.683)" d="M799.153 733.693c-48.686 25.172-14.227 91.157 10.622 86.812" fill="none"/><path d="M384.695 860.518c-17.866-10.46-17.749-14.568-25.101-24.209-10.87-8.51-15.033-11.256-15.802-12.624-38.523-26.601-27.71 30.934 2.67 37.516.077.636-2.538-2.082-4.426-1.321 1.435 8.909 9.97 18.397 11.547 18.839" fill="#f1e2ba" fill-rule="evenodd" transform="matrix(.70038 0 0 .73641 396.485 -355.297)"/><path d="M334.064 839.364c7.204-.716 11.914-3.854 12.873-10.633-19.444-33.36-41.89-.184-12.873 10.633z" fill="#e4d7b1" fill-rule="evenodd" transform="matrix(.70038 0 0 .73641 396.485 -355.297)"/></g><text y="170.464" x="650.831" style="text-align:start;line-height:100%;-inkscape-font-specification:Times New Roman Bold Italic" font-size="29.15" font-style="italic" font-weight="700" font-family="Times New Roman"><tspan y="170.464" x="650.831" style="text-align:start;line-height:100%;-inkscape-font-specification:Times New Roman Bold Italic">Brush</tspan><tspan y="199.614" x="650.831" style="text-align:start;line-height:100%;-inkscape-font-specification:Times New Roman Bold Italic">hold</tspan></text><path d="M717.153 186.755c-4.624 19.719-6.646 24.045-14.061 35.56-.484-.29-2.724-3.012-2.724-3.012l-2.836 14.26 11.73-8.059s-2.984-.877-3.185-1.08c10.461-16.778 10.063-28.068 11.076-37.669z" fill="#666" fill-rule="evenodd"/><text y="370.456" x="641.52" style="text-align:start;line-height:100%;-inkscape-font-specification:Arial Italic" font-size="11.581" font-style="italic" font-weight="400" font-family="Arial"><tspan y="370.456" x="641.52">(confirmed users)</tspan></text><text style="text-align:start;line-height:100%;-inkscape-font-specification:Arial Italic" x="266.858" y="327.679" font-size="15.748" font-style="italic" font-weight="400" font-family="Arial"><tspan x="266.858" y="327.679">Head compositions, </tspan><tspan x="266.858" y="343.427" fill="#888">Type 1 : Snzhu, one hairs type. </tspan><tspan x="266.858" y="359.176" fill="#888">Type 2 : Zhu/Bei, rigid hairs inside, soft hairs </tspan><tspan x="266.858" y="374.924" fill="#888">outside. </tspan><tspan x="266.858" y="390.672" fill="#888">Type 3 : Jinho, mix in heart and ring, very </tspan><tspan x="266.858" y="406.421" fill="#888">soft in skin. a : Anatomy with heart, ring, skin. </tspan><tspan x="266.858" y="433.389">Brush,<tspan font-size="30" fill="#fff">|</tspan></tspan><tspan x="266.858" y="452.169" fill="#888">The height of the brush hold influence </tspan><tspan x="266.858" y="467.918" fill="#888">control and velocity. The calligrapher choice </tspan><tspan x="266.858" y="483.666" fill="#888">his brush mainly according to which styles he </tspan><tspan x="266.858" y="515.163" fill="#888">want to write down, and with which size.</tspan></text><path d="M405.951 324.63c9.279-10.868 10.88-13.858 14.264-23.037-.374-.173-2.896-.402-2.896-.402l6.929-7.554.452 10.356s-1.789-1.434-1.991-1.472c-5.08 13.17-11.706 17.561-16.758 22.108z" fill="#917c6f" fill-rule="evenodd"/><path d="M463.056 269.087c.145 1.755.335 3.674.443 5.381-2.011 3.948-31.997 4.746-33.54-.121.104-1.648.29-3.568.43-5.26" fill="#282828" stroke="#000" stroke-width=".608" stroke-linecap="square" stroke-linejoin="round" stroke-dashoffset="7.29"/><path d="M446.69 271.98c-9.014 0-16.458-1.458-16.458-3.255 0-1.798 7.444-3.257 16.457-3.257 9.013 0 16.458 1.522 16.458 3.32 0 1.797-7.445 3.193-16.458 3.193z" fill="#666" stroke="#000" stroke-width=".31" stroke-linecap="square" stroke-linejoin="round" stroke-dashoffset="7.29"/><path d="M446.69 270.876c-8.04 0-14.565-1.216-14.565-2.714-.391-42.025 5.844-84.007 14.564-99.249 7.236 19.06 14.956 54.951 14.564 99.25 0 1.497-6.525 2.713-14.564 2.713z" fill="#f4ede8" stroke="#000" stroke-width=".268" stroke-linecap="square" stroke-linejoin="round" stroke-dashoffset="7.29"/><path d="M463.62 274.962c-.388-.612-.79.284-.282-.857 0 1.714-7.441 3.096-16.638 3.096-9.197 0-16.674-1.382-16.674-3.096-.19 1.194.29.18-.272.933 0 2.057 6.635 3.435 16.946 3.435 10.31 0 16.92-1.454 16.92-3.51z" fill="#666" stroke="#000" stroke-width=".355" stroke-linecap="square" stroke-linejoin="round" stroke-dashoffset="7.29"/><path d="M446.689 269.9c-7.03 0-12.736-1.163-12.736-2.597-.342-40.23 5-81.52 12.626-96.11 6.328 18.245 13.188 53.704 12.846 96.11 0 1.434-5.706 2.598-12.736 2.598z" fill="#d49a38" fill-opacity=".638" stroke="#000" stroke-width=".245" stroke-linecap="square" stroke-linejoin="round" stroke-dashoffset="7.29"/><path d="M446.356 268.983c-1.724 0-6-.55-6-2.05-.17-42.068 2.431-80.363 6.222-95.62 3.146 19.079 6.612 51.277 6.442 95.62 0 1.5-4.718 2.05-6.664 2.05z" fill="none" stroke="#000" stroke-width=".177" stroke-linecap="square" stroke-linejoin="round" stroke-dashoffset="7.29"/><path d="M461.12 268.435l-14.395-3.098v-95.785c4.826 14.925 13.394 34.786 14.394 98.883z" fill="#fffaff" fill-opacity=".258"/><path d="M461.12 268.435l-14.395-3.098-14.446 2.785c1.509 3.729 25.811 3.192 28.84.313z" fill="#000d00" fill-opacity=".089"/><path d="M366.24 269.087c.144 1.755.335 3.674.442 5.381-2.01 3.948-31.997 4.746-33.54-.121.105-1.648.291-3.568.43-5.26" fill="#282828" stroke="#000" stroke-width=".608" stroke-linecap="square" stroke-linejoin="round" stroke-dashoffset="7.29"/><path d="M349.873 271.98c-9.013 0-16.458-1.458-16.458-3.255 0-1.798 7.445-3.257 16.458-3.257 9.013 0 16.457 1.522 16.457 3.32 0 1.797-7.444 3.193-16.457 3.193z" fill="#666" stroke="#000" stroke-width=".31" stroke-linecap="square" stroke-linejoin="round" stroke-dashoffset="7.29"/><path d="M349.873 270.876c-8.04 0-14.564-1.216-14.564-2.714-.392-42.025 5.844-84.007 14.564-99.249 7.236 19.06 14.955 54.951 14.564 99.25 0 1.497-6.525 2.713-14.564 2.713z" fill="#fdd99b" stroke="#000" stroke-width=".268" stroke-linecap="square" stroke-linejoin="round" stroke-dashoffset="7.29"/><path d="M366.804 274.962c-.389-.612-.79.284-.282-.857 0 1.714-7.442 3.096-16.639 3.096s-16.674-1.382-16.674-3.096c-.19 1.194.29.18-.271.933 0 2.057 6.635 3.435 16.945 3.435 10.311 0 16.92-1.454 16.92-3.51z" fill="#666" stroke="#000" stroke-width=".355" stroke-linecap="square" stroke-linejoin="round" stroke-dashoffset="7.29"/><path d="M364.303 268.435l-14.394-3.098v-95.785c4.826 14.925 13.394 34.786 14.394 98.883z" fill="#fffaff" fill-opacity=".258"/><path d="M364.303 268.435l-14.394-3.098-14.446 2.785c1.509 3.729 25.81 3.192 28.84.313z" fill="#000d00" fill-opacity=".089"/><path d="M514.312 269.087c.144 1.755.335 3.674.442 5.381-2.01 3.948-31.997 4.746-33.54-.121.105-1.648.291-3.568.43-5.26" fill="#282828" stroke="#000" stroke-width=".608" stroke-linecap="square" stroke-linejoin="round" stroke-dashoffset="7.29"/><path d="M497.945 271.98c-9.013 0-16.458-1.458-16.458-3.255 0-1.798 7.445-3.257 16.458-3.257 9.013 0 16.457 1.522 16.457 3.32 0 1.797-7.444 3.193-16.457 3.193z" fill="#666" stroke="#000" stroke-width=".31" stroke-linecap="square" stroke-linejoin="round" stroke-dashoffset="7.29"/><path d="M497.945 270.876c-8.04 0-14.564-1.216-14.564-2.714-.392-42.025 5.844-84.007 14.564-99.249 7.236 19.06 14.955 54.951 14.564 99.25 0 1.497-6.525 2.713-14.564 2.713z" fill="#f4ede8" stroke="#000" stroke-width=".268" stroke-linecap="square" stroke-linejoin="round" stroke-dashoffset="7.29"/><path d="M514.876 274.962c-.389-.612-.79.284-.282-.857 0 1.714-7.442 3.096-16.639 3.096s-16.674-1.382-16.674-3.096c-.19 1.194.29.18-.271.933 0 2.057 6.635 3.435 16.945 3.435s16.92-1.454 16.92-3.51z" fill="#666" stroke="#000" stroke-width=".355" stroke-linecap="square" stroke-linejoin="round" stroke-dashoffset="7.29"/><path d="M497.945 269.9c-7.03 0-12.736-1.163-12.736-2.597-.342-40.23 5-81.52 12.626-96.11 6.327 18.245 13.188 53.704 12.845 96.11 0 1.434-5.705 2.598-12.735 2.598z" fill="none" stroke="#000" stroke-width=".245" stroke-linecap="square" stroke-linejoin="round" stroke-dashoffset="7.29"/><path d="M497.612 268.983c-1.725 0-6-.55-6-2.05-.17-42.068 2.43-80.363 6.222-95.62 3.146 19.079 6.612 51.277 6.442 95.62 0 1.5-4.718 2.05-6.664 2.05z" fill="none" stroke="#000" stroke-width=".177" stroke-linecap="square" stroke-linejoin="round" stroke-dashoffset="7.29"/><path d="M512.375 268.435l-14.394-3.098v-95.785c4.826 14.925 13.393 34.786 14.394 98.883z" fill="#fffaff" fill-opacity=".258"/><path d="M512.375 268.435l-14.394-3.098-14.446 2.785c1.509 3.729 25.81 3.192 28.84.313z" fill="#000d00" fill-opacity=".089"/><path d="M414.648 269.023c.144 1.755.335 3.674.443 5.382-2.011 3.947-31.998 4.745-33.541-.122.105-1.648.292-3.568.43-5.26" fill="#282828" stroke="#000" stroke-width=".608" stroke-linecap="square" stroke-linejoin="round" stroke-dashoffset="7.29"/><path d="M398.281 271.917c-9.013 0-16.458-1.459-16.458-3.256 0-1.798 7.445-3.257 16.458-3.257 9.013 0 16.457 1.522 16.457 3.32 0 1.797-7.444 3.193-16.457 3.193z" fill="#666" stroke="#000" stroke-width=".31" stroke-linecap="square" stroke-linejoin="round" stroke-dashoffset="7.29"/><path d="M398.281 270.812c-8.04 0-14.564-1.216-14.564-2.714-.391-42.025 5.844-66.41 14.564-81.652 7.236 19.06 14.955 37.354 14.564 81.652 0 1.498-6.525 2.714-14.564 2.714z" fill="#fdd99b" stroke="#000" stroke-width=".268" stroke-linecap="square" stroke-linejoin="round" stroke-dashoffset="7.29"/><path d="M415.212 274.898c-.388-.612-.79.284-.282-.857 0 1.714-7.442 3.096-16.639 3.096s-16.674-1.382-16.674-3.096c-.19 1.194.29.18-.271.933 0 2.057 6.635 3.435 16.945 3.435 10.311 0 16.92-1.454 16.92-3.51z" fill="#666" stroke="#000" stroke-width=".355" stroke-linecap="square" stroke-linejoin="round" stroke-dashoffset="7.29"/><path d="M397.948 268.919c-1.725 0-6-.55-6-2.05-.17-42.068 2.431-82.743 6.222-98.001 3.146 19.08 6.612 53.658 6.442 98.002 0 1.5-4.718 2.049-6.664 2.049z" fill="#d09030" stroke="#000" stroke-width=".177" stroke-linecap="square" stroke-linejoin="round" stroke-dashoffset="7.29"/><path d="M412.711 268.371l-14.394-3.098v-95.785c4.826 14.925 13.394 34.786 14.394 98.883z" fill="#fffaff" fill-opacity=".258"/><path d="M412.711 268.371l-14.394-3.098-14.446 2.785c1.509 3.729 25.811 3.192 28.84.313z" fill="#000d00" fill-opacity=".089"/><path d="M354.133 286.467v15.123h-4.179v-9.91c-.676.514-1.332.93-1.967 1.248-.63.317-1.42.622-2.374.913v-3.388c1.407-.453 2.499-.998 3.276-1.633a6.662 6.662 0 0 0 1.826-2.353h3.418m50.345 15.123h-12.394c.142-1.224.571-2.374 1.288-3.449.724-1.082 2.076-2.356 4.057-3.824 1.21-.9 1.985-1.582 2.323-2.049.338-.466.507-.91.507-1.328a1.53 1.53 0 0 0-.507-1.157c-.331-.324-.75-.486-1.258-.486-.527 0-.96.165-1.298.497-.331.33-.554.916-.67 1.754l-4.138-.334c.163-1.163.46-2.07.893-2.719.433-.656 1.041-1.156 1.826-1.5.79-.352 1.883-.528 3.276-.528 1.453 0 2.583.165 3.387.497.812.331 1.447.842 1.907 1.531.467.683.7 1.45.7 2.303 0 .906-.267 1.771-.801 2.596-.528.825-1.491 1.731-2.89 2.718-.833.575-1.39.978-1.674 1.207-.278.23-.606.531-.984.903h6.45v3.368m40.198-10.57l-3.905-.699c.325-1.244.947-2.198 1.866-2.86.927-.663 2.235-.994 3.926-.994 1.94 0 3.343.362 4.209 1.085.865.724 1.298 1.633 1.298 2.728 0 .643-.176 1.224-.527 1.745-.352.52-.883.977-1.593 1.37.575.141 1.015.307 1.319.496.493.305.875.707 1.146 1.207.277.494.416 1.085.416 1.775 0 .866-.227 1.697-.68 2.495-.453.791-1.105 1.403-1.957 1.836-.852.426-1.971.64-3.358.64-1.352 0-2.42-.16-3.205-.478a4.848 4.848 0 0 1-1.927-1.39c-.5-.614-.886-1.385-1.156-2.312l4.128-.547c.162.831.413 1.41.75 1.734.345.318.782.477 1.31.477.553 0 1.013-.203 1.378-.609.372-.406.558-.947.558-1.623 0-.69-.179-1.224-.537-1.602-.352-.379-.832-.568-1.44-.568-.325 0-.771.08-1.34.243l.214-2.951c.23.033.409.05.537.05.541 0 .99-.172 1.35-.517.364-.345.547-.754.547-1.227 0-.453-.135-.815-.406-1.085-.27-.27-.642-.406-1.116-.406-.486 0-.882.149-1.186.446-.305.29-.51.805-.619 1.542m51.337 3.286l-3.945-.416c.148-.69.361-1.23.639-1.623.284-.399.69-.743 1.217-1.034.378-.21.899-.372 1.562-.487a12.59 12.59 0 0 1 2.15-.172c1.237 0 2.231.07 2.982.213.75.135 1.376.422 1.876.862.352.304.63.737.832 1.298.203.554.304 1.085.304 1.592v4.757c0 .507.03.906.091 1.197.068.284.21.65.426 1.096h-3.874a4.092 4.092 0 0 1-.304-.63 4.912 4.912 0 0 1-.142-.689c-.541.52-1.079.893-1.613 1.116-.73.297-1.58.446-2.546.446-1.285 0-2.262-.298-2.931-.893-.663-.595-.994-1.328-.994-2.2 0-.819.24-1.492.72-2.019.48-.527 1.366-.92 2.657-1.177 1.549-.31 2.553-.527 3.013-.649.46-.128.946-.294 1.46-.497 0-.507-.105-.862-.314-1.065-.21-.202-.578-.304-1.106-.304-.676 0-1.183.108-1.521.325-.264.169-.477.487-.64.953m3.581 2.17c-.568.203-1.16.383-1.775.538-.838.223-1.369.443-1.592.66-.23.223-.345.476-.345.76 0 .325.112.592.335.801.23.203.564.305 1.004.305.46 0 .886-.112 1.278-.335.399-.223.68-.494.842-.811.169-.325.253-.744.253-1.258v-.66" style="-inkscape-font-specification:'Arial Black, Bold'" font-size="18" font-weight="700" font-family="Arial #000"/><path d="M649.182 506.162c4.304-5.824 9.498-14.482 13.577-24.902 4.286-11.909 8.575-26.478 6.13-31.831-1.862-4.075-5.237-5.962-9.075-4.925-3.069.83-.452-.982 1.142 7.412.333 1.757-3.297 16.563-5.821 23.51-6.102 16.79-20.1 38.805-23.756 35.864-2.216-1.784-2.958-8.742-2.758-11.233.961-11.989-.948-2.001-.966 10.568.358 4.143 1.305 10.54 6.327 9.608 8.089-1.5 13.818-14.088 15.2-14.071z"/><path d="M690.5 490.875c-6.49 12.48-21.88 25.65-37.312 17.688-2.897-1.495-7.523-3.085-8.182-8.62-1.012-8.492-2.037 4.303 1.945 9.462 5.11 6.622 18.519 10.358 27.114 8.775 10.347-1.905 18.307-8.547 25.367-21.12 5.438-9.683 6.122-15.845 6.747-21.155.38-3.225-1.137-7.85-2.132-9.71-1.203-2.248-5.94-4.87-8.797-4.87-1.73 0-2.532-.39-2.532-1.233 0-2.102 5.696-12.78 8.249-15.462 2.019-2.122 2.333-2.966 1.876-5.046-.63-2.868-5.593-7.362-8.13-7.362-15.46 4.54-24.782 7.71-37.829 16.957-3.797 2.526-12.039 10.473-12.694 12.05-.926 2.227 6.647-4.11 9.649-5.877 11.165-6.577 23.628-12.059 36.47-14.545.9.9-3.678 13.88-6.559 18.593-1.959 3.204-1.937 4.903.104 8.252 1.64 2.69 1.64 2.69 6.77 2.14 3.38-.362 5.314-.25 5.671.327.579.936-1.854 13.179-5.794 20.756z" fill="#980101"/><path d="M664.007 484.77c5.17.258 21.588 8.933 29.037 13.779 5.145 4.119 14.078 9.286 21.02 16.264 4.34 4.363 6.957 6.977 9.552 6.671 1.94-.229 3.391-1.912 3.145-4.176-.892-8.207-11.844-21.207-28.041-27.921-13.985-5.798-25.754-8.11-35.608-10.493-3.454-.835-11.724 1.583-12.007 6.322-.061 1.029 5.523-1.055 7.113-1.265" fill="#fd3301"/><path d="M659.27 436.744v6.874h-1.9v-4.504a5.714 5.714 0 0 1-.894.567 6.87 6.87 0 0 1-1.079.415v-1.54c.64-.206 1.136-.453 1.49-.742.353-.29.63-.646.83-1.07h1.553m-13.648 21.66h-5.633a3.53 3.53 0 0 1 .585-1.567c.329-.492.944-1.071 1.844-1.738.55-.409.902-.72 1.056-.931.154-.212.23-.414.23-.604a.695.695 0 0 0-.23-.526.783.783 0 0 0-.572-.221.808.808 0 0 0-.59.226c-.15.15-.252.416-.304.797l-1.881-.152c.074-.528.209-.94.406-1.235.196-.298.473-.526.83-.683.36-.16.855-.24 1.489-.24.66 0 1.174.076 1.54.226.368.151.657.383.866.697.212.31.318.659.318 1.046 0 .412-.121.805-.364 1.18-.24.375-.678.787-1.314 1.236a14.99 14.99 0 0 0-.76.549 7.418 7.418 0 0 0-.448.41h2.932v1.53m18.706 29.988l-1.775-.318c.148-.565.43-.999.849-1.3.42-.301 1.016-.452 1.784-.452.882 0 1.52.165 1.913.494.394.329.59.742.59 1.24 0 .292-.08.556-.24.793-.16.236-.4.444-.723.622.261.065.46.14.6.226.223.138.397.321.52.549.126.224.189.493.189.806 0 .394-.103.772-.309 1.135-.206.36-.502.637-.89.834-.387.194-.896.29-1.526.29-.614 0-1.1-.072-1.456-.216a2.203 2.203 0 0 1-.876-.632 2.96 2.96 0 0 1-.526-1.05l1.876-.25c.074.378.188.64.342.788a.843.843 0 0 0 .594.217.808.808 0 0 0 .627-.276c.17-.185.254-.43.254-.738 0-.314-.082-.556-.244-.729-.16-.172-.379-.258-.655-.258-.148 0-.35.037-.609.111l.097-1.342c.105.016.186.023.244.023a.85.85 0 0 0 .614-.235.742.742 0 0 0 .249-.558.667.667 0 0 0-.185-.493c-.123-.123-.292-.184-.507-.184a.74.74 0 0 0-.54.203c-.138.132-.231.365-.28.7" style="-inkscape-font-specification:'Arial Black, Bold'" font-size="18" font-weight="700" fill="#b3b3b3" font-family="Arial #000"/><path fill="none" stroke="#c2d0df" d="M770.113-1.485h425.51v528.891h-425.51z"/><text style="-inkscape-font-specification:'Arial Black, Bold'" x="800.079" y="14.996" font-size="18" font-weight="700" font-family="Arial #000"><tspan x="800.079" y="14.996">Reserve tools:</tspan></text><text style="-inkscape-font-specification:'Arial Black, Bold'" x="818.058" y="509.427" font-size="18" font-weight="700" font-family="Arial #000"><tspan x="818.058" y="509.427" style="-inkscape-font-specification:AR PL UKai CN Bold" font-family="AR PL UKai CN">Source:</tspan><tspan x="818.058" y="531.927" style="-inkscape-font-specification:AR PL UKai CN" font-weight="400" font-family="AR PL UKai CN">* zh: </tspan><tspan x="818.058" y="554.427" style="-inkscape-font-specification:AR PL UKai CN" font-weight="400" font-family="AR PL UKai CN"> http://ap6.pccu.edu.tw/encyclopedia/data.asp?id=6558</tspan></text></svg>