<svg xmlns="http://www.w3.org/2000/svg" width="744.094" height="524.409" version="1"><defs><filter id="b" x="-.071" width="1.142" y="-.387" height="1.774"><feGaussianBlur stdDeviation="1.446"/></filter><filter id="a" x="-.257" width="1.514" y="-.034" height="1.068"><feGaussianBlur stdDeviation="3.428"/></filter></defs><path opacity=".2" fill="#fff" d="M0-.886h744.094v526.181H0z"/><path opacity=".3" fill="#bebebe" d="M45.598 370.519h31.03v120.099h-31.03z"/><path opacity=".3" fill="#98fc66" d="M91.419 370.519h87.471v120.099H91.419z"/><path opacity=".3" fill="#ace" d="M191.3 370.519h62.635v120.099H191.3z"/><path opacity=".3" fill="#bebebe" d="M258.128 370.519h16.664v120.099h-16.664z"/><path d="M274.563 428.079H46.72c.72 19.222 37.868 29.15 65.158 29.15h140.709c15.205 0 21.976-14.313 21.976-29.15z" fill="#666"/><path d="M257.113 428.079H75.82c7.338 11.482 64.974 9.448 97.77 13.243 31.652 6.55 64.514 8.35 74.867 8.35 10.352 0 9.132-14.64 8.656-21.593z" fill="#aaa"/><path d="M256.76 442.227h-71.857c-5.17-1.395-58.214-6.511-59.12-3.973 16.757.776 30.057 1.445 47.807 3.068 24.638 5.015 49.742 7.707 74.867 8.35 4.47-.482 6.44-2.109 8.303-7.445z" opacity=".5" fill="#a1d2f7"/><path d="M21.542 212.431c26.237-85.541 604.948-92.38 562.243-.581-30.77 57.403-58.778 95.062-115.104 95.48-259.273 1.919-473.15-10.09-447.139-94.899z" opacity=".7" fill="#333" stroke="#000" stroke-width="3.222" stroke-linecap="square" stroke-linejoin="round" stroke-dashoffset="1.061"/><path d="M517.897 242.509c-23.845 36.627-62.806 46.232-100.49 43.301-173.466-13.49-294.381-38.252-280.185-74.95 11.976-30.958 111.895-34.466 240.96-25.331 30.8 2.18 63.26 5.08 96.58 8.498 28.782 2.953 64.601 15.507 43.135 48.482z" opacity=".7" fill="#cccccf" stroke="#000" stroke-width="3.127" stroke-linecap="square" stroke-linejoin="round" stroke-dashoffset="1.061"/><path d="M524.594 221.079c-23.845 36.627-69.503 56.947-107.187 54.016 32.174-45.077.172-5.32 54.44-79.902 28.781 2.953 74.213-7.089 52.747 25.886z" opacity=".5" fill="#a1d2f7"/><path d="M418.789 141.365c-215.087.257-382.215 16.455-397.242 67.917-16.435 56.286 159.225 78.354 418.498 76.435 56.326-.417 112.968-19.596 143.738-77 27.702-51.677-27.065-65.799-70.175-66.542-32.38-.557-64.092-.846-94.819-.81zm-1.94 21.33c21.655-.026 43.994.172 66.813.565 30.382.523 68.982 10.462 49.46 46.882-21.686 40.454-61.58 54-101.275 54.294-182.721 1.352-306.544-14.21-294.961-53.877 10.59-36.268 128.382-47.683 279.964-47.864z" fill="#666" stroke="#000" stroke-width="2.356" stroke-linecap="square" stroke-linejoin="round" stroke-dashoffset="1.061"/><path d="M322.662 437.624c10.798-35.204 248.96-38.019 231.386-.24-12.663 23.624-24.19 39.122-47.37 39.294-106.702.79-194.72-4.153-184.016-39.054z" opacity=".7" fill="#333" stroke="#000" stroke-width="1.326" stroke-linecap="square" stroke-linejoin="round" stroke-dashoffset="1.061"/><path d="M526.932 450.002c-9.813 15.073-25.847 19.026-41.356 17.82-71.388-5.552-121.15-15.743-115.307-30.845 6.105-15.78 67.736-14.23 138.911-6.928 11.845 1.216 26.586 6.382 17.752 19.953z" opacity=".7" fill="#cccccf" stroke="#000" stroke-width="1.287" stroke-linecap="square" stroke-linejoin="round" stroke-dashoffset="1.061"/><path d="M529.688 441.182c-9.813 15.074-28.603 23.436-44.112 22.23 13.241-18.55 1.271-2.67 23.604-33.363 11.845 1.216 29.342-2.437 20.508 11.133z"/><path d="M486.145 408.377c-88.517.106-157.297 6.772-163.48 27.95-6.764 23.165 65.527 32.246 172.228 31.456 23.18-.171 46.49-8.064 59.154-31.688 11.4-21.267-11.139-27.079-28.88-27.385a2130.878 2130.878 0 0 0-39.022-.333zm-.798 8.778c8.912-.01 18.105.07 27.496.233 12.503.215 28.389 4.305 20.354 19.293-8.924 16.649-25.342 22.224-41.678 22.345-75.197.556-126.155-5.848-121.388-22.173 4.358-14.926 52.834-19.623 115.216-19.698z" fill="#666" stroke="#000" stroke-width=".97" stroke-linecap="square" stroke-linejoin="round" stroke-dashoffset="1.061"/><path d="M493.23 445.874a35.856 13.692 5.957 1 1-71.247-8.022 35.856 13.692 5.957 1 1 71.248 8.022z" opacity=".7" fill="#ace"/><path d="M502.802 440.241c-.222 1.393-2.969 13.437-9.499 13.435-.835-5.3-14.805-4.346-16.968-3.694-5.358 1.615-12.911 2.16-21.078 1.229-15.087-1.719-26.581-7.82-25.658-13.62.924-5.8 13.918-9.113 29.004-7.394 11.34 1.291 20.65 5.06 24.182 9.314 1.168 1.406 12.83 4.587 20.017.73z" opacity=".7"/><path d="M445.668 441.176c4.73-3.567 11.647-4.647 19.1 0V364.78c-6.367-4.596-12.733-4.045-19.1 0v76.396z" fill="#666"/><path d="M445.668 365.185c4.73 3.567 11.647 4.647 19.1 0v76.396c-6.367 4.596-12.733 4.045-19.1 0v-76.396z"/><path d="M567.439 470.458c-35.932-1.262-22.215-238.37-30.511-240.804l-.47 232.355c4.935 3.671 18.27 10.676 30.981 8.45z" transform="translate(283.89 299.533) scale(.30405)" opacity=".7" fill="#eee" fill-rule="evenodd" stroke="#ff9" filter="url(#a)"/><path d="M541.152 215.103c14.628-10.968 30.75-9.982 47.88-.94-20.37-5.565-34.968-3.437-47.88.94z" transform="translate(283.89 299.533) scale(.30405)" fill="#eee" fill-rule="evenodd" stroke="#ff9" stroke-width=".2" filter="url(#b)"/><path d="M454.813 338.5c-7.263 0-13.838.977-18.688 2.594-2.425.808-4.418 1.758-5.875 2.906-1.457 1.148-2.437 2.577-2.437 4.187 0 1.61.98 3.009 2.437 4.157 1.457 1.148 3.45 2.129 5.875 2.937 4.85 1.617 11.425 2.563 18.688 2.563 2.53 0 4.958-.12 7.28-.344l-1.343 1.969 8.813-4.375-9.813-.938 1.938 1.313a74.294 74.294 0 0 1-6.875.343c-7.078 0-13.478-.95-18.032-2.468-2.277-.76-4.077-1.67-5.25-2.594-1.173-.924-1.656-1.783-1.656-2.563 0-.78.483-1.638 1.656-2.562 1.173-.924 2.973-1.835 5.25-2.594 4.554-1.518 10.954-2.5 18.032-2.5 7.077 0 13.477.982 18.03 2.5 2.278.76 4.109 1.67 5.282 2.594 1.173.924 1.656 1.782 1.656 2.562 0 .63-.315 1.291-1.062 2.032-.747.74-1.91 1.5-3.438 2.187l-.968.406.843 1.875.938-.437c1.678-.754 3.06-1.6 4.062-2.594 1.003-.994 1.656-2.168 1.657-3.469 0-1.61-.98-3.04-2.438-4.187-1.457-1.148-3.45-2.098-5.875-2.906-4.85-1.617-11.425-2.594-18.687-2.594z" opacity=".7" fill="#666"/><path d="M520.74 435.977c-1.611-2.909-9.973-6.496-9.973 1.663 0 5.922 5.534 6.86-.83 11.635" fill="none" stroke="#000"/><text style="text-align:start;line-height:100%;-inkscape-font-specification:Arial Italic" x="22.948" y="400.463" font-size="15.748" font-style="italic" font-weight="400" font-family="Arial"><tspan x="22.948" y="400.463">border</tspan></text><text y="400.463" x="106.948" style="text-align:start;line-height:100%;-inkscape-font-specification:Arial Italic" font-size="15.748" font-style="italic" font-weight="400" font-family="Arial"><tspan y="400.463" x="106.948">plain</tspan></text><text style="text-align:start;line-height:100%;-inkscape-font-specification:Arial Italic" x="200.948" y="400.463" font-size="15.748" font-style="italic" font-weight="400" font-family="Arial"><tspan x="200.948" y="400.463">well</tspan></text><text y="400.463" x="262.948" style="text-align:start;line-height:100%;-inkscape-font-specification:Arial Italic" font-size="15.748" font-style="italic" font-weight="400" font-family="Arial"><tspan y="400.463" x="262.948">border</tspan></text><text y="98.305" x="457.983" style="text-align:start;line-height:100%;-inkscape-font-specification:Arial Italic" font-size="23.85" font-style="italic" font-weight="400" fill="#0978ab" font-family="Arial"><tspan y="98.305" x="457.983" style="text-align:start;line-height:100%;-inkscape-font-specification:Arial Italic">(Fresh water)</tspan></text><text y="322.801" x="626.139" style="text-align:start;line-height:100%;-inkscape-font-specification:Times New Roman Bold Italic" font-size="29.15" font-style="italic" font-weight="700" font-family="Times New Roman"><tspan y="322.801" x="626.139" style="text-align:start;line-height:100%;-inkscape-font-specification:Times New Roman Bold Italic">Inkstick</tspan></text><text y="32.65" x="187.569" style="text-align:start;line-height:100%;-inkscape-font-specification:Times New Roman Bold Italic" font-size="29.15" font-style="italic" font-weight="700" font-family="Times New Roman"><tspan y="32.65" x="187.569" style="text-align:start;line-height:100%;-inkscape-font-specification:Times New Roman Bold Italic">Chinese Inkstone and Inkstick</tspan></text><path d="M468.452 113.184c16.213 14.024 28.174 33.602 35.7 71.906-.375.088-2.728-.175-2.728-.175l4.93 8.219 3.008-9.565s-2.56 1.141-2.752 1.139c-5.632-37.615-22.57-62.294-38.158-71.524z" fill="#0978ab" fill-rule="evenodd"/><text style="text-align:start;line-height:100%;-inkscape-font-specification:Times New Roman Bold Italic" x="390.463" y="100.039" font-size="31.8" font-style="italic" font-weight="700" fill="#0978ab" font-family="Times New Roman"><tspan x="390.463" y="100.039">Well</tspan></text><text y="128.035" x="25.63" style="text-align:start;line-height:100%;-inkscape-font-specification:Times New Roman Bold Italic" font-size="29.15" font-style="italic" font-weight="700" font-family="Times New Roman"><tspan y="128.035" x="25.63" style="text-align:start;line-height:100%;-inkscape-font-specification:Times New Roman Bold Italic">Inkstone</tspan></text><path d="M49.114 134.32c9.922 14.764 12.971 17.685 22.845 24.816.332-.39 1.452-3.337 1.452-3.337l6.736 10.836-12.568-2.925s2.318-1.665 2.432-1.895c-14.09-10.5-17.137-19.915-20.897-27.495z" fill="#666" fill-rule="evenodd"/><text y="347.264" x="483.482" style="text-align:start;line-height:100%;-inkscape-font-specification:Arial Italic" font-size="15.748" font-style="italic" font-weight="400" fill="#888" font-family="Arial"><tspan y="347.264" x="483.482">1. Drag water to the plain,</tspan><tspan y="363.013" x="483.482">2. Rub the stick on the stone,</tspan><tspan y="378.761" x="483.482">3. That produce tiny soot particules</tspan><tspan y="394.51" x="483.482">floating in the water,</tspan></text><text y="411.156" x="562.669" style="text-align:start;line-height:100%;-inkscape-font-specification:Arial Italic" font-size="15.748" font-style="italic" font-weight="400" fill="#888" font-family="Arial"><tspan y="411.156" x="562.669">4. Continue untill the </tspan><tspan y="426.905" x="562.669">water become dark</tspan><tspan y="442.653" x="562.669">enough.</tspan></text><path d="M654.717 291.582c10.67-8.049 26.282-10.487 43.099 0V119.184c-14.366-10.371-28.733-9.128-43.1 0v172.398z" fill="#666"/><path d="M654.717 120.098c10.67 8.048 26.282 10.487 43.099 0v172.397c-14.366 10.372-28.733 9.129-43.1 0V120.098z"/><path d="M541.152 215.103c14.628-10.968 30.75-9.982 47.88-.94-20.37-5.565-34.968-3.437-47.88.94z" transform="translate(289.643 -28.054) scale(.68614)" fill="#eee" fill-rule="evenodd" stroke="#ff9" stroke-width=".2" filter="url(#b)"/><path d="M567.439 470.458c-35.932-1.262-22.215-238.37-30.511-240.804l-.47 232.355c4.935 3.671 18.27 10.676 30.981 8.45z" transform="translate(289.643 -28.054) scale(.68614)" opacity=".7" fill="#eee" fill-rule="evenodd" stroke="#ff9" filter="url(#a)"/><path d="M225.61 232.851c-8.41-6.184-16.822-16.574-22.511-18.553-5.69-1.98-18.554-6.185-27.212-5.937-8.658.247-18.801.494-19.048 3.463-.248 2.968 3.216 5.442 7.916 5.69 4.7.247 14.348-.495 20.038 1.484 5.69 1.979 11.874 6.432 14.842 11.132 2.969 4.7 7.916 16.08 7.916 16.08l13.112-2.474 4.947-10.885z" fill="#e5170f" fill-rule="evenodd" stroke="#000" stroke-width="1pt" transform="matrix(0 .14422 -.0921 0 700.414 153.142)"/><path style="marker:none" d="M549.855 411.653c-6.539-21.4 4.161-24.967 4.161-24.967l11.889 4.756s-14.267 10.7-16.05 20.21zm24.372 13.077c-12.483-4.16-14.861-17.238-10.106-19.022 4.756-1.783 10.7 1.784 10.7 1.784s-4.16 5.944-.594 17.238zm27.938 1.784c-8.322 2.378-19.616 1.783-17.833-8.917 1.784-10.7 11.295 7.728 17.833 8.917zm4.755-14.861c2.379 10.105 7.729 7.728 11.89 7.133 4.16-.594 7.727-7.133 7.727-7.133s-8.916 2.378-12.483 0c-3.566-2.378-7.133 0-7.133 0zm18.428-39.233c5.945 8.917 3.567 11.889.595 13.672-2.972 1.783 7.728 1.189 7.133-7.728-.594-8.916-3.566-13.672-3.566-13.672l-4.162 7.728zm-251.447 5.35c-8.322-9.511-4.16-19.617 0-20.211 4.161-.594 4.161 8.917 4.161 8.917s-4.755.594-4.755 5.35c0 4.755.594 5.944.594 5.944zm7.728 23.183c-6.539-5.35-7.728-14.267-4.755-16.644 2.972-2.378 8.916-3.567 8.916-3.567l5.944 7.728s-11.294 2.972-10.105 12.483zm-4.755-54.093c1.783-13.079 13.672-16.645 14.86-12.484 1.19 4.161 4.162 8.322 4.162 8.322l-6.54 4.756s-8.321-5.945-12.482-.595zm29.127-16.645c10.7-2.378 13.672-4.756 15.455.594 1.784 5.35.595 15.456.595 15.456l-5.35-2.378s-1.189-14.267-10.7-13.672zm14.266 73.115c16.645-2.377 16.05-8.916 16.05-8.916l4.756 8.917s-12.483 5.944-20.806 0z" transform="matrix(0 .14422 -.0921 0 700.414 153.142)" font-size="12" font-weight="100" font-stretch="ultra-condensed" letter-spacing="0" fill="#fff" fill-rule="evenodd" stroke="#838287" stroke-width="1pt" font-family="Bitstream Vera Sans"/><path d="M133.154 305.843c-.594-6.539-8.322-9.511-11.889-9.511-3.566 0-5.944 4.755-5.944 4.755s3.567 2.973 7.133 4.756c3.567 1.783 10.7 0 10.7 0zm-21.994 11.294c-2.972-6.539-7.133-8.322-11.889-8.322-4.755 0-7.133 5.944-7.133 5.944s5.944 1.784 8.916 1.784c2.973 0 10.106.594 10.106.594zm-21.4 19.023c-7.133-1.784-9.51 5.35-10.7 8.321-1.189 2.973 1.784 8.917 1.784 8.917l5.944-7.133h7.728l-4.756-10.106zm60.633-29.128c3.566-5.35-.595-11.889-.595-11.889s10.106 3.567 9.511 11.294c-.594 7.728-2.972 11.89-2.972 11.89l-5.944-11.295zm-32.1 84.41c7.133-1.189 7.133-1.783 10.106-4.756 2.972-2.972 2.972-6.538 2.972-6.538l5.35 4.755s-.595 5.945-5.35 7.133c-4.756 1.19-8.917 2.973-13.078-.594z" transform="matrix(0 .14422 -.0921 0 700.414 153.142)" fill="#fff" fill-rule="evenodd" stroke="#838287" stroke-width="1pt"/><path style="marker:none" d="M245.503 434.241c-8.917-13.672-3.567-19.022-.595-19.616 2.973-.594 6.54 4.756 6.54 4.756s-7.729 6.538-5.945 14.86zm7.727 19.617c-9.51-8.917-5.35-19.022.595-19.022 5.944 0 10.105 4.755 4.755 10.105-5.35 5.35-5.35 3.567-5.35 8.917zm27.345 11.294c-7.134-7.727-7.134-14.86-7.134-14.86l-9.51.594s-2.378 9.51 2.972 11.888 10.105.595 13.672 2.378zm39.233-21.4c4.16-3.566 4.16-7.133 4.16-10.105 0-2.972-4.16-10.105-4.16-10.105l5.944-2.378s4.755 10.105 2.972 14.86c-1.783 4.756-5.35 5.945-8.916 7.728zm-70.144-43.393c-4.161-2.378-9.511 7.727-9.511 7.727s-1.783-9.51 1.783-12.483c3.567-2.972 10.106-2.972 11.889-.594 1.783 2.377 2.378 7.727 2.378 7.727l-6.54-2.377z" transform="matrix(0 .14422 -.0921 0 700.414 153.142)" font-size="12" font-weight="100" font-stretch="ultra-condensed" letter-spacing="0" fill="#fff" fill-rule="evenodd" stroke="#838287" stroke-width="1pt" font-family="Bitstream Vera Sans"/><path style="marker:none" d="M585.885 355.739c-.848-9.327 1.696-16.11 3.816-17.806 2.12-1.695 4.663-5.935 4.663-5.935s2.968 6.783 2.12 8.479c-.848 1.696 3.391-2.968 5.935-3.815 2.544-.848 3.815-3.392 3.815-3.392s-1.271 5.935-1.271 9.327c0 3.391-.424 5.51-.424 5.51s2.967-3.815 4.663-3.815c1.696 0 0 8.48-1.696 10.599-1.696 2.12-12.718 10.174-12.718 10.174l-8.903-9.326zm-139.9 17.381c6.783 6.36 9.75 5.088 10.175 8.055.423 2.968.423 6.783.423 6.783s5.936-6.359 8.903-6.359c2.968 0 6.783 4.24 6.783 4.24s-2.967-5.936-2.967-8.48c0-2.543 7.63-.847 7.63-.847s-.847-3.392-5.935-4.24c-5.087-.847-13.566-2.12-13.566-2.12l-11.446 2.968zm-128.454 22.893c6.783 2.544 15.686 2.968 15.686 2.968v-7.631c0-2.544 6.783-5.935 6.783-5.935s-6.783-6.36-9.75-5.936c-2.968.424-5.512 3.392-5.512 3.392s-.848-1.696-.848-5.087c0-3.392.424-5.935.424-5.935s-2.12 3.815-4.24 6.359c-2.119 2.543-10.174 6.783-10.174 6.783l7.631 11.022z" font-size="12" font-weight="100" font-stretch="ultra-condensed" letter-spacing="0" fill="#007137" fill-rule="evenodd" stroke="#006025" stroke-width="1pt" font-family="Bitstream Vera Sans" transform="matrix(0 .14422 -.0921 0 700.414 153.142)"/><path d="M160.25 384.567c-1.272 5.511.423 14.838.423 14.838s2.12-.424 3.816-1.272c1.696-.848 2.12-3.392 2.12-3.392s.847 5.088 3.391 7.207c2.544 2.12 2.968 5.088 2.968 5.088s2.967-2.12 3.391-6.783c.424-4.664 0-7.631 0-7.631s1.696 2.543 4.24 2.12c2.543-.425 5.51 0 5.51 0s0-3.816-2.967-5.512c-2.967-1.696-8.479-5.087-8.479-5.087l-14.414.424z" fill="#007137" fill-rule="evenodd" stroke="#006025" stroke-width="1pt" transform="matrix(0 .14422 -.0921 0 700.414 153.142)"/><path d="M213.88 154.394c.37-5.172 9.42-14.407 9.79-22.534.369-8.127-8.682-17.547-15.516-23.273-6.834-5.726-23.827-14.038-23.827-37.126 0-23.088-7.019-32.139-12.19-37.495-5.172-5.357-15.147-6.465-15.147-6.465s7.204 6.465 11.268 14.222c4.063 7.758 8.496 15.146 8.127 31.77-.37 16.623 6.834 26.597 9.42 29.553 2.585 2.955 15.7 14.407 19.209 17.547 3.51 3.14 7.019 7.388 6.465 10.159-.554 2.77-4.618 6.649-6.28 6.649-1.663 0-31.77 34.91-31.954 37.126-.185 2.216-2.586 12.93-15.885 12.745-13.299-.185-28.63-8.497-37.68-8.312-9.05.185-39.712 15.33-47.47 15.146-7.757-.185-15.515-2.217-19.209-3.88-3.694-1.661-12.19-7.572-12.19-7.572s4.063 6.465 8.127 9.235c4.063 2.77 5.54 6.834 22.903 6.096 17.362-.74 30.661-11.452 47.285-11.452 16.623 0 18.84 12.56 38.973 11.636 20.133-.923 23.827-15.884 25.304-16.254 1.478-.37 30.107-22.35 30.477-27.521z" fill="#00386a" fill-rule="evenodd" stroke="#000" stroke-width="1pt" transform="matrix(0 .14422 -.0921 0 700.414 153.142)"/><path d="M281.518 268.969c4.948 5.442 7.916 11.874 8.41 14.348.496 2.473 0 5.937 0 5.937s-1.483-5.443-4.452-4.453c-2.969.99-2.474.495-2.474.495s1.485 8.41.99 10.39c-.495 1.979-1.98-1.485-1.98-1.485l.495 9.4s-2.473-1.978-4.452-2.968c-1.98-.99-4.948-.495-4.948-.495s1.484 7.917.99 10.885c-.495 2.969-2.474 7.421-2.474 7.421l-3.958-3.958-2.474-4.947v17.811s-3.958-4.453-7.916-4.947c-3.958-.495-9.895-.495-9.895-.495s4.452 3.958 7.421 5.442c2.969 1.484 4.948 1.98 4.948 1.98s-3.959 4.452-5.443 7.42c-1.484 2.97-5.442 3.464-5.442 3.464s7.421 0 10.885-2.969c3.463-2.968 5.442-6.432 5.442-6.432s2.474 6.927 3.463 8.906c.99 1.98 2.969 2.969 2.969 2.969s0-9.4 1.979-14.348 6.432-7.917 6.432-7.917.99 3.464 3.463 6.432c2.474 2.969 6.432 6.927 6.432 6.927s-.495-11.38.495-16.327c.99-4.948 4.947-9.4 4.947-9.4s0 4.947 3.958 6.926c3.958 1.98 5.443 2.969 5.443 2.969s-1.98-10.885-.495-15.833c1.484-4.947 4.453-6.431 4.453-6.431s.99 3.463 5.442 4.947c4.453 1.484 6.927 1.484 6.927 1.484s-2.474-5.442-1.485-10.39c.99-4.947 2.969-13.358 2.969-13.358s2.969 6.432 7.421 6.927c4.453.494 5.443.494 5.443.494s-.99-6.926-.99-13.358 2.969-9.4 2.969-9.4 2.474 7.42 5.442 8.905c2.969 1.484 7.421 2.969 7.421 2.969s-1.484-7.422-.494-13.854c.99-6.431 4.453-11.874 5.937-9.4s1.979 7.916 4.453 9.895a61.11 61.11 0 0 1 4.453 3.958s-2.474-4.947.494-12.369c2.969-7.421 6.927-10.884 6.927-10.884s.495 9.4 2.474 11.874 5.442 5.937 5.442 5.937-.99-6.927.99-12.37c1.979-5.441 8.41-9.894 8.41-9.894s-1.979 8.905-1.979 12.369c0 3.463 2.969 6.926 2.969 6.926l5.937-14.842c1.98-4.948 9.895-9.4 9.895-9.4s-.99 5.441-.494 7.915c.494 2.474.989 12.864 2.968 11.38 1.98-1.485 4.453-7.916 6.432-11.874 1.979-3.959 9.895-4.948 9.895-4.948l-.99 16.822s2.97-5.937 8.906-8.906c5.937-2.969 8.906-1.484 8.906-1.484l-.495 15.832s7.916-4.453 13.359-5.937c5.442-1.484 9.895-1.484 9.895-1.484s-7.422 2.968-8.906 7.421c-1.484 4.453-.495 4.948-.495 4.948s7.422-2.969 11.875-2.474l8.905.99s-5.937 4.947-5.442 8.41c.495 3.464 1.484 5.937 1.484 5.937s4.453-2.968 7.422-4.452c2.968-1.485 5.442-2.969 7.421-1.485 1.98 1.485-2.474 6.927-3.463 8.906l-2.474 4.948s2.968-1.98 6.927-1.485c3.958.495 9.4 1.98 9.4 1.98s-.99 4.452-2.474 7.915c-1.484 3.464-2.968 7.422-2.968 7.422l12.863-3.958s0 6.432-.494 8.905c-.495 2.474-2.474 6.432-2.474 6.432s4.453-.99 6.926-2.474c2.474-1.484 5.443-2.968 5.443-2.968s.99 4.453.99 7.421v3.958s4.452-6.431 3.463-9.895c-.99-3.463.494-6.432.494-6.432s6.432 4.453 8.906 6.432l4.948 3.958s0-6.926-1.485-9.895l-3.958-7.916s5.443 2.969 8.411 3.958c2.969.99 6.927.99 6.927.99s-5.443-4.948-5.443-9.4c0-4.454 1.485-7.917 1.485-7.917s3.463 2.474 7.421 2.474 4.453-.495 4.453-.495l-5.442-9.895s8.41-2.474 12.863-3.463c4.453-.99 10.39-3.959 10.39-3.959s-15.832 76.688-51.455 70.256c-35.622-6.432-49.97-68.771-98.952-70.75-48.98-1.98-125.174 103.9-162.775 99.941-37.602-3.958-29.686-33.644-24.738-47.497 4.947-13.853 38.096-48.486 38.096-48.486l12.864.495z" fill="#fff" fill-rule="evenodd" stroke="#6a6d6b" stroke-width="1.125" transform="matrix(0 .14422 -.0921 0 700.414 153.142)"/><path d="M683.433 180.472l-.889-.642.069.856-.502-.179.092.928-.456-.535.182 1.106-.41-.25.25.714-.455-.179.25.821-.341-.5.068.607-.547.071.205 1 2.484-3.818zm-3.783-4.674l.775.75-.501.249.273.464-.296.285.296.535-.319.321.297.678-.365.25s.387.286.25.428c-.136.143-.41.286-.41.286l.274.678-.478.035-.297-.963.502-3.996z" fill="#fefefe" fill-rule="evenodd"/><path d="M154.783 219.374c-2.4 3.14-2.77 6.65-2.955 9.05-.185 2.401.924 6.834 0 9.236-.923 2.4-3.51 5.171-6.095 6.28-2.586 1.108 5.356 3.14 7.573 2.585 2.216-.554 9.974-2.77 9.974-2.77s-.739 4.987-2.032 5.91c-1.293.924-5.541 2.956-5.541 2.956s7.942.554 10.713-.74c2.77-1.292 6.465-5.17 6.465-5.17s-.554 4.802.554 6.649c1.108 1.847 2.955 4.617 2.955 4.617s3.325-2.586 3.879-3.51c.554-.923 2.401-5.91 2.401-5.91s2.032 6.465 1.662 9.05c-.369 2.587-4.802 6.835-4.802 6.835s6.834-2.586 8.497-4.248c1.662-1.663 4.248-4.803 4.248-4.803s0 6.28.37 7.943c.369 1.662.369 6.834.369 6.834s4.617-2.032 5.725-2.77c1.109-.74 2.402-5.173 2.402-5.173s-.37 5.911.554 7.758c.923 1.847 4.063 4.618 4.063 4.618s2.032-2.032 3.14-4.248c1.109-2.217 2.586-5.542 2.586-5.542s2.032 5.172 3.694 6.28c1.663 1.109 4.803 2.956 4.803 2.956s1.847-1.663 2.4-3.14c.555-1.478 1.848-6.834 1.848-6.834s.923 5.171 2.586 7.388c1.662 2.216 5.171 2.4 5.171 2.4s-1.108-6.094.185-6.649c1.293-.554 5.357.555 6.834 2.217 1.478 1.662 4.249 3.694 4.249 3.694s.738-3.325 1.662-5.726c.923-2.401 2.216-7.203 2.216-7.203s.554 5.54.554 7.203c0 1.663-.738 12.19-22.349 24.935-21.61 12.745-36.756 30.846-38.05 38.973-1.292 8.127-.738 10.344-.738 10.344s-8.127.923-11.637 4.618c-3.509 3.694-3.509 12.005-3.509 12.005s-9.974-1.108-17.732-4.617c-7.757-3.51-13.114-4.433-13.114-4.433s-.923-3.694-1.847-4.618c-.923-.923-2.955-.923-2.955-.923s7.942-9.79 11.82-14.777c3.88-4.987 10.714-11.452 10.53-13.114-.186-1.662-6.28-9.79-7.758-9.235-1.478.554-9.605 14.407-11.268 16.254-1.662 1.847-4.063 8.127-6.28 8.312-2.216.184-1.108-9.974-.738-15.146.37-5.172.738-11.452-.37-11.637-1.108-.184-7.573.924-9.05 1.847-1.478.924-.185 21.057-.554 21.98-.37.924-6.28-.369-8.682-3.878-2.4-3.51-2.955-8.866-4.433-9.236-1.477-.37-8.496 1.109-8.865 2.956-.37 1.847 4.802 12.744 6.095 14.776 1.293 2.032 10.897 10.159 10.897 11.267 0 1.108-7.018.924-9.604-.185-2.586-1.108-15.33-8.68-16.808-8.127-1.478.554-3.695 9.05-2.771 10.16.923 1.107 9.79 2.585 12.19 4.063 2.402 1.477 7.02 7.203 9.236 7.203 2.216 0 12.006-1.293 13.114-.554 1.108.739 4.063 3.694 3.879 4.987-.185 1.293.739 9.42.184 13.668-.554 4.249 4.803 7.573 6.28 8.497 1.478.923 5.911 2.586 6.096 1.108.184-1.478-4.618-7.573-4.248-12.375.369-4.803 5.356-12.006 6.464-12.006 1.108 0 7.204 11.452 11.267 15.33 4.064 3.88 7.389 11.452 19.025 11.452s14.592-4.987 16.07-4.987c1.477 0 16.623 1.108 18.47 1.108 1.847 0 14.222 9.42 39.527 8.312 25.305-1.108 26.598-4.987 26.598-4.987s6.464 3.694 9.42 10.159c2.955 6.465 4.617 16.254 2.031 17.916-2.585 1.663-12.56-7.203-17.916-10.712-5.357-3.51-9.974-9.42-11.082-8.866-1.109.554-5.357 4.433-5.542 6.28-.184 1.847 19.58 14.591 19.025 15.7-.554 1.108-11.636-3.325-16.07-3.325-4.432 0-7.203 5.541-7.572 7.388-.37 1.847 4.987 5.172 6.28 4.987 1.293-.185 4.987-3.325 9.604-3.325 4.618 0 10.344 3.325 10.16 5.357-.185 2.032-3.325 4.618-6.465 4.802-3.14.185-8.682 1.109-9.975 2.032-1.292.924-.554 10.344 1.848 10.159 2.4-.185 10.343-6.834 12.375-6.65 2.032.185 4.802-.738 4.802.37s-8.496 6.65-9.235 9.42c-.739 2.77 1.478 5.172 4.433 6.834s1.477.185 4.617-.739c3.14-.923 16.44-20.872 17.917-21.241 1.478-.37 12.19-.37 14.961-.554 2.77-.185 7.204-5.172 10.159-5.172 2.955 0 3.694 3.694 4.618 4.064.923.37 7.018-5.357 7.018-7.758s-2.216-5.541-4.802-5.172c-2.586.37-5.356 4.064-8.496 4.064-3.14 0-16.07.554-16.809-1.108-.738-1.663 7.204-14.777 10.344-16.809 3.14-2.031 14.222-6.65 14.407-9.974.185-3.325.185-5.541-3.694-8.866-3.879-3.324-10.159-13.114-10.159-16.623 0-3.51 6.095-4.987 11.636-10.528 5.542-5.542 61.507-72.036 87.551-70.927 26.044 1.108 44.145 14.776 51.902 25.304 7.758 10.528 6.096 6.28 5.357 8.127-.739 1.847-11.083 4.803-14.592 9.05-3.51 4.25-5.172 18.102-5.726 21.057-.554 2.956-13.299 10.713-16.808 10.713-3.51 0-6.65 1.478-6.465 0 .185-1.477 2.586-9.235 1.847-17.362-.739-8.127-.739-13.853-3.14-13.668-2.4.184-4.063 3.51-4.248 5.356-.185 1.847 0 20.318-1.108 20.872-1.108.554-20.503-21.61-21.98-21.241-1.478.37-6.095 7.019-5.91 8.866.184 1.847 18.1 16.07 17.916 17.177-.185 1.109-7.573.924-10.713.37-3.14-.554-12.376-5.541-15.146-5.541-2.77 0-3.879 4.987-3.694 7.018.184 2.032 1.477 5.542 5.541 5.91 4.063.37 21.426-.738 21.426.924 0 1.663-2.586 5.172-8.312 6.835-5.726 1.662-10.713 1.847-12.375 2.216-1.663.37-1.108 1.662-1.108 3.51 0 1.847 2.031 3.324 5.356 4.063 3.325.739 11.636-.185 13.484-.739 1.847-.554 12.375-7.203 15.515-7.019 3.14.185 4.063 3.14 4.987 5.726.923 2.586 2.401 7.388 5.91 8.312 3.51.923 9.236 1.478 9.051 2.955-.185 1.478.554 6.834 4.248 6.465 3.694-.37 6.28-2.955 6.465-6.095.185-3.14-9.05-5.172-12.375-9.42-3.325-4.249-6.465-7.758-5.726-10.713.739-2.956 21.426-2.217 24.75-2.032 3.325.185 10.898 1.847 12.006.37 1.108-1.478 9.605-16.07 13.114-17.732 3.51-1.663 10.898-.74 12.56-1.847 1.663-1.109-.923-5.357 7.389-4.618 8.311.739 28.075 1.847 33.8 4.618 5.727 2.77 17.548 5.171 25.49 6.095 7.943.923 19.025 4.063 24.566 10.713 5.541 6.65 5.357 9.605 4.433 11.452-.924 1.847-13.484 1.293-17.178 1.108-3.694-.185-14.776-.554-15.146 4.433-.369 4.987 4.064 7.757 7.204 7.019 3.14-.74 3.14-3.51 7.758-3.51 4.617 0 15.515-2.586 15.7-.923.184 1.662-4.803 8.311-7.204 9.42-2.401 1.108-11.082 1.662-11.636 5.171-.554 3.51 3.324 6.465 6.095 6.28 2.77-.184 9.605-8.311 11.452-9.42 1.847-1.108 4.617-4.248 5.91-3.878 1.293.369.37 7.572-1.108 10.343-1.478 2.77-2.586 8.497-2.586 8.497s.37 3.324 3.879 3.14c3.51-.185 6.65-3.695 7.573-6.835s.37-18.1 2.216-18.655c1.847-.554 4.618 2.586 6.28 6.65 1.663 4.063 1.847 12.19 5.542 12.005 3.694-.184 7.203-6.834 6.834-11.267-.37-4.433-10.529-11.082-10.898-14.776-.37-3.694 26.967-18.286 27.152-21.241.184-2.956-4.618-6.834-6.834-7.204-2.217-.37-21.796 18.47-24.936 17.547-3.14-.923 2.032-23.088-1.847-25.674-3.879-2.586-7.203 1.478-11.451-.739-4.249-2.216-2.402-10.713-11.822-19.578-9.42-8.866-14.222-.555-14.222-3.51 0-2.955 9.05-19.394 12.19-28.26 3.14-8.866 4.064-28.445 13.669-31.4 9.605-2.955 14.961 2.586 21.98 2.77 7.019.185 13.114-2.4 13.114-2.4s-10.528.369-14.222-.185c-3.694-.554-8.497-4.248-8.497-4.248s14.592 2.4 21.241 2.4c6.65 0 24.936-1.662 24.936-1.662s-17.363-.923-23.458-1.108c-6.095-.185-8.127-3.14-7.758-4.063.37-.924 18.286 2.031 25.305 1.847 7.019-.185 25.305-4.987 25.305-4.987s-16.44 2.4-22.165 2.4c-5.726 0-14.038-3.14-17.732-3.324-3.694-.185-6.28-.923-5.726-2.401.554-1.478 7.02-2.586 9.79-2.586 2.77 0 13.483 2.401 16.808 2.217 3.325-.185 17.732-.924 24.935-3.51 7.204-2.586 12.56-5.726 12.56-5.726s-12.93 3.51-16.439 3.325c-3.509-.185-12.005-1.847-14.96-1.662-2.956.184-6.835-.554-6.65-2.586.185-2.032 10.713 2.216 28.445-6.28 17.731-8.497 26.228-19.025 26.228-19.025s-14.961 9.42-21.795 12.375c-6.835 2.956-8.128 3.325-9.051 1.478-.924-1.847 7.758-8.496 11.821-12.375 4.064-3.88 9.79-11.637 12.56-13.3 2.77-1.661 13.484-7.387 13.484-7.387s-11.083-.185-16.07 2.586c-4.987 2.77-15.146 13.852-16.623 12.929-1.478-.924.923-8.312 4.433-11.821 3.51-3.51 11.82-8.497 16.069-12.376 4.248-3.878 4.248-9.42 4.248-9.42s-3.879 5.172-6.28 7.02c-2.4 1.846-7.203 3.14-9.79 4.986-2.585 1.847-5.54 6.834-6.649 6.28-1.108-.554 1.293-8.127 3.695-12.006 2.4-3.878 6.464-9.604 10.897-13.852 4.433-4.249 13.114-10.713 13.114-10.713s-9.235 2.585-12.93 4.617c-3.693 2.032-10.527 8.497-12.56 11.267-2.03 2.77-4.986 9.79-6.28 8.866-1.292-.923 1.848-9.79 3.88-15.7s4.433-12.93 8.312-16.439c3.878-3.509 10.897-7.942 10.158-7.942-.738 0-12.19 2.955-17.362 7.942-5.172 4.987-12.006 22.165-13.299 21.796-1.293-.37-.554-9.974.554-14.038 1.109-4.064 5.172-16.993 5.172-16.993s-7.573 10.713-9.42 15.33c-1.847 4.618-7.388 21.242-8.127 24.382-.739 3.14-1.847 8.127-1.847 8.127s-1.478-6.65-.924-12.006c.555-5.356 6.465-24.381 6.465-24.381s-7.019 11.452-8.681 16.993c-1.662 5.54-4.618 19.21-5.91 23.457-1.294 4.249-1.478 6.835-2.402 6.65-.923-.185-2.401-9.235 0-17.917 2.401-8.68 7.388-20.687 7.388-20.687s-6.649 6.465-8.496 10.529c-1.847 4.063-3.51 13.668-4.802 17.731-1.293 4.064-1.478 17.547-2.586 18.101-1.109.555-2.032-12.929-1.663-16.069.37-3.14 4.803-19.394 4.803-19.394s-6.834 17.547-7.02 21.056c-.184 3.51-2.216 23.089-3.509 23.827-1.292.74-1.477-12.744-1.292-16.808.184-4.063 3.324-20.317 3.324-20.317s-5.172 14.222-6.464 18.84c-1.293 4.617-2.217 24.75-3.88 25.12-1.662.369-2.4-13.853-1.846-17.917.554-4.063 2.955-19.763 2.955-19.763s-4.802 11.636-6.095 17.731c-1.293 6.096-1.293 21.242-2.586 21.426-1.293.185-3.51-8.496-3.14-12.744.37-4.249 5.172-19.21 5.172-19.21s-6.835 15.885-8.312 19.025c-1.478 3.14-1.847 11.821-3.14 11.452-1.293-.37-2.401-4.064-2.032-7.204.37-3.14 3.879-16.439 3.879-16.439s-7.019 10.898-8.497 15.516c-1.477 4.617-.554 12.005-2.031 12.005-1.478 0-2.956-4.987-2.771-7.942.185-2.955 2.586-12.93 2.586-12.93s-4.618 9.79-5.172 13.3c-.554 3.509-.185 9.05-1.293 9.05-1.108 0-2.401-5.726-2.216-9.235.184-3.51 0-12.006 0-12.006s-2.401 12.56-2.77 15.146c-.37 2.586 1.292 11.082-.186 11.267-1.477.185-3.694-2.955-4.987-6.095-1.293-3.14-2.77-9.42-2.77-9.42s-.924 9.789-1.663 13.668c-.738 3.879 2.771 8.68 2.032 9.42-.739.739-4.063.923-7.388-1.663-3.325-2.585-4.802-3.324-4.802-3.324s3.51 10.713 4.433 13.853c.923 3.14 4.433 5.54 4.433 8.127 0 2.586-5.542 15.33-15.885 31.77-10.344 16.438-14.592 29.367-29.184 30.106-14.591.739-19.024-4.987-24.566-10.159-5.54-5.171-25.304-39.342-54.303-52.271-28.999-12.93-63.19-.893-82.748 9.974-30.983 17.213-61.543 75.975-102.512 79.423-9.957.838-20.502-10.159-19.579-15.515.924-5.357 4.248-13.853 20.872-29.553 16.623-15.7 20.318-26.044 21.98-31.4 1.662-5.356-1.108-15.7-1.108-15.7s2.586.37 3.51 1.847c.923 1.478 2.585 3.325 2.585 3.325s1.293-2.956 1.293-5.726-3.694-14.407-3.694-14.407 21.98 5.541 23.457 5.172c1.478-.37 13.115-8.866 13.115-8.866s-5.357 1.477-8.497.739c-3.14-.74-8.681-7.573-8.681-7.573s5.541 2.216 8.866 2.4c3.325.185 9.235-6.649 9.235-6.649s-8.127.185-11.452.185c-3.324 0-10.343-1.293-10.343-1.293s7.203-1.847 10.343-3.14c3.14-1.293 9.974-7.758 9.974-7.758l-13.668-6.464s5.541-4.618 7.573-7.388c2.032-2.771 3.879-4.803 3.879-4.803s-5.356.554-10.528-.185c-5.172-.738-8.497-3.509-8.497-3.509s3.325.37 6.834-1.108c3.51-1.478 5.726-4.064 5.726-4.064s-7.942-3.324-11.082-3.324c-3.14 0-8.312 2.585-8.312 2.585s6.28-6.649 6.465-9.42c.185-2.77-.739-7.942-.739-7.942s-.37 6.65-1.847 8.127c-1.478 1.478-3.879 2.586-4.618 2.586-.738 0 1.478-3.14.74-6.834-.74-3.694-7.39-9.605-7.39-9.605s2.956 7.388 2.772 10.344c-.185 2.955-7.02 15.884-12.745 15.146-5.726-.74-12.006-20.503-20.872-21.057-8.866-.554-7.573 2.586-7.573 2.586s-1.108-6.65-2.77-8.681c-1.663-2.032-4.249-4.618-4.249-4.618s-.61 7.887-.61 10.472c0 2.586-1.953 8.81-1.953 8.81l-3.347 7.5s-6.65-6.095-12.376-16.808c-5.725-10.713-7.018-9.974-6.649-15.146.37-5.171-7.019-16.992-8.681-16.992-1.662 0-2.401-4.433-4.803-7.943-2.4-3.51-8.68-5.172-8.68-5.172s4.986 5.172 4.986 9.236c0 4.063 0 4.617-1.293 5.54-1.293.924-12.005-.553-11.82.924.184 1.478 5.54 5.726 5.54 7.389 0 1.662-4.432 1.662-7.757 2.955-3.325 1.293-6.28 5.172-6.28 6.095 0 .924 5.356 3.694 4.987 5.91-.37 2.217-10.344 7.758-10.898 9.79-.554 2.032 4.248.185 4.064 2.401-.185 2.217 8.68 7.758 10.159 7.389 1.477-.37 4.063-.37 4.617.738.554 1.109-.184 3.88.37 6.096s5.725 8.496 8.865 11.082c3.14 2.586 25.86 11.452 24.751 27.152-1.108 15.7-9.79 12.745-12.375 12.375-2.586-.37-16.624-16.623-28.814-16.808-12.19-.185-12.376 2.401-17.732 2.032-5.357-.37-4.802-.554-8.497-6.28z" fill="#00386a" fill-rule="evenodd" stroke="#000" stroke-width="1pt" transform="matrix(0 .14422 -.0921 0 700.414 153.142)"/><path d="M681.086 189.249c-.752-1.25-.547-1.106-.547-1.677s.32-1 .479-1.178c.16-.178.296-.142.319-.356a2.31 2.31 0 0 0-.023-.5s.319-.036.501.143c.182.178.41.606.41 1.106 0 .5-.319 1.106-.547 1.213-.227.107-.546.107-.546.357s-.046.892-.046.892z" fill="#fff" fill-rule="evenodd"/><path style="marker:none" d="M500.696 344.667c14.348 5.937 42.55 10.39 51.455 12.369 8.906 1.979 24.738 2.968 31.665 12.863 6.926 9.896 5.442 14.843 5.442 14.843m-35.128 5.443c11.38-2.474 28.696-2.969 28.696-2.969m-12.863 21.769c8.905-4.452 18.306-17.316 18.306-17.316m.494 25.727c2.969-12.863 3.958-31.17 3.958-31.17m2.474-.989c13.854 11.874 15.338 25.727 15.338 25.727m-11.874-30.18c17.81-4.453 25.727-14.348 25.727-14.348m-55.413-97.962c8.411-28.696 25.728-29.686 32.16-31.665 6.431-1.979 33.643-7.916 38.59-11.874 4.948-3.958 15.338-11.38 20.286-19.296 4.947-7.916 6.926-11.874 6.926-11.874s-.99 19.296-4.947 27.707c-3.958 8.41-18.801 20.285-27.212 23.253-8.41 2.969-22.759 7.422-30.675 8.906-7.916 1.484-13.359 2.969-18.8 8.906-5.443 5.937-19.791 50.465-19.791 50.465M465.074 326.36c-17.812 2.97-14.348 12.864-17.317 20.78-2.969 7.917-3.463 11.38-10.39 14.348-6.927 2.969-14.348 4.453-14.348 4.453m44.034-41.065c1.979 12.864 18.8 22.264 18.8 22.264m-7.421-27.706c-.495 11.874 14.348 28.201 14.348 28.201m-103.9-9.895c9.896 9.4 26.223 25.728 26.223 25.728m3.463-32.16c1.485 16.822 1.98 26.222 0 30.675l-1.979 4.453m-35.127 15.832c14.347-1.484 17.316-2.473 20.78-5.442 3.463-2.969 11.873-7.421 11.873-7.421m5.443.495c4.453 19.295 17.316 23.253 17.316 23.253m-61.845-34.138c16.328 5.937 32.16 6.432 32.16 6.432m-153.376 30.18c8.411 9.895 26.717 20.78 26.717 20.78m-35.128-.99c19.79 3.464 23.254 4.948 29.686 4.948 6.432 0 8.906-.99 8.906-.99m34.633 4.948c-10.885 1.484-24.243-.99-24.243-.99m-28.696 25.727c6.926-6.431 13.853-13.852 16.821-17.316 2.969-3.463 1.485-6.926 1.485-6.926m-28.696 12.369c12.369-1.485 17.811-3.958 20.78-6.927 2.968-2.969 5.937-6.927 5.937-6.927M236.99 179.17c5.442 1.731 10.39-4.453 13.853-3.711 3.463.742 4.453 8.906 8.163 11.627 3.711 2.721 3.959 3.71 6.432 4.205 2.474.495 4.948-.247 4.948-.247s-4.206 5.69-6.185 7.174c-1.979 1.484-6.679.742-8.163 3.71-1.484 2.97-3.463 5.443-3.463 5.443s3.215-4.7 5.442-4.453c2.226.248 10.637 6.185 13.111 9.153 2.474 2.969 4.205 5.195 4.205 5.195s-4.7-.495-8.41.248c-3.711.742-7.422 2.72-11.133 2.473-3.71-.247-7.42-1.237-7.42-1.237s4.7 6.432 6.184 9.896c1.484 3.463-.248 4.947.99 6.926 1.236 1.98 2.72 2.227 2.72 2.227s-9.648-.248-14.595-.742c-4.948-.495-13.606-2.969-13.606-2.969s3.71 9.648 3.463 15.09c-.247 5.443-.494 12.122-.494 12.122l-11.133-4.948c-6.679-2.968-7.916-1.237-12.863-5.195-4.948-3.958-.495-2.721-9.895-10.142-9.4-7.422-18.06-8.164-21.275-8.164-3.216 0-7.916 1.237-10.39.495-2.474-.742-6.68-5.442-6.68-5.442m37.108-77.43c-.495-6.927 3.71-6.185 5.69-6.68 1.978-.494 5.937 2.969 5.937 5.938 0 2.968-6.432 4.205-6.432 4.205s4.7 1.98 5.195 4.205c.494 2.227.99 6.68 1.731 7.67.742.989 2.721 2.968 2.721 2.968m-9.895 17.564c5.937-7.669 13.359-8.906 13.359-8.906m-6.432 15.338c1.237-7.917 9.895-10.39 9.895-10.39m-.989 13.606c.742-8.659 8.163-8.659 8.163-8.659m26.964 79.657c-8.41 15.832-14.348 21.274-20.285 25.727-5.937 4.453-32.654 14.843-38.096 48.981-5.442 34.139 32.654 43.539 41.56 44.034 8.905.494 26.717-1.98 26.717-1.98" font-size="12" font-weight="100" font-stretch="ultra-condensed" letter-spacing="0" fill="none" stroke="#fff" stroke-width="2.5" font-family="Bitstream Vera Sans" transform="matrix(0 .14422 -.0921 0 700.414 153.142)"/><path style="marker:none" d="M313.677 356.046c13.359-12.369 63.824-72.73 94.005-73.224 30.18-.495 53.434 22.264 58.381 31.17 4.948 8.905 8.411 13.358 8.411 13.358m-165.25 12.37c-5.937 17.316-4.947 25.232-4.452 29.685.494 4.452 11.874 18.306 11.38 21.769-.496 3.463-8.907 8.906-13.36 15.832-4.452 6.927-6.431 13.359-6.431 13.359m-30.675-54.424c2.968 11.875 10.39 16.822 13.358 20.78 2.969 3.958 9.4 11.38 8.906 17.812-.495 6.431-2.474 12.863-2.474 12.863m-96.478-73.719c-16.822 6.927-13.358 17.811-16.327 20.285-2.969 2.474-8.41-3.958-19.296-7.916-10.884-3.958-15.832-5.442-15.832-5.442" font-size="12" font-weight="100" font-stretch="ultra-condensed" letter-spacing="0" fill="none" stroke="#fff" stroke-width="2.5" font-family="Bitstream Vera Sans" transform="matrix(0 .14422 -.0921 0 700.414 153.142)"/><path d="M679.035 191.853c-.227.856-.957 1.606-1.23 1.962-.273.357-.98 1.57-1.276 2.962-.296 1.391-.775 2.283-.775 3.924 0 1.642.092 2.177.638 2.141.547-.036.889-.535.889-.82 0-.286-.228-.072-.228-.571 0-.5-.137-1.392.091-2.034.228-.642.798-2.355 1.299-3.282.501-.928 1.025-1.25 1.094-2.855.068-1.605-.183-1.498-.502-1.427zm4.056-3.996s-.205-.428-.023-.963c.183-.535.502-.678.866-.642.365.035.479.356.501.82.023.464-.25.964-.524.892-.273-.071-.592-.5-.82-.107z" fill="#fff" fill-rule="evenodd"/><path style="marker:none" d="M206.81 199.207c-8.164-3.215-12.122-7.42-14.349-10.142-2.226-2.721-4.453-6.68-5.195-11.38-.742-4.7 0-7.174.99-9.4s2.721-2.474 2.721-2.474" font-size="12" font-weight="100" font-stretch="ultra-condensed" letter-spacing="0" fill="none" stroke="#fff" stroke-width="2.5" font-family="Bitstream Vera Sans" transform="matrix(0 .14422 -.0921 0 700.414 153.142)"/><path d="M690.154 173.128a3.305 5.215 0 1 1 0-10.43 3.305 5.215 0 1 1 0 10.43zm-8.567 14.414a.411.577 0 1 1 0-1.153.411.577 0 1 1 0 1.153zm2.119.142a.411.577 0 1 1 0-1.153.411.577 0 1 1 0 1.153z" fill="#e6170f" fill-rule="evenodd"/><path d="M684.458 181.62a.297.434 0 1 1 0-.868.297.434 0 1 1 0 .867zm1.846 1.212a.297.434 0 1 1 0-.867.297.434 0 1 1 0 .867z" fill="#fff" fill-rule="evenodd"/><path style="marker:none" d="M634.611 217.696c-1.656-17.398 8.285-46.395 8.285-46.395m.829 43.081c0-24.026 8.284-48.052 8.284-48.052m.829 36.453c-.829-19.055 13.255-48.88 13.255-48.88m-1.656 38.11c.828-16.57 20.711-40.595 20.711-40.595m-99.263 112.326c12.294-4.24 14.414-3.816 18.654-2.544 4.239 1.272 13.566 4.24 13.566 4.24m-19.925-10.599c11.87 0 15.261 4.24 19.5 4.24 4.24 0 11.871-1.272 15.263-.424 3.391.847 5.51 1.695 5.51 1.695m-6.783-12.294c5.936 2.968 12.295 4.24 16.958 3.815 4.664-.423 17.382-2.543 17.382-2.543m-13.99-12.294c6.359 2.543 25.436-3.816 25.436-3.816m-14.838-3.815c9.751-2.544 18.23-14.838 18.23-14.838" font-size="12" font-weight="100" font-stretch="ultra-condensed" letter-spacing="0" fill="none" stroke="#fff" stroke-width="1.25" font-family="Bitstream Vera Sans" transform="matrix(0 .14422 -.0921 0 700.414 153.142)"/><path d="M681.792 193.209c.57 0 .456.928.342 1.356-.114.428-.456 1.534-.615 2.319-.16.785-.638 2.462-.752 3.46-.114 1-.045 2.177-.16 2.64-.113.465-.523.857-.865.714-.342-.142-.547-.713-.524-1.962.022-1.249.524-2.997 1.002-4.71.479-1.712.342-2.069.638-2.818.296-.75.342-1.07.934-1z" fill="#fff" fill-rule="evenodd"/><path style="marker:none" d="M245.816 188.225c4.01-2.808 4.812-3.61 6.55-3.209 1.738.401 4.812 2.941 4.812 2.941m-11.629 5.481c7.218-4.144 10.827.802 10.827.802m-11.496 5.079c3.877-2.54 11.496 1.604 11.496 1.604m-8.555 2.54c6.15-.669 8.956 5.213 8.956 5.213" font-size="12" font-weight="100" font-stretch="ultra-condensed" letter-spacing="0" fill="none" stroke="#fff" stroke-width="2.5" font-family="Bitstream Vera Sans" transform="matrix(0 .14422 -.0921 0 700.414 153.142)"/><g fill="none" stroke="#fff" stroke-width=".5"><path d="M292.202 339.178c5.914 8 14.61 16.35 14.61 16.35m14.611-45.918c4.522 12.523 14.61 20.176 14.61 20.176M329.076 303c6.261 14.263 13.218 22.264 13.218 22.264m-8.348-27.829c4.522 8.349 14.61 21.22 14.61 21.22m-9.392-27.134c17.74 22.611 13.914 22.263 13.914 22.263m-9.044-28.524c6.957 9.392 14.61 22.61 14.61 22.61m71.311-21.219c14.262-4.87 17.045-19.48 17.045-19.48m-29.22-8.349c12.87 17.046 16.697 27.83 16.697 27.83m-77.92 26.088c2.087-24.697 7.653-39.655 7.653-39.655m8-4.523c-1.739 18.785-1.391 29.916-1.391 29.916m13.566-35.829c-2.435 12.87-3.826 26.785-3.826 26.785m10.088-6.261c6.261-14.263 7.653-22.263 7.653-22.263m8-1.74c-1.739 14.958-1.739 21.568-1.739 21.568m14.61-20.524c-2.435 13.566-5.565 21.915-5.565 21.915m25.741 6.609c7.653-4.87 17.393-14.61 17.393-14.61m-9.392 19.132c17.74-10.783 19.828-12.175 19.828-12.175m-14.61 17.393c19.48-4.174 23.307-8 23.307-8m-11.132 21.915c14.958-1.74 25.394-4.522 25.394-4.522m-342.99 58.788c2.435-10.088 2.087-11.827 2.087-11.827m1.391 14.61c6.958-11.48 6.958-10.088 6.958-10.088m2.435 2.087c12.175 24.698 12.87 22.959 12.87 22.959m-2.782-22.611c10.088 20.524 12.523 20.176 12.523 20.176m-7.653-26.437c21.567 20.175 22.958 25.741 22.958 25.741m-36.177 2.087c20.872-9.392 26.437-22.958 26.437-22.958m-12.522 24.35c10.783-7.305 17.392-16.698 17.392-16.698m-37.916 5.914c29.22-21.915 29.568-20.176 29.568-20.176m166.973-74.442c4.174 8 14.958 21.915 14.958 21.915m-6.958-26.785c5.914 9.044 16.698 21.567 16.698 21.567m-9.74-26.437c8.696 14.262 14.262 20.524 14.262 20.524m-2.783-24.003c7.653 10.088 11.827 19.48 11.827 19.48m-.348-23.306c8.349 17.74 10.088 21.22 10.088 21.22m-2.087-24.003c7.305 13.219 11.827 23.307 11.827 23.307m-.695-22.959c7.653 20.176 10.088 22.61 10.088 22.61m2.782-.695c10.436-13.914 13.567-18.436 13.567-18.436m.347.695c13.567 31.308 18.09 36.178 18.09 36.178m-6.262-32.003c21.567 28.872 25.742 49.744 25.742 49.744" transform="matrix(0 .14422 -.0921 0 700.414 153.142)"/><path d="M463.35 276.563c19.132 27.83 28.524 61.572 34.09 65.746 5.566 4.174 12.175 8 12.175 8m-25.394-18.784c53.57-3.478 74.79-4.174 74.79-4.174m-72.007 9.044c54.266.696 88.704 0 88.704 0" transform="matrix(0 .14422 -.0921 0 700.414 153.142)"/><path d="M498.136 344.744c50.092-.696 42.786.348 55.657.348 12.871 0 28.873.695 28.873.695M460.219 306.48c34.438-8.35 26.785-5.219 26.785-5.219m-11.479 24.351c13.566-5.914 26.437-5.566 26.437-5.566m-5.218-5.218c10.088 20.176 19.133 34.438 19.133 34.438m1.739-20.872c9.392 19.828 16.697 23.655 16.697 23.655m-4.87-27.829c7.653 19.132 19.828 32.003 19.828 32.003m-11.827-37.221c17.045 28.873 25.741 40.7 25.741 40.7" transform="matrix(0 .14422 -.0921 0 700.414 153.142)"/><path d="M545.445 310.306c17.045 29.916 36.177 47.657 37.569 53.222l1.739 6.957m-25.394-84.877c5.566 5.913 11.132 12.87 11.132 12.87m-28.177 16.35c11.131 1.043 22.61 1.043 22.61 1.043m-16.696-12.522c18.088-2.783 20.523-1.74 20.523-1.74m-12.523-12.175c12.175-.348 18.437-4.522 18.437-4.522m-11.827-8.697c11.131-.347 14.958-1.391 14.958-1.391m-1.392 60.18c2.783 10.088 17.393 29.22 18.437 35.134 1.043 5.913.695 9.74.695 9.74" transform="matrix(0 .14422 -.0921 0 700.414 153.142)"/><path d="M520.399 352.049c50.787-1.044 42.786.348 49.048 1.043 6.261.696 27.829 1.74 27.829 1.74m-18.785 7.653c17.045 3.826 20.524 6.261 20.524 6.261m-46.961-70.268c5.566 9.045 12.87 16.35 12.87 16.35m1.044-42.439c6.61 10.088 7.305 11.48 7.305 11.48m-116.881 45.569c12.871 24.35 21.22 26.09 21.22 26.09m-48.701 8.696c10.088 8 10.436 5.566 10.436 5.566m-1.043 1.043c4.522-6.609 29.22-36.525 29.22-36.525m-6.609 37.222c8-6.61 21.567-23.655 21.567-23.655m-33.395-5.566c9.045 4.87 21.568 19.48 21.568 19.48m-28.177-3.479c9.392 9.045 18.784 16.35 18.784 16.35m-23.654-13.567c6.957 8.349 10.088 11.828 10.088 11.828m-2.087-18.437c13.566 10.088 18.784 13.566 18.784 13.566m-16.001 2.435c16.697-10.435 27.133-27.48 27.133-27.48m98.792-82.791c4.522 3.478 6.957 7.653 6.957 7.653m-1.391-17.741c16.35 1.74 31.307-4.522 41.047-7.305 9.74-2.783 22.263-5.218 22.263-5.218m-55.657 5.914c18.784-2.088 40.351-10.784 46.265-10.784 5.914 0 21.22-5.218 21.22-5.218m-12.176-4.175c4.523-.695 16.002-1.39 16.002-1.39l1.044-1.044m-7.653-5.914c8.348.348 10.435-2.435 10.435-2.435m-73.746 30.96c2.783 9.044 3.479 10.088 3.479 10.088m-14.263-1.74l6.262 7.653m12.523-20.524c2.783 9.74 6.261 13.567 6.261 13.567m4.871-17.741c3.826 10.088 4.87 13.567 4.87 13.567" transform="matrix(0 .14422 -.0921 0 700.414 153.142)"/><path d="M617.104 232.385c7.305 11.48 7.653 12.175 7.653 12.175l.348 1.044m1.043-16.002c10.088 13.219 8.697 11.827 8.697 11.827m2.087-16.349c6.261 6.261 9.044 9.74 9.044 9.74m2.435-15.306c6.957 3.827 8.001 5.218 8.001 5.218m-371.515 38.613c-3.478-4.523-8.696-4.175-13.914-7.305-5.218-3.131-11.132-13.567-11.132-13.567m1.044.696c9.044 21.567 6.957 33.742 6.957 33.742m-13.218-9.74c9.392-1.74 9.392 10.088 11.131 13.914 1.74 3.827 4.87 13.915 4.87 13.915m-20.871-17.741s4.87 14.262 6.957 18.089c2.087 3.826 4.87 9.392 4.87 9.392m-19.481-18.785c-.347 11.132 8.35 28.525 8.35 28.525m-17.394-19.828c1.044 8.349 8.697 29.22 8.697 29.22m-17.393-21.915c2.783 25.046 22.959 81.747 22.959 81.747m-31.308-76.181c.348 21.22 20.524 75.833 20.524 75.833m-29.916-65.05c2.435 26.438 14.61 61.224 14.61 61.224m-23.307-48.353c2.435 22.96 10.436 39.656 10.436 39.656m73.747-103.662c-6.262 4.522-82.791 61.223-82.791 61.223" transform="matrix(0 .14422 -.0921 0 700.414 153.142)"/><path d="M276.549 287.695c-36.873 25.394-76.877 52.527-77.92 54.614-1.044 2.087-1.044 2.435-1.044 2.435m0 6.957c5.565-1.391 43.482-27.133 43.482-27.133m-38.612 38.265c6.609-1.74 36.525-20.176 36.525-20.176m-27.481 32.699C227.5 367.355 250.11 351.7 250.11 351.7m-25.74 30.96c9.74-5.913 41.395-30.263 41.395-30.263M245.241 384.4c13.567-9.044 12.871-9.392 12.871-9.392m6.958-21.916c5.913 6.61 12.174 27.134 16.349 31.308 4.174 4.174 17.393 25.046 17.393 25.046m-21.915-58.093c3.478 8.001 27.48 45.222 27.48 45.222m-19.827-50.44c4.522 8.349 20.871 26.438 20.871 26.438m-.696-44.526c3.827 9.74 11.48 22.61 11.48 22.61m-5.914-26.089c4.87 8.696 12.523 18.784 12.523 18.784m-7.653-26.437c12.523 19.132 13.915 21.22 13.915 21.22m-49.396 11.827c-5.914 11.827-9.74 17.74-9.74 17.74m18.088-25.045c-4.87 24.35-10.784 34.09-10.784 34.09m4.523 8.349c14.262-37.57 17.393-52.18 17.393-52.18m-13.219 61.224c16.002-15.654 20.524-51.831 20.524-51.831m-17.393 60.527c9.74-14.61 13.914-26.785 13.914-26.785m-8.349 30.612c13.22-16.697 16.35-25.046 16.35-25.046m.348-59.832c-4.175 19.132-4.522 19.828-4.522 19.828m12.523 10.088c8-29.568 2.435-40.7 2.435-40.7m7.653 25.742c5.913-30.96 4.522-40.7 4.522-40.7m5.565 32.004c.696-8.001 4.523-41.048 4.523-41.048m10.088-6.609c-5.914 31.655-7.305 40.7-7.305 40.7m-98.083 30.782c1.334 9.731 5.988 22.845 9.55 30.338" transform="matrix(0 .14422 -.0921 0 700.414 153.142)"/></g><path style="marker:none" d="M187.248 339.726c1.189 30.316 16.05 41.016 16.05 41.016m-67.239-26.18c.99 11.38-2.969 13.853-3.958 17.811-.99 3.958 2.968 8.411 2.968 8.411m-47.497-41.56c17.317 4.453 14.843 7.916 19.79 8.411 4.948.495 18.307.495 18.307.495m-18.306-32.654c2.474 13.853 17.316 25.233 17.316 25.233m3.464-33.149c-2.474 16.327 1.484 30.675 1.484 30.675m5.937.495c14.843-11.875 19.79-24.738 19.79-24.738m112.788 69.451c-15.195-19.663-9.832-30.39-9.832-30.39" font-size="12" font-weight="100" font-stretch="ultra-condensed" letter-spacing="0" fill="none" stroke="#fff" stroke-width="2.5" font-family="Bitstream Vera Sans" transform="matrix(0 .14422 -.0921 0 700.414 153.142)"/></svg>