<svg xmlns="http://www.w3.org/2000/svg" xmlns:xlink="http://www.w3.org/1999/xlink" width="744.094" height="524.409" version="1"><path fill="#fff" d="M0-.886h744.094v526.181H0z"/><g stroke="wheat"><path fill="snow" stroke-width="3.105" stroke-linecap="square" stroke-dashoffset="1.061" d="M29.899 90.844h217.359v403.667H29.899z"/><path d="M231.181 431.858H45.974m184.887-46.578H45.973m185.21-46.576H45.973m185.21-46.577H45.973m185.21 186.308H45.973m185.208-279.377H45.974m184.887-46.578H45.973m185.21-45.955H45.973m185.21 139.109H45.973" stroke-width=".932" fill="#f0f0f0" fill-opacity=".2" fill-rule="evenodd"/><g stroke-width=".932"><path d="M184.767 107.68v371.06m-46.189-371.06v371.06M92.39 107.68v371.06" fill="none"/><path d="M46.202 107.68v371.06m184.753-371.06v371.06" fill-rule="evenodd"/></g></g><path d="M208.045 122.582c3.018 110.304 4.053 145.526.768 215.476.364.105 4.229-.948 4.229-.948l-5.62 13.963-6.26-14.625s4.038 1.503 4.217 1.503c2.75-69.723 2.7-109.492 2.666-215.369z" opacity=".1" fill="#d40000" fill-rule="evenodd"/><path d="M303.25 197.438c-21.42 12.557-92.435 32.262-104.684 38.541-11.79-.45-25.578 17.12-25.578 33 0 18.819 13.064 34.094 34.095 34.094 23.009 3.83 109.16 26.602 118.82 19.633-31.19-8.67-58.374-39.94-57.492-63.94.851-23.15 20.42-52.015 34.84-61.328z" opacity=".2" fill="#e5b48c"/><g fill="#f0f0f0" fill-opacity=".2" fill-rule="evenodd"><path d="M397.903 269.67H270.73m127.35-25.558H271.109m50.895 76.277V193.594m25.558 126.404V193.405" stroke-width="1.27" stroke="wheat"/><path d="M296.447 309.594V203.808m76.672 105.03V204.943m14.179 90.283H282.836m103.894-76.671H282.837" stroke="#e1ca9f" stroke-width="1.863"/></g><path d="M400.23 256.89c0 36.127-29.32 65.447-65.447 65.447-36.126 0-65.446-29.32-65.446-65.446 0-36.127 29.32-65.447 65.446-65.447 36.127 0 65.447 29.32 65.447 65.447z" fill="none" stroke="#eee8aa" stroke-width="2.627" stroke-linecap="square" stroke-dashoffset="1.061" stroke-opacity=".506"/><path d="M241.174 269.417a34.093 34.093 0 1 1-68.186 0 34.093 34.093 0 1 1 68.186 0z" fill="none" stroke="#eee8aa" stroke-width="2.173" stroke-linecap="square" stroke-dashoffset="1.061" stroke-opacity=".506"/><path d="M284.475 96.228h246.684v30.92H284.475z"/><path d="M279.594 90.224h240.822l10.668 5.334H284.262l-4.668-5.334z" fill="#333"/><path d="M279.242 90.712l.004 31.02 4.668 5.334-.004-31.02-4.668-5.334z" fill="#666"/><path d="M225.61 232.851c-8.41-6.184-16.822-16.574-22.511-18.553-5.69-1.98-18.554-6.185-27.212-5.937-8.658.247-18.801.494-19.048 3.463-.248 2.968 3.216 5.442 7.916 5.69 4.7.247 14.348-.495 20.038 1.484 5.69 1.979 11.874 6.432 14.842 11.132 2.969 4.7 7.916 16.08 7.916 16.08l13.112-2.474 4.947-10.885z" fill="#e5170f" fill-rule="evenodd" stroke="#000" stroke-width="1pt" transform="matrix(.17243 0 0 .0649 343.275 95.324)"/><path d="M549.855 411.653c-6.539-21.4 4.161-24.967 4.161-24.967l11.889 4.756s-14.267 10.7-16.05 20.21zm24.372 13.077c-12.483-4.16-14.861-17.238-10.106-19.022 4.756-1.783 10.7 1.784 10.7 1.784s-4.16 5.944-.594 17.238zm27.938 1.784c-8.322 2.378-19.616 1.783-17.833-8.917 1.784-10.7 11.295 7.728 17.833 8.917zm4.755-14.861c2.379 10.105 7.729 7.728 11.89 7.133 4.16-.594 7.727-7.133 7.727-7.133s-8.916 2.378-12.483 0c-3.566-2.378-7.133 0-7.133 0zm18.428-39.233c5.945 8.917 3.567 11.889.595 13.672-2.972 1.783 7.728 1.189 7.133-7.728-.594-8.916-3.566-13.672-3.566-13.672l-4.162 7.728zm-251.447 5.35c-8.322-9.511-4.16-19.617 0-20.211 4.161-.594 4.161 8.917 4.161 8.917s-4.755.594-4.755 5.35c0 4.755.594 5.944.594 5.944zm7.728 23.183c-6.539-5.35-7.728-14.267-4.755-16.644 2.972-2.378 8.916-3.567 8.916-3.567l5.944 7.728s-11.294 2.972-10.105 12.483zm-4.755-54.093c1.783-13.079 13.672-16.645 14.86-12.484 1.19 4.161 4.162 8.322 4.162 8.322l-6.54 4.756s-8.321-5.945-12.482-.595zm29.127-16.645c10.7-2.378 13.672-4.756 15.455.594 1.784 5.35.595 15.456.595 15.456l-5.35-2.378s-1.189-14.267-10.7-13.672zm14.266 73.115c16.645-2.377 16.05-8.916 16.05-8.916l4.756 8.917s-12.483 5.944-20.806 0z" style="marker:none" transform="matrix(.17243 0 0 .0649 343.275 95.324)" font-size="12" font-weight="100" font-stretch="ultra-condensed" letter-spacing="0" fill="#fff" fill-rule="evenodd" stroke="#838287" stroke-width="1pt" font-family="Bitstream Vera Sans"/><path d="M133.154 305.843c-.594-6.539-8.322-9.511-11.889-9.511-3.566 0-5.944 4.755-5.944 4.755s3.567 2.973 7.133 4.756c3.567 1.783 10.7 0 10.7 0zm-21.994 11.294c-2.972-6.539-7.133-8.322-11.889-8.322-4.755 0-7.133 5.944-7.133 5.944s5.944 1.784 8.916 1.784c2.973 0 10.106.594 10.106.594zm-21.4 19.023c-7.133-1.784-9.51 5.35-10.7 8.321-1.189 2.973 1.784 8.917 1.784 8.917l5.944-7.133h7.728l-4.756-10.106zm60.633-29.128c3.566-5.35-.595-11.889-.595-11.889s10.106 3.567 9.511 11.294c-.594 7.728-2.972 11.89-2.972 11.89l-5.944-11.295zm-32.1 84.41c7.133-1.189 7.133-1.783 10.106-4.756 2.972-2.972 2.972-6.538 2.972-6.538l5.35 4.755s-.595 5.945-5.35 7.133c-4.756 1.19-8.917 2.973-13.078-.594z" transform="matrix(.17243 0 0 .0649 343.275 95.324)" fill="#fff" fill-rule="evenodd" stroke="#838287" stroke-width="1pt"/><path d="M245.503 434.241c-8.917-13.672-3.567-19.022-.595-19.616 2.973-.594 6.54 4.756 6.54 4.756s-7.729 6.538-5.945 14.86zm7.727 19.617c-9.51-8.917-5.35-19.022.595-19.022 5.944 0 10.105 4.755 4.755 10.105-5.35 5.35-5.35 3.567-5.35 8.917zm27.345 11.294c-7.134-7.727-7.134-14.86-7.134-14.86l-9.51.594s-2.378 9.51 2.972 11.888 10.105.595 13.672 2.378zm39.233-21.4c4.16-3.566 4.16-7.133 4.16-10.105 0-2.972-4.16-10.105-4.16-10.105l5.944-2.378s4.755 10.105 2.972 14.86c-1.783 4.756-5.35 5.945-8.916 7.728zm-70.144-43.393c-4.161-2.378-9.511 7.727-9.511 7.727s-1.783-9.51 1.783-12.483c3.567-2.972 10.106-2.972 11.889-.594 1.783 2.377 2.378 7.727 2.378 7.727l-6.54-2.377z" style="marker:none" transform="matrix(.17243 0 0 .0649 343.275 95.324)" font-size="12" font-weight="100" font-stretch="ultra-condensed" letter-spacing="0" fill="#fff" fill-rule="evenodd" stroke="#838287" stroke-width="1pt" font-family="Bitstream Vera Sans"/><path d="M585.885 355.739c-.848-9.327 1.696-16.11 3.816-17.806 2.12-1.695 4.663-5.935 4.663-5.935s2.968 6.783 2.12 8.479c-.848 1.696 3.391-2.968 5.935-3.815 2.544-.848 3.815-3.392 3.815-3.392s-1.271 5.935-1.271 9.327c0 3.391-.424 5.51-.424 5.51s2.967-3.815 4.663-3.815c1.696 0 0 8.48-1.696 10.599-1.696 2.12-12.718 10.174-12.718 10.174l-8.903-9.326zm-139.9 17.381c6.783 6.36 9.75 5.088 10.175 8.055.423 2.968.423 6.783.423 6.783s5.936-6.359 8.903-6.359c2.968 0 6.783 4.24 6.783 4.24s-2.967-5.936-2.967-8.48c0-2.543 7.63-.847 7.63-.847s-.847-3.392-5.935-4.24c-5.087-.847-13.566-2.12-13.566-2.12l-11.446 2.968zm-128.454 22.893c6.783 2.544 15.686 2.968 15.686 2.968v-7.631c0-2.544 6.783-5.935 6.783-5.935s-6.783-6.36-9.75-5.936c-2.968.424-5.512 3.392-5.512 3.392s-.848-1.696-.848-5.087c0-3.392.424-5.935.424-5.935s-2.12 3.815-4.24 6.359c-2.119 2.543-10.174 6.783-10.174 6.783l7.631 11.022z" style="marker:none" font-size="12" font-weight="100" font-stretch="ultra-condensed" letter-spacing="0" fill="#007137" fill-rule="evenodd" stroke="#006025" stroke-width="1pt" font-family="Bitstream Vera Sans" transform="matrix(.17243 0 0 .0649 343.275 95.324)"/><path d="M160.25 384.567c-1.272 5.511.423 14.838.423 14.838s2.12-.424 3.816-1.272c1.696-.848 2.12-3.392 2.12-3.392s.847 5.088 3.391 7.207c2.544 2.12 2.968 5.088 2.968 5.088s2.967-2.12 3.391-6.783c.424-4.664 0-7.631 0-7.631s1.696 2.543 4.24 2.12c2.543-.425 5.51 0 5.51 0s0-3.816-2.967-5.512c-2.967-1.696-8.479-5.087-8.479-5.087l-14.414.424z" fill="#007137" fill-rule="evenodd" stroke="#006025" stroke-width="1pt" transform="matrix(.17243 0 0 .0649 343.275 95.324)"/><path d="M213.88 154.394c.37-5.172 9.42-14.407 9.79-22.534.369-8.127-8.682-17.547-15.516-23.273-6.834-5.726-23.827-14.038-23.827-37.126 0-23.088-7.019-32.139-12.19-37.495-5.172-5.357-15.147-6.465-15.147-6.465s7.204 6.465 11.268 14.222c4.063 7.758 8.496 15.146 8.127 31.77-.37 16.623 6.834 26.597 9.42 29.553 2.585 2.955 15.7 14.407 19.209 17.547 3.51 3.14 7.019 7.388 6.465 10.159-.554 2.77-4.618 6.649-6.28 6.649-1.663 0-31.77 34.91-31.954 37.126-.185 2.216-2.586 12.93-15.885 12.745-13.299-.185-28.63-8.497-37.68-8.312-9.05.185-39.712 15.33-47.47 15.146-7.757-.185-15.515-2.217-19.209-3.88-3.694-1.661-12.19-7.572-12.19-7.572s4.063 6.465 8.127 9.235c4.063 2.77 5.54 6.834 22.903 6.096 17.362-.74 30.661-11.452 47.285-11.452 16.623 0 18.84 12.56 38.973 11.636 20.133-.923 23.827-15.884 25.304-16.254 1.478-.37 30.107-22.35 30.477-27.521z" fill="#00386a" fill-rule="evenodd" stroke="#000" stroke-width="1pt" transform="matrix(.17243 0 0 .0649 343.275 95.324)"/><path d="M281.518 268.969c4.948 5.442 7.916 11.874 8.41 14.348.496 2.473 0 5.937 0 5.937s-1.483-5.443-4.452-4.453c-2.969.99-2.474.495-2.474.495s1.485 8.41.99 10.39c-.495 1.979-1.98-1.485-1.98-1.485l.495 9.4s-2.473-1.978-4.452-2.968c-1.98-.99-4.948-.495-4.948-.495s1.484 7.917.99 10.885c-.495 2.969-2.474 7.421-2.474 7.421l-3.958-3.958-2.474-4.947v17.811s-3.958-4.453-7.916-4.947c-3.958-.495-9.895-.495-9.895-.495s4.452 3.958 7.421 5.442c2.969 1.484 4.948 1.98 4.948 1.98s-3.959 4.452-5.443 7.42c-1.484 2.97-5.442 3.464-5.442 3.464s7.421 0 10.885-2.969c3.463-2.968 5.442-6.432 5.442-6.432s2.474 6.927 3.463 8.906c.99 1.98 2.969 2.969 2.969 2.969s0-9.4 1.979-14.348 6.432-7.917 6.432-7.917.99 3.464 3.463 6.432c2.474 2.969 6.432 6.927 6.432 6.927s-.495-11.38.495-16.327c.99-4.948 4.947-9.4 4.947-9.4s0 4.947 3.958 6.926c3.958 1.98 5.443 2.969 5.443 2.969s-1.98-10.885-.495-15.833c1.484-4.947 4.453-6.431 4.453-6.431s.99 3.463 5.442 4.947c4.453 1.484 6.927 1.484 6.927 1.484s-2.474-5.442-1.485-10.39c.99-4.947 2.969-13.358 2.969-13.358s2.969 6.432 7.421 6.927c4.453.494 5.443.494 5.443.494s-.99-6.926-.99-13.358 2.969-9.4 2.969-9.4 2.474 7.42 5.442 8.905c2.969 1.484 7.421 2.969 7.421 2.969s-1.484-7.422-.494-13.854c.99-6.431 4.453-11.874 5.937-9.4s1.979 7.916 4.453 9.895a61.11 61.11 0 0 1 4.453 3.958s-2.474-4.947.494-12.369c2.969-7.421 6.927-10.884 6.927-10.884s.495 9.4 2.474 11.874 5.442 5.937 5.442 5.937-.99-6.927.99-12.37c1.979-5.441 8.41-9.894 8.41-9.894s-1.979 8.905-1.979 12.369c0 3.463 2.969 6.926 2.969 6.926l5.937-14.842c1.98-4.948 9.895-9.4 9.895-9.4s-.99 5.441-.494 7.915c.494 2.474.989 12.864 2.968 11.38 1.98-1.485 4.453-7.916 6.432-11.874 1.979-3.959 9.895-4.948 9.895-4.948l-.99 16.822s2.97-5.937 8.906-8.906c5.937-2.969 8.906-1.484 8.906-1.484l-.495 15.832s7.916-4.453 13.359-5.937c5.442-1.484 9.895-1.484 9.895-1.484s-7.422 2.968-8.906 7.421c-1.484 4.453-.495 4.948-.495 4.948s7.422-2.969 11.875-2.474l8.905.99s-5.937 4.947-5.442 8.41c.495 3.464 1.484 5.937 1.484 5.937s4.453-2.968 7.422-4.452c2.968-1.485 5.442-2.969 7.421-1.485 1.98 1.485-2.474 6.927-3.463 8.906l-2.474 4.948s2.968-1.98 6.927-1.485c3.958.495 9.4 1.98 9.4 1.98s-.99 4.452-2.474 7.915c-1.484 3.464-2.968 7.422-2.968 7.422l12.863-3.958s0 6.432-.494 8.905c-.495 2.474-2.474 6.432-2.474 6.432s4.453-.99 6.926-2.474c2.474-1.484 5.443-2.968 5.443-2.968s.99 4.453.99 7.421v3.958s4.452-6.431 3.463-9.895c-.99-3.463.494-6.432.494-6.432s6.432 4.453 8.906 6.432l4.948 3.958s0-6.926-1.485-9.895l-3.958-7.916s5.443 2.969 8.411 3.958c2.969.99 6.927.99 6.927.99s-5.443-4.948-5.443-9.4c0-4.454 1.485-7.917 1.485-7.917s3.463 2.474 7.421 2.474 4.453-.495 4.453-.495l-5.442-9.895s8.41-2.474 12.863-3.463c4.453-.99 10.39-3.959 10.39-3.959s-15.832 76.688-51.455 70.256c-35.622-6.432-49.97-68.771-98.952-70.75-48.98-1.98-125.174 103.9-162.775 99.941-37.602-3.958-29.686-33.644-24.738-47.497 4.947-13.853 38.096-48.486 38.096-48.486l12.864.495z" fill="#fff" fill-rule="evenodd" stroke="#6a6d6b" stroke-width="1.125" transform="matrix(.17243 0 0 .0649 343.275 95.324)"/><path d="M375.95 107.289l-.768.626 1.023-.048-.213.353 1.11-.064-.64.32 1.322-.128-.299.29.853-.177-.213.321.981-.177-.597.241.725-.048.085.385 1.195-.144-4.565-1.75zm-5.589 2.665l.896-.546.299.353.554-.192.342.208.64-.208.383.224.81-.208.3.257s.34-.273.511-.177c.17.096.342.289.342.289l.81-.193.043.337-1.152.21-4.778-.354z" fill="#fefefe" fill-rule="evenodd"/><path d="M154.783 219.374c-2.4 3.14-2.77 6.65-2.955 9.05-.185 2.401.924 6.834 0 9.236-.923 2.4-3.51 5.171-6.095 6.28-2.586 1.108 5.356 3.14 7.573 2.585 2.216-.554 9.974-2.77 9.974-2.77s-.739 4.987-2.032 5.91c-1.293.924-5.541 2.956-5.541 2.956s7.942.554 10.713-.74c2.77-1.292 6.465-5.17 6.465-5.17s-.554 4.802.554 6.649c1.108 1.847 2.955 4.617 2.955 4.617s3.325-2.586 3.879-3.51c.554-.923 2.401-5.91 2.401-5.91s2.032 6.465 1.662 9.05c-.369 2.587-4.802 6.835-4.802 6.835s6.834-2.586 8.497-4.248c1.662-1.663 4.248-4.803 4.248-4.803s0 6.28.37 7.943c.369 1.662.369 6.834.369 6.834s4.617-2.032 5.725-2.77c1.109-.74 2.402-5.173 2.402-5.173s-.37 5.911.554 7.758c.923 1.847 4.063 4.618 4.063 4.618s2.032-2.032 3.14-4.248c1.109-2.217 2.586-5.542 2.586-5.542s2.032 5.172 3.694 6.28c1.663 1.109 4.803 2.956 4.803 2.956s1.847-1.663 2.4-3.14c.555-1.478 1.848-6.834 1.848-6.834s.923 5.171 2.586 7.388c1.662 2.216 5.171 2.4 5.171 2.4s-1.108-6.094.185-6.649c1.293-.554 5.357.555 6.834 2.217 1.478 1.662 4.249 3.694 4.249 3.694s.738-3.325 1.662-5.726c.923-2.401 2.216-7.203 2.216-7.203s.554 5.54.554 7.203c0 1.663-.738 12.19-22.349 24.935-21.61 12.745-36.756 30.846-38.05 38.973-1.292 8.127-.738 10.344-.738 10.344s-8.127.923-11.637 4.618c-3.509 3.694-3.509 12.005-3.509 12.005s-9.974-1.108-17.732-4.617c-7.757-3.51-13.114-4.433-13.114-4.433s-.923-3.694-1.847-4.618c-.923-.923-2.955-.923-2.955-.923s7.942-9.79 11.82-14.777c3.88-4.987 10.714-11.452 10.53-13.114-.186-1.662-6.28-9.79-7.758-9.235-1.478.554-9.605 14.407-11.268 16.254-1.662 1.847-4.063 8.127-6.28 8.312-2.216.184-1.108-9.974-.738-15.146.37-5.172.738-11.452-.37-11.637-1.108-.184-7.573.924-9.05 1.847-1.478.924-.185 21.057-.554 21.98-.37.924-6.28-.369-8.682-3.878-2.4-3.51-2.955-8.866-4.433-9.236-1.477-.37-8.496 1.109-8.865 2.956-.37 1.847 4.802 12.744 6.095 14.776 1.293 2.032 10.897 10.159 10.897 11.267 0 1.108-7.018.924-9.604-.185-2.586-1.108-15.33-8.68-16.808-8.127-1.478.554-3.695 9.05-2.771 10.16.923 1.107 9.79 2.585 12.19 4.063 2.402 1.477 7.02 7.203 9.236 7.203 2.216 0 12.006-1.293 13.114-.554 1.108.739 4.063 3.694 3.879 4.987-.185 1.293.739 9.42.184 13.668-.554 4.249 4.803 7.573 6.28 8.497 1.478.923 5.911 2.586 6.096 1.108.184-1.478-4.618-7.573-4.248-12.375.369-4.803 5.356-12.006 6.464-12.006 1.108 0 7.204 11.452 11.267 15.33 4.064 3.88 7.389 11.452 19.025 11.452s14.592-4.987 16.07-4.987c1.477 0 16.623 1.108 18.47 1.108 1.847 0 14.222 9.42 39.527 8.312 25.305-1.108 26.598-4.987 26.598-4.987s6.464 3.694 9.42 10.159c2.955 6.465 4.617 16.254 2.031 17.916-2.585 1.663-12.56-7.203-17.916-10.712-5.357-3.51-9.974-9.42-11.082-8.866-1.109.554-5.357 4.433-5.542 6.28-.184 1.847 19.58 14.591 19.025 15.7-.554 1.108-11.636-3.325-16.07-3.325-4.432 0-7.203 5.541-7.572 7.388-.37 1.847 4.987 5.172 6.28 4.987 1.293-.185 4.987-3.325 9.604-3.325 4.618 0 10.344 3.325 10.16 5.357-.185 2.032-3.325 4.618-6.465 4.802-3.14.185-8.682 1.109-9.975 2.032-1.292.924-.554 10.344 1.848 10.159 2.4-.185 10.343-6.834 12.375-6.65 2.032.185 4.802-.738 4.802.37s-8.496 6.65-9.235 9.42c-.739 2.77 1.478 5.172 4.433 6.834s1.477.185 4.617-.739c3.14-.923 16.44-20.872 17.917-21.241 1.478-.37 12.19-.37 14.961-.554 2.77-.185 7.204-5.172 10.159-5.172 2.955 0 3.694 3.694 4.618 4.064.923.37 7.018-5.357 7.018-7.758s-2.216-5.541-4.802-5.172c-2.586.37-5.356 4.064-8.496 4.064-3.14 0-16.07.554-16.809-1.108-.738-1.663 7.204-14.777 10.344-16.809 3.14-2.031 14.222-6.65 14.407-9.974.185-3.325.185-5.541-3.694-8.866-3.879-3.324-10.159-13.114-10.159-16.623 0-3.51 6.095-4.987 11.636-10.528 5.542-5.542 61.507-72.036 87.551-70.927 26.044 1.108 44.145 14.776 51.902 25.304 7.758 10.528 6.096 6.28 5.357 8.127-.739 1.847-11.083 4.803-14.592 9.05-3.51 4.25-5.172 18.102-5.726 21.057-.554 2.956-13.299 10.713-16.808 10.713-3.51 0-6.65 1.478-6.465 0 .185-1.477 2.586-9.235 1.847-17.362-.739-8.127-.739-13.853-3.14-13.668-2.4.184-4.063 3.51-4.248 5.356-.185 1.847 0 20.318-1.108 20.872-1.108.554-20.503-21.61-21.98-21.241-1.478.37-6.095 7.019-5.91 8.866.184 1.847 18.1 16.07 17.916 17.177-.185 1.109-7.573.924-10.713.37-3.14-.554-12.376-5.541-15.146-5.541-2.77 0-3.879 4.987-3.694 7.018.184 2.032 1.477 5.542 5.541 5.91 4.063.37 21.426-.738 21.426.924 0 1.663-2.586 5.172-8.312 6.835-5.726 1.662-10.713 1.847-12.375 2.216-1.663.37-1.108 1.662-1.108 3.51 0 1.847 2.031 3.324 5.356 4.063 3.325.739 11.636-.185 13.484-.739 1.847-.554 12.375-7.203 15.515-7.019 3.14.185 4.063 3.14 4.987 5.726.923 2.586 2.401 7.388 5.91 8.312 3.51.923 9.236 1.478 9.051 2.955-.185 1.478.554 6.834 4.248 6.465 3.694-.37 6.28-2.955 6.465-6.095.185-3.14-9.05-5.172-12.375-9.42-3.325-4.249-6.465-7.758-5.726-10.713.739-2.956 21.426-2.217 24.75-2.032 3.325.185 10.898 1.847 12.006.37 1.108-1.478 9.605-16.07 13.114-17.732 3.51-1.663 10.898-.74 12.56-1.847 1.663-1.109-.923-5.357 7.389-4.618 8.311.739 28.075 1.847 33.8 4.618 5.727 2.77 17.548 5.171 25.49 6.095 7.943.923 19.025 4.063 24.566 10.713 5.541 6.65 5.357 9.605 4.433 11.452-.924 1.847-13.484 1.293-17.178 1.108-3.694-.185-14.776-.554-15.146 4.433-.369 4.987 4.064 7.757 7.204 7.019 3.14-.74 3.14-3.51 7.758-3.51 4.617 0 15.515-2.586 15.7-.923.184 1.662-4.803 8.311-7.204 9.42-2.401 1.108-11.082 1.662-11.636 5.171-.554 3.51 3.324 6.465 6.095 6.28 2.77-.184 9.605-8.311 11.452-9.42 1.847-1.108 4.617-4.248 5.91-3.878 1.293.369.37 7.572-1.108 10.343-1.478 2.77-2.586 8.497-2.586 8.497s.37 3.324 3.879 3.14c3.51-.185 6.65-3.695 7.573-6.835s.37-18.1 2.216-18.655c1.847-.554 4.618 2.586 6.28 6.65 1.663 4.063 1.847 12.19 5.542 12.005 3.694-.184 7.203-6.834 6.834-11.267-.37-4.433-10.529-11.082-10.898-14.776-.37-3.694 26.967-18.286 27.152-21.241.184-2.956-4.618-6.834-6.834-7.204-2.217-.37-21.796 18.47-24.936 17.547-3.14-.923 2.032-23.088-1.847-25.674-3.879-2.586-7.203 1.478-11.451-.739-4.249-2.216-2.402-10.713-11.822-19.578-9.42-8.866-14.222-.555-14.222-3.51 0-2.955 9.05-19.394 12.19-28.26 3.14-8.866 4.064-28.445 13.669-31.4 9.605-2.955 14.961 2.586 21.98 2.77 7.019.185 13.114-2.4 13.114-2.4s-10.528.369-14.222-.185c-3.694-.554-8.497-4.248-8.497-4.248s14.592 2.4 21.241 2.4c6.65 0 24.936-1.662 24.936-1.662s-17.363-.923-23.458-1.108c-6.095-.185-8.127-3.14-7.758-4.063.37-.924 18.286 2.031 25.305 1.847 7.019-.185 25.305-4.987 25.305-4.987s-16.44 2.4-22.165 2.4c-5.726 0-14.038-3.14-17.732-3.324-3.694-.185-6.28-.923-5.726-2.401.554-1.478 7.02-2.586 9.79-2.586 2.77 0 13.483 2.401 16.808 2.217 3.325-.185 17.732-.924 24.935-3.51 7.204-2.586 12.56-5.726 12.56-5.726s-12.93 3.51-16.439 3.325c-3.509-.185-12.005-1.847-14.96-1.662-2.956.184-6.835-.554-6.65-2.586.185-2.032 10.713 2.216 28.445-6.28 17.731-8.497 26.228-19.025 26.228-19.025s-14.961 9.42-21.795 12.375c-6.835 2.956-8.128 3.325-9.051 1.478-.924-1.847 7.758-8.496 11.821-12.375 4.064-3.88 9.79-11.637 12.56-13.3 2.77-1.661 13.484-7.387 13.484-7.387s-11.083-.185-16.07 2.586c-4.987 2.77-15.146 13.852-16.623 12.929-1.478-.924.923-8.312 4.433-11.821 3.51-3.51 11.82-8.497 16.069-12.376 4.248-3.878 4.248-9.42 4.248-9.42s-3.879 5.172-6.28 7.02c-2.4 1.846-7.203 3.14-9.79 4.986-2.585 1.847-5.54 6.834-6.649 6.28-1.108-.554 1.293-8.127 3.695-12.006 2.4-3.878 6.464-9.604 10.897-13.852 4.433-4.249 13.114-10.713 13.114-10.713s-9.235 2.585-12.93 4.617c-3.693 2.032-10.527 8.497-12.56 11.267-2.03 2.77-4.986 9.79-6.28 8.866-1.292-.923 1.848-9.79 3.88-15.7s4.433-12.93 8.312-16.439c3.878-3.509 10.897-7.942 10.158-7.942-.738 0-12.19 2.955-17.362 7.942-5.172 4.987-12.006 22.165-13.299 21.796-1.293-.37-.554-9.974.554-14.038 1.109-4.064 5.172-16.993 5.172-16.993s-7.573 10.713-9.42 15.33c-1.847 4.618-7.388 21.242-8.127 24.382-.739 3.14-1.847 8.127-1.847 8.127s-1.478-6.65-.924-12.006c.555-5.356 6.465-24.381 6.465-24.381s-7.019 11.452-8.681 16.993c-1.662 5.54-4.618 19.21-5.91 23.457-1.294 4.249-1.478 6.835-2.402 6.65-.923-.185-2.401-9.235 0-17.917 2.401-8.68 7.388-20.687 7.388-20.687s-6.649 6.465-8.496 10.529c-1.847 4.063-3.51 13.668-4.802 17.731-1.293 4.064-1.478 17.547-2.586 18.101-1.109.555-2.032-12.929-1.663-16.069.37-3.14 4.803-19.394 4.803-19.394s-6.834 17.547-7.02 21.056c-.184 3.51-2.216 23.089-3.509 23.827-1.292.74-1.477-12.744-1.292-16.808.184-4.063 3.324-20.317 3.324-20.317s-5.172 14.222-6.464 18.84c-1.293 4.617-2.217 24.75-3.88 25.12-1.662.369-2.4-13.853-1.846-17.917.554-4.063 2.955-19.763 2.955-19.763s-4.802 11.636-6.095 17.731c-1.293 6.096-1.293 21.242-2.586 21.426-1.293.185-3.51-8.496-3.14-12.744.37-4.249 5.172-19.21 5.172-19.21s-6.835 15.885-8.312 19.025c-1.478 3.14-1.847 11.821-3.14 11.452-1.293-.37-2.401-4.064-2.032-7.204.37-3.14 3.879-16.439 3.879-16.439s-7.019 10.898-8.497 15.516c-1.477 4.617-.554 12.005-2.031 12.005-1.478 0-2.956-4.987-2.771-7.942.185-2.955 2.586-12.93 2.586-12.93s-4.618 9.79-5.172 13.3c-.554 3.509-.185 9.05-1.293 9.05-1.108 0-2.401-5.726-2.216-9.235.184-3.51 0-12.006 0-12.006s-2.401 12.56-2.77 15.146c-.37 2.586 1.292 11.082-.186 11.267-1.477.185-3.694-2.955-4.987-6.095-1.293-3.14-2.77-9.42-2.77-9.42s-.924 9.789-1.663 13.668c-.738 3.879 2.771 8.68 2.032 9.42-.739.739-4.063.923-7.388-1.663-3.325-2.585-4.802-3.324-4.802-3.324s3.51 10.713 4.433 13.853c.923 3.14 4.433 5.54 4.433 8.127 0 2.586-5.542 15.33-15.885 31.77-10.344 16.438-14.592 29.367-29.184 30.106-14.591.739-19.024-4.987-24.566-10.159-5.54-5.171-25.304-39.342-54.303-52.271-28.999-12.93-63.19-.893-82.748 9.974-30.983 17.213-61.543 75.975-102.512 79.423-9.957.838-20.502-10.159-19.579-15.515.924-5.357 4.248-13.853 20.872-29.553 16.623-15.7 20.318-26.044 21.98-31.4 1.662-5.356-1.108-15.7-1.108-15.7s2.586.37 3.51 1.847c.923 1.478 2.585 3.325 2.585 3.325s1.293-2.956 1.293-5.726-3.694-14.407-3.694-14.407 21.98 5.541 23.457 5.172c1.478-.37 13.115-8.866 13.115-8.866s-5.357 1.477-8.497.739c-3.14-.74-8.681-7.573-8.681-7.573s5.541 2.216 8.866 2.4c3.325.185 9.235-6.649 9.235-6.649s-8.127.185-11.452.185c-3.324 0-10.343-1.293-10.343-1.293s7.203-1.847 10.343-3.14c3.14-1.293 9.974-7.758 9.974-7.758l-13.668-6.464s5.541-4.618 7.573-7.388c2.032-2.771 3.879-4.803 3.879-4.803s-5.356.554-10.528-.185c-5.172-.738-8.497-3.509-8.497-3.509s3.325.37 6.834-1.108c3.51-1.478 5.726-4.064 5.726-4.064s-7.942-3.324-11.082-3.324c-3.14 0-8.312 2.585-8.312 2.585s6.28-6.649 6.465-9.42c.185-2.77-.739-7.942-.739-7.942s-.37 6.65-1.847 8.127c-1.478 1.478-3.879 2.586-4.618 2.586-.738 0 1.478-3.14.74-6.834-.74-3.694-7.39-9.605-7.39-9.605s2.956 7.388 2.772 10.344c-.185 2.955-7.02 15.884-12.745 15.146-5.726-.74-12.006-20.503-20.872-21.057-8.866-.554-7.573 2.586-7.573 2.586s-1.108-6.65-2.77-8.681c-1.663-2.032-4.249-4.618-4.249-4.618s-.61 7.887-.61 10.472c0 2.586-1.953 8.81-1.953 8.81l-3.347 7.5s-6.65-6.095-12.376-16.808c-5.725-10.713-7.018-9.974-6.649-15.146.37-5.171-7.019-16.992-8.681-16.992-1.662 0-2.401-4.433-4.803-7.943-2.4-3.51-8.68-5.172-8.68-5.172s4.986 5.172 4.986 9.236c0 4.063 0 4.617-1.293 5.54-1.293.924-12.005-.553-11.82.924.184 1.478 5.54 5.726 5.54 7.389 0 1.662-4.432 1.662-7.757 2.955-3.325 1.293-6.28 5.172-6.28 6.095 0 .924 5.356 3.694 4.987 5.91-.37 2.217-10.344 7.758-10.898 9.79-.554 2.032 4.248.185 4.064 2.401-.185 2.217 8.68 7.758 10.159 7.389 1.477-.37 4.063-.37 4.617.738.554 1.109-.184 3.88.37 6.096s5.725 8.496 8.865 11.082c3.14 2.586 25.86 11.452 24.751 27.152-1.108 15.7-9.79 12.745-12.375 12.375-2.586-.37-16.624-16.623-28.814-16.808-12.19-.185-12.376 2.401-17.732 2.032-5.357-.37-4.802-.554-8.497-6.28z" fill="#00386a" fill-rule="evenodd" stroke="#000" stroke-width="1pt" transform="matrix(.17243 0 0 .0649 343.275 95.324)"/><path d="M386.443 108.943c-1.493.53-1.322.385-2.005.385a3.082 3.082 0 0 1-1.408-.337c-.213-.113-.17-.209-.426-.225a4.66 4.66 0 0 0-.597.016s-.043-.225.17-.353c.214-.129.725-.29 1.323-.29.597 0 1.322.226 1.45.386.128.16.128.385.426.385.299 0 1.067.033 1.067.033z" fill="#fff" fill-rule="evenodd"/><path d="M500.696 344.667c14.348 5.937 42.55 10.39 51.455 12.369 8.906 1.979 24.738 2.968 31.665 12.863 6.926 9.896 5.442 14.843 5.442 14.843m-35.128 5.443c11.38-2.474 28.696-2.969 28.696-2.969m-12.863 21.769c8.905-4.452 18.306-17.316 18.306-17.316m.494 25.727c2.969-12.863 3.958-31.17 3.958-31.17m2.474-.989c13.854 11.874 15.338 25.727 15.338 25.727m-11.874-30.18c17.81-4.453 25.727-14.348 25.727-14.348m-55.413-97.962c8.411-28.696 25.728-29.686 32.16-31.665 6.431-1.979 33.643-7.916 38.59-11.874 4.948-3.958 15.338-11.38 20.286-19.296 4.947-7.916 6.926-11.874 6.926-11.874s-.99 19.296-4.947 27.707c-3.958 8.41-18.801 20.285-27.212 23.253-8.41 2.969-22.759 7.422-30.675 8.906-7.916 1.484-13.359 2.969-18.8 8.906-5.443 5.937-19.791 50.465-19.791 50.465M465.074 326.36c-17.812 2.97-14.348 12.864-17.317 20.78-2.969 7.917-3.463 11.38-10.39 14.348-6.927 2.969-14.348 4.453-14.348 4.453m44.034-41.065c1.979 12.864 18.8 22.264 18.8 22.264m-7.421-27.706c-.495 11.874 14.348 28.201 14.348 28.201m-103.9-9.895c9.896 9.4 26.223 25.728 26.223 25.728m3.463-32.16c1.485 16.822 1.98 26.222 0 30.675l-1.979 4.453m-35.127 15.832c14.347-1.484 17.316-2.473 20.78-5.442 3.463-2.969 11.873-7.421 11.873-7.421m5.443.495c4.453 19.295 17.316 23.253 17.316 23.253m-61.845-34.138c16.328 5.937 32.16 6.432 32.16 6.432m-153.376 30.18c8.411 9.895 26.717 20.78 26.717 20.78m-35.128-.99c19.79 3.464 23.254 4.948 29.686 4.948 6.432 0 8.906-.99 8.906-.99m34.633 4.948c-10.885 1.484-24.243-.99-24.243-.99m-28.696 25.727c6.926-6.431 13.853-13.852 16.821-17.316 2.969-3.463 1.485-6.926 1.485-6.926m-28.696 12.369c12.369-1.485 17.811-3.958 20.78-6.927 2.968-2.969 5.937-6.927 5.937-6.927M236.99 179.17c5.442 1.731 10.39-4.453 13.853-3.711 3.463.742 4.453 8.906 8.163 11.627 3.711 2.721 3.959 3.71 6.432 4.205 2.474.495 4.948-.247 4.948-.247s-4.206 5.69-6.185 7.174c-1.979 1.484-6.679.742-8.163 3.71-1.484 2.97-3.463 5.443-3.463 5.443s3.215-4.7 5.442-4.453c2.226.248 10.637 6.185 13.111 9.153 2.474 2.969 4.205 5.195 4.205 5.195s-4.7-.495-8.41.248c-3.711.742-7.422 2.72-11.133 2.473-3.71-.247-7.42-1.237-7.42-1.237s4.7 6.432 6.184 9.896c1.484 3.463-.248 4.947.99 6.926 1.236 1.98 2.72 2.227 2.72 2.227s-9.648-.248-14.595-.742c-4.948-.495-13.606-2.969-13.606-2.969s3.71 9.648 3.463 15.09c-.247 5.443-.494 12.122-.494 12.122l-11.133-4.948c-6.679-2.968-7.916-1.237-12.863-5.195-4.948-3.958-.495-2.721-9.895-10.142-9.4-7.422-18.06-8.164-21.275-8.164-3.216 0-7.916 1.237-10.39.495-2.474-.742-6.68-5.442-6.68-5.442m37.108-77.43c-.495-6.927 3.71-6.185 5.69-6.68 1.978-.494 5.937 2.969 5.937 5.938 0 2.968-6.432 4.205-6.432 4.205s4.7 1.98 5.195 4.205c.494 2.227.99 6.68 1.731 7.67.742.989 2.721 2.968 2.721 2.968m-9.895 17.564c5.937-7.669 13.359-8.906 13.359-8.906m-6.432 15.338c1.237-7.917 9.895-10.39 9.895-10.39m-.989 13.606c.742-8.659 8.163-8.659 8.163-8.659m26.964 79.657c-8.41 15.832-14.348 21.274-20.285 25.727-5.937 4.453-32.654 14.843-38.096 48.981-5.442 34.139 32.654 43.539 41.56 44.034 8.905.494 26.717-1.98 26.717-1.98" style="marker:none" font-size="12" font-weight="100" font-stretch="ultra-condensed" letter-spacing="0" fill="none" stroke="#fff" stroke-width="2.5" font-family="Bitstream Vera Sans" transform="matrix(.17243 0 0 .0649 343.275 95.324)"/><path d="M313.677 356.046c13.359-12.369 63.824-72.73 94.005-73.224 30.18-.495 53.434 22.264 58.381 31.17 4.948 8.905 8.411 13.358 8.411 13.358m-165.25 12.37c-5.937 17.316-4.947 25.232-4.452 29.685.494 4.452 11.874 18.306 11.38 21.769-.496 3.463-8.907 8.906-13.36 15.832-4.452 6.927-6.431 13.359-6.431 13.359m-30.675-54.424c2.968 11.875 10.39 16.822 13.358 20.78 2.969 3.958 9.4 11.38 8.906 17.812-.495 6.431-2.474 12.863-2.474 12.863m-96.478-73.719c-16.822 6.927-13.358 17.811-16.327 20.285-2.969 2.474-8.41-3.958-19.296-7.916-10.884-3.958-15.832-5.442-15.832-5.442" style="marker:none" font-size="12" font-weight="100" font-stretch="ultra-condensed" letter-spacing="0" fill="none" stroke="#fff" stroke-width="2.5" font-family="Bitstream Vera Sans" transform="matrix(.17243 0 0 .0649 343.275 95.324)"/><path d="M389.557 110.387c1.024.161 1.92.675 2.346.867.426.193 1.877.69 3.54.9 1.664.208 2.73.545 4.692.545 1.963 0 2.603-.064 2.56-.45-.043-.385-.64-.625-.981-.625-.341 0-.086.16-.683.16-.597 0-1.663.097-2.431-.064-.768-.16-2.815-.562-3.925-.915-1.109-.353-1.492-.723-3.412-.77-1.92-.049-1.792.128-1.706.352zm-4.777-2.857s-.513.144-1.152.016c-.64-.129-.81-.353-.768-.61.042-.257.426-.337.98-.354.555-.016 1.153.177 1.067.37-.085.192-.597.417-.128.578z" fill="#fff" fill-rule="evenodd"/><path d="M206.81 199.207c-8.164-3.215-12.122-7.42-14.349-10.142-2.226-2.721-4.453-6.68-5.195-11.38-.742-4.7 0-7.174.99-9.4s2.721-2.474 2.721-2.474" style="marker:none" font-size="12" font-weight="100" font-stretch="ultra-condensed" letter-spacing="0" fill="none" stroke="#fff" stroke-width="2.5" font-family="Bitstream Vera Sans" transform="matrix(.17243 0 0 .0649 343.275 95.324)"/><path d="M367.17 101.572a4.6 3.31 0 1 1-9.2 0 4.6 3.31 0 1 1 9.2 0zm17.232 7.018a.69.29 0 1 1-1.378 0 .69.29 0 1 1 1.378 0zm.171-1.494a.69.29 0 1 1-1.379 0 .69.29 0 1 1 1.379 0z" fill="#e6170f" fill-rule="evenodd"/><path d="M377.321 106.566a.519.21 0 1 1-1.037 0 .519.21 0 1 1 1.037 0zm1.451-1.3a.519.21 0 1 1-1.038 0 .519.21 0 1 1 1.038 0z" fill="#fff" fill-rule="evenodd"/><path d="M634.611 217.696c-1.656-17.398 8.285-46.395 8.285-46.395m.829 43.081c0-24.026 8.284-48.052 8.284-48.052m.829 36.453c-.829-19.055 13.255-48.88 13.255-48.88m-1.656 38.11c.828-16.57 20.711-40.595 20.711-40.595m-99.263 112.326c12.294-4.24 14.414-3.816 18.654-2.544 4.239 1.272 13.566 4.24 13.566 4.24m-19.925-10.599c11.87 0 15.261 4.24 19.5 4.24 4.24 0 11.871-1.272 15.263-.424 3.391.847 5.51 1.695 5.51 1.695m-6.783-12.294c5.936 2.968 12.295 4.24 16.958 3.815 4.664-.423 17.382-2.543 17.382-2.543m-13.99-12.294c6.359 2.543 25.436-3.816 25.436-3.816m-14.838-3.815c9.751-2.544 18.23-14.838 18.23-14.838" style="marker:none" font-size="12" font-weight="100" font-stretch="ultra-condensed" letter-spacing="0" fill="none" stroke="#fff" stroke-width="1.25" font-family="Bitstream Vera Sans" transform="matrix(.17243 0 0 .0649 343.275 95.324)"/><path d="M391.178 108.445c0-.402 1.109-.321 1.62-.241.512.08 1.835.321 2.773.433.939.113 2.944.45 4.138.53 1.194.08 2.602.032 3.156.113.555.08 1.024.369.854.61-.171.24-.854.385-2.346.369-1.493-.016-3.584-.37-5.631-.706-2.048-.338-2.474-.241-3.37-.45-.896-.209-1.28-.24-1.194-.658z" fill="#fff" fill-rule="evenodd"/><path d="M245.816 188.225c4.01-2.808 4.812-3.61 6.55-3.209 1.738.401 4.812 2.941 4.812 2.941m-11.629 5.481c7.218-4.144 10.827.802 10.827.802m-11.496 5.079c3.877-2.54 11.496 1.604 11.496 1.604m-8.555 2.54c6.15-.669 8.956 5.213 8.956 5.213" style="marker:none" font-size="12" font-weight="100" font-stretch="ultra-condensed" letter-spacing="0" fill="none" stroke="#fff" stroke-width="2.5" font-family="Bitstream Vera Sans" transform="matrix(.17243 0 0 .0649 343.275 95.324)"/><g fill="none" stroke="#fff" stroke-width=".5"><path d="M292.202 339.178c5.914 8 14.61 16.35 14.61 16.35m14.611-45.918c4.522 12.523 14.61 20.176 14.61 20.176M329.076 303c6.261 14.263 13.218 22.264 13.218 22.264m-8.348-27.829c4.522 8.349 14.61 21.22 14.61 21.22m-9.392-27.134c17.74 22.611 13.914 22.263 13.914 22.263m-9.044-28.524c6.957 9.392 14.61 22.61 14.61 22.61m71.311-21.219c14.262-4.87 17.045-19.48 17.045-19.48m-29.22-8.349c12.87 17.046 16.697 27.83 16.697 27.83m-77.92 26.088c2.087-24.697 7.653-39.655 7.653-39.655m8-4.523c-1.739 18.785-1.391 29.916-1.391 29.916m13.566-35.829c-2.435 12.87-3.826 26.785-3.826 26.785m10.088-6.261c6.261-14.263 7.653-22.263 7.653-22.263m8-1.74c-1.739 14.958-1.739 21.568-1.739 21.568m14.61-20.524c-2.435 13.566-5.565 21.915-5.565 21.915m25.741 6.609c7.653-4.87 17.393-14.61 17.393-14.61m-9.392 19.132c17.74-10.783 19.828-12.175 19.828-12.175m-14.61 17.393c19.48-4.174 23.307-8 23.307-8m-11.132 21.915c14.958-1.74 25.394-4.522 25.394-4.522m-342.99 58.788c2.435-10.088 2.087-11.827 2.087-11.827m1.391 14.61c6.958-11.48 6.958-10.088 6.958-10.088m2.435 2.087c12.175 24.698 12.87 22.959 12.87 22.959m-2.782-22.611c10.088 20.524 12.523 20.176 12.523 20.176m-7.653-26.437c21.567 20.175 22.958 25.741 22.958 25.741m-36.177 2.087c20.872-9.392 26.437-22.958 26.437-22.958m-12.522 24.35c10.783-7.305 17.392-16.698 17.392-16.698m-37.916 5.914c29.22-21.915 29.568-20.176 29.568-20.176m166.973-74.442c4.174 8 14.958 21.915 14.958 21.915m-6.958-26.785c5.914 9.044 16.698 21.567 16.698 21.567m-9.74-26.437c8.696 14.262 14.262 20.524 14.262 20.524m-2.783-24.003c7.653 10.088 11.827 19.48 11.827 19.48m-.348-23.306c8.349 17.74 10.088 21.22 10.088 21.22m-2.087-24.003c7.305 13.219 11.827 23.307 11.827 23.307m-.695-22.959c7.653 20.176 10.088 22.61 10.088 22.61m2.782-.695c10.436-13.914 13.567-18.436 13.567-18.436m.347.695c13.567 31.308 18.09 36.178 18.09 36.178m-6.262-32.003c21.567 28.872 25.742 49.744 25.742 49.744" transform="matrix(.17243 0 0 .0649 343.275 95.324)"/><path d="M463.35 276.563c19.132 27.83 28.524 61.572 34.09 65.746 5.566 4.174 12.175 8 12.175 8m-25.394-18.784c53.57-3.478 74.79-4.174 74.79-4.174m-72.007 9.044c54.266.696 88.704 0 88.704 0" transform="matrix(.17243 0 0 .0649 343.275 95.324)"/><path d="M498.136 344.744c50.092-.696 42.786.348 55.657.348 12.871 0 28.873.695 28.873.695M460.219 306.48c34.438-8.35 26.785-5.219 26.785-5.219m-11.479 24.351c13.566-5.914 26.437-5.566 26.437-5.566m-5.218-5.218c10.088 20.176 19.133 34.438 19.133 34.438m1.739-20.872c9.392 19.828 16.697 23.655 16.697 23.655m-4.87-27.829c7.653 19.132 19.828 32.003 19.828 32.003m-11.827-37.221c17.045 28.873 25.741 40.7 25.741 40.7" transform="matrix(.17243 0 0 .0649 343.275 95.324)"/><path d="M545.445 310.306c17.045 29.916 36.177 47.657 37.569 53.222l1.739 6.957m-25.394-84.877c5.566 5.913 11.132 12.87 11.132 12.87m-28.177 16.35c11.131 1.043 22.61 1.043 22.61 1.043m-16.696-12.522c18.088-2.783 20.523-1.74 20.523-1.74m-12.523-12.175c12.175-.348 18.437-4.522 18.437-4.522m-11.827-8.697c11.131-.347 14.958-1.391 14.958-1.391m-1.392 60.18c2.783 10.088 17.393 29.22 18.437 35.134 1.043 5.913.695 9.74.695 9.74" transform="matrix(.17243 0 0 .0649 343.275 95.324)"/><path d="M520.399 352.049c50.787-1.044 42.786.348 49.048 1.043 6.261.696 27.829 1.74 27.829 1.74m-18.785 7.653c17.045 3.826 20.524 6.261 20.524 6.261m-46.961-70.268c5.566 9.045 12.87 16.35 12.87 16.35m1.044-42.439c6.61 10.088 7.305 11.48 7.305 11.48m-116.881 45.569c12.871 24.35 21.22 26.09 21.22 26.09m-48.701 8.696c10.088 8 10.436 5.566 10.436 5.566m-1.043 1.043c4.522-6.609 29.22-36.525 29.22-36.525m-6.609 37.222c8-6.61 21.567-23.655 21.567-23.655m-33.395-5.566c9.045 4.87 21.568 19.48 21.568 19.48m-28.177-3.479c9.392 9.045 18.784 16.35 18.784 16.35m-23.654-13.567c6.957 8.349 10.088 11.828 10.088 11.828m-2.087-18.437c13.566 10.088 18.784 13.566 18.784 13.566m-16.001 2.435c16.697-10.435 27.133-27.48 27.133-27.48m98.792-82.791c4.522 3.478 6.957 7.653 6.957 7.653m-1.391-17.741c16.35 1.74 31.307-4.522 41.047-7.305 9.74-2.783 22.263-5.218 22.263-5.218m-55.657 5.914c18.784-2.088 40.351-10.784 46.265-10.784 5.914 0 21.22-5.218 21.22-5.218m-12.176-4.175c4.523-.695 16.002-1.39 16.002-1.39l1.044-1.044m-7.653-5.914c8.348.348 10.435-2.435 10.435-2.435m-73.746 30.96c2.783 9.044 3.479 10.088 3.479 10.088m-14.263-1.74l6.262 7.653m12.523-20.524c2.783 9.74 6.261 13.567 6.261 13.567m4.871-17.741c3.826 10.088 4.87 13.567 4.87 13.567" transform="matrix(.17243 0 0 .0649 343.275 95.324)"/><path d="M617.104 232.385c7.305 11.48 7.653 12.175 7.653 12.175l.348 1.044m1.043-16.002c10.088 13.219 8.697 11.827 8.697 11.827m2.087-16.349c6.261 6.261 9.044 9.74 9.044 9.74m2.435-15.306c6.957 3.827 8.001 5.218 8.001 5.218m-371.515 38.613c-3.478-4.523-8.696-4.175-13.914-7.305-5.218-3.131-11.132-13.567-11.132-13.567m1.044.696c9.044 21.567 6.957 33.742 6.957 33.742m-13.218-9.74c9.392-1.74 9.392 10.088 11.131 13.914 1.74 3.827 4.87 13.915 4.87 13.915m-20.871-17.741s4.87 14.262 6.957 18.089c2.087 3.826 4.87 9.392 4.87 9.392m-19.481-18.785c-.347 11.132 8.35 28.525 8.35 28.525m-17.394-19.828c1.044 8.349 8.697 29.22 8.697 29.22m-17.393-21.915c2.783 25.046 22.959 81.747 22.959 81.747m-31.308-76.181c.348 21.22 20.524 75.833 20.524 75.833m-29.916-65.05c2.435 26.438 14.61 61.224 14.61 61.224m-23.307-48.353c2.435 22.96 10.436 39.656 10.436 39.656m73.747-103.662c-6.262 4.522-82.791 61.223-82.791 61.223" transform="matrix(.17243 0 0 .0649 343.275 95.324)"/><path d="M276.549 287.695c-36.873 25.394-76.877 52.527-77.92 54.614-1.044 2.087-1.044 2.435-1.044 2.435m0 6.957c5.565-1.391 43.482-27.133 43.482-27.133m-38.612 38.265c6.609-1.74 36.525-20.176 36.525-20.176m-27.481 32.699C227.5 367.355 250.11 351.7 250.11 351.7m-25.74 30.96c9.74-5.913 41.395-30.263 41.395-30.263M245.241 384.4c13.567-9.044 12.871-9.392 12.871-9.392m6.958-21.916c5.913 6.61 12.174 27.134 16.349 31.308 4.174 4.174 17.393 25.046 17.393 25.046m-21.915-58.093c3.478 8.001 27.48 45.222 27.48 45.222m-19.827-50.44c4.522 8.349 20.871 26.438 20.871 26.438m-.696-44.526c3.827 9.74 11.48 22.61 11.48 22.61m-5.914-26.089c4.87 8.696 12.523 18.784 12.523 18.784m-7.653-26.437c12.523 19.132 13.915 21.22 13.915 21.22m-49.396 11.827c-5.914 11.827-9.74 17.74-9.74 17.74m18.088-25.045c-4.87 24.35-10.784 34.09-10.784 34.09m4.523 8.349c14.262-37.57 17.393-52.18 17.393-52.18m-13.219 61.224c16.002-15.654 20.524-51.831 20.524-51.831m-17.393 60.527c9.74-14.61 13.914-26.785 13.914-26.785m-8.349 30.612c13.22-16.697 16.35-25.046 16.35-25.046m.348-59.832c-4.175 19.132-4.522 19.828-4.522 19.828m12.523 10.088c8-29.568 2.435-40.7 2.435-40.7m7.653 25.742c5.913-30.96 4.522-40.7 4.522-40.7m5.565 32.004c.696-8.001 4.523-41.048 4.523-41.048m10.088-6.609c-5.914 31.655-7.305 40.7-7.305 40.7m-98.083 30.782c1.334 9.731 5.988 22.845 9.55 30.338" transform="matrix(.17243 0 0 .0649 343.275 95.324)"/></g><path d="M187.248 339.726c1.189 30.316 16.05 41.016 16.05 41.016m-67.239-26.18c.99 11.38-2.969 13.853-3.958 17.811-.99 3.958 2.968 8.411 2.968 8.411m-47.497-41.56c17.317 4.453 14.843 7.916 19.79 8.411 4.948.495 18.307.495 18.307.495m-18.306-32.654c2.474 13.853 17.316 25.233 17.316 25.233m3.464-33.149c-2.474 16.327 1.484 30.675 1.484 30.675m5.937.495c14.843-11.875 19.79-24.738 19.79-24.738m112.788 69.451c-15.195-19.663-9.832-30.39-9.832-30.39" style="marker:none" font-size="12" font-weight="100" font-stretch="ultra-condensed" letter-spacing="0" fill="none" stroke="#fff" stroke-width="2.5" font-family="Bitstream Vera Sans" transform="matrix(.17243 0 0 .0649 343.275 95.324)"/><path d="M452.453 304.115h163.556l94.88 198.035H427.58l24.872-198.035z" opacity=".8" fill="#333"/><path d="M480.539 316.382h117.26l65.243 169.8H465.671l14.868-169.8z" opacity=".8" fill="#fffaf0" stroke="peru" stroke-width="1.758" stroke-linecap="square" stroke-linejoin="round" stroke-dashoffset="1.061"/><path d="M487.737 325.06h104.909l58.372 151.915H474.435l13.302-151.915z" opacity=".8" fill="#fffaf0" stroke="peru" stroke-width="1.615" stroke-linecap="square" stroke-linejoin="round" stroke-dashoffset="1.061"/><path d="M482.096 471.57c.016-3.253 2.23-4.743 5.254-6.512 1.707-1.197 1.819-2.038 1.95-3.675.162-1.008-1.732-2.047-2.753-1.991-.736-.026-.233-.194-1.284.331 1.541.444 2.2 1.812 2.567 2.697.36.566-.776 1.255-.945.46-.504-.949-1.348-1.842-2.494-2.294-.36.344-.3.251-.386.687 1.068.479 3.2 2.912 1.848 3.844-.534.628-.945-2.188-2.429-2.363-.426.908-.075 1.517-.262 2.131.288.571-.835 1.439-1.21.263-.094-2.348.522-5.766 4.057-6.8.176-.902.074-.7.114-1.29-4.309.222-2.792-4.246-1.495-3.287.25.816-.638 2.546 1.601 2.089.118-.435-.054-.649.118-1.338-.77-.286-1.598-.969-1.173-2.17-1.949-.042-2.82-1.262-.915-1.093 2.422-.016 4.848.01 7.264.107 1.37.255-.282 1.315-1.027.834-.372 1.984-.916 2.332-2.25 2.4-.114.462-.133.76-.122 1.382 1.848.128 1.79-.645 2.234-1.877 1.477-.476 1.282 1.667.61 2.275-1.022.904-1.813.39-2.949.782-.005.256.06.494-.092 1.05 3.48 1.132 3.128 2.89 2.348 5.476-.45 1.24-1.702 2.592-3.223 3.201-1.183.551-4.014 3.102-3.82 3.915.194.812-.618 1.857-1.136.765zm6.827-19.338s-2.293-.108-2.404-.041c-.412 1.73 2.627 2.036 2.404.041zm8.526 19.946c.096-.1-.298-3.717-5.509-5.487-1.382-.638-.665-7.181.547-9.818.76-.983 2.313-.51 3.515-.747 1.389-.013 1.28-1.14.414-1.549-1.036-.183-3.145-.088-3.266-.648-.156-.714-.438-5.263 1.305-4.516l-.025 1.323c3.868.227 4.971-.093 4.805.918.006.629-3.306.24-4.716.23l-.123 1.13c.424.73 2.676.128 3.79.684.799.705.45 1.768.351 2.636-.829 2.22-3.459.01-4.876 1.895 1.32.94 3.672 1.33 4.894 1.981.664 1.14-3.895.024-4.993-.858l-.093 1.05c.85.954 5.397 1.839 5.146 2.39.025 1.021-3.563-.233-5.258-1.122l-.095 1.069c1.103.838 4.416 1.717 5.473 1.972.735 1.79-3.75.237-5.585-.696-.429.874.246 1.55.996 1.777 2.616 1.277 3.458 2.009 4.255 4.406.26.835.665 2.037-.952 1.98zm-12.46-22.074c-.628-.826 6.592-.674 6-.26.249.857-5.881.751-6 .26z" fill="#d40000"/><path d="M580.218 338.753c28.074 51.05 35.57 103.985 39.51 122.01-.208.063-2.238-.23-2.238-.23l3.448 7.42 3.383-7.969s-2.303.874-2.405.877c-8.344-50.646-23.406-95.726-41.698-122.108z" fill="#d40000" fill-rule="evenodd"/><path d="M559.517 350.08c23.215 52.53 20.525 92.447 22.353 110.895-.208.062-2.45-.442-2.45-.442l3.448 7.42 3.383-7.969s-2.302.874-2.405.877c-1.078-43.563-7.547-78.2-24.329-110.78z" opacity=".5" fill="#d40000" fill-rule="evenodd"/><path d="M543.113 362.53c5.981 52.306 5.466 69.38 4.25 99.378-.182.049-2.103-.44-2.103-.44l2.794 6.486 3.113-6.794s-2.008.698-2.097.698c1.483-29.536 2.22-52.641-5.957-99.328z" opacity=".2" fill="#d40000" fill-rule="evenodd"/><path d="M519.65 378.961c1.258 42.961 1.69 56.68.32 83.924.152.04 1.763-.37 1.763-.37l-2.342 5.439-2.61-5.697s1.683.586 1.757.586c1.147-27.156 1.126-42.645 1.112-83.882z" opacity=".15" fill="#d40000" fill-rule="evenodd"/><path d="M494.06 391.508c-.832 40.87-.7 44.132-2.07 71.377.153.04 1.764-.37 1.764-.37l-2.343 5.439-2.61-5.697s1.684.586 1.758.586c1.147-27.156 1.126-30.994 3.502-71.335z" opacity=".1" fill="#d40000" fill-rule="evenodd"/><path d="M498.01 320.322h85.473v10.713H498.01z"/><path d="M497.515 316.407h82.246l3.696 3.683h-85.52l-.422-3.683z" fill="#333"/><path d="M497.26 316.576l.214 10.749.342 3.682-.002-10.748-.554-3.683z" fill="#666"/><path d="M225.61 232.851c-8.41-6.184-16.822-16.574-22.511-18.553-5.69-1.98-18.554-6.185-27.212-5.937-8.658.247-18.801.494-19.048 3.463-.248 2.968 3.216 5.442 7.916 5.69 4.7.247 14.348-.495 20.038 1.484 5.69 1.979 11.874 6.432 14.842 11.132 2.969 4.7 7.916 16.08 7.916 16.08l13.112-2.474 4.947-10.885z" fill="#e5170f" fill-rule="evenodd" stroke="#000" stroke-width="1pt" transform="matrix(.05975 0 0 .02249 518.383 320.009)"/><path style="marker:none" d="M549.855 411.653c-6.539-21.4 4.161-24.967 4.161-24.967l11.889 4.756s-14.267 10.7-16.05 20.21zm24.372 13.077c-12.483-4.16-14.861-17.238-10.106-19.022 4.756-1.783 10.7 1.784 10.7 1.784s-4.16 5.944-.594 17.238zm27.938 1.784c-8.322 2.378-19.616 1.783-17.833-8.917 1.784-10.7 11.295 7.728 17.833 8.917zm4.755-14.861c2.379 10.105 7.729 7.728 11.89 7.133 4.16-.594 7.727-7.133 7.727-7.133s-8.916 2.378-12.483 0c-3.566-2.378-7.133 0-7.133 0zm18.428-39.233c5.945 8.917 3.567 11.889.595 13.672-2.972 1.783 7.728 1.189 7.133-7.728-.594-8.916-3.566-13.672-3.566-13.672l-4.162 7.728zm-251.447 5.35c-8.322-9.511-4.16-19.617 0-20.211 4.161-.594 4.161 8.917 4.161 8.917s-4.755.594-4.755 5.35c0 4.755.594 5.944.594 5.944zm7.728 23.183c-6.539-5.35-7.728-14.267-4.755-16.644 2.972-2.378 8.916-3.567 8.916-3.567l5.944 7.728s-11.294 2.972-10.105 12.483zm-4.755-54.093c1.783-13.079 13.672-16.645 14.86-12.484 1.19 4.161 4.162 8.322 4.162 8.322l-6.54 4.756s-8.321-5.945-12.482-.595zm29.127-16.645c10.7-2.378 13.672-4.756 15.455.594 1.784 5.35.595 15.456.595 15.456l-5.35-2.378s-1.189-14.267-10.7-13.672zm14.266 73.115c16.645-2.377 16.05-8.916 16.05-8.916l4.756 8.917s-12.483 5.944-20.806 0z" transform="matrix(.05975 0 0 .02249 518.383 320.009)" font-size="12" font-weight="100" font-stretch="ultra-condensed" letter-spacing="0" fill="#fff" fill-rule="evenodd" stroke="#838287" stroke-width="1pt" font-family="Bitstream Vera Sans"/><path d="M133.154 305.843c-.594-6.539-8.322-9.511-11.889-9.511-3.566 0-5.944 4.755-5.944 4.755s3.567 2.973 7.133 4.756c3.567 1.783 10.7 0 10.7 0zm-21.994 11.294c-2.972-6.539-7.133-8.322-11.889-8.322-4.755 0-7.133 5.944-7.133 5.944s5.944 1.784 8.916 1.784c2.973 0 10.106.594 10.106.594zm-21.4 19.023c-7.133-1.784-9.51 5.35-10.7 8.321-1.189 2.973 1.784 8.917 1.784 8.917l5.944-7.133h7.728l-4.756-10.106zm60.633-29.128c3.566-5.35-.595-11.889-.595-11.889s10.106 3.567 9.511 11.294c-.594 7.728-2.972 11.89-2.972 11.89l-5.944-11.295zm-32.1 84.41c7.133-1.189 7.133-1.783 10.106-4.756 2.972-2.972 2.972-6.538 2.972-6.538l5.35 4.755s-.595 5.945-5.35 7.133c-4.756 1.19-8.917 2.973-13.078-.594z" transform="matrix(.05975 0 0 .02249 518.383 320.009)" fill="#fff" fill-rule="evenodd" stroke="#838287" stroke-width="1pt"/><path style="marker:none" d="M245.503 434.241c-8.917-13.672-3.567-19.022-.595-19.616 2.973-.594 6.54 4.756 6.54 4.756s-7.729 6.538-5.945 14.86zm7.727 19.617c-9.51-8.917-5.35-19.022.595-19.022 5.944 0 10.105 4.755 4.755 10.105-5.35 5.35-5.35 3.567-5.35 8.917zm27.345 11.294c-7.134-7.727-7.134-14.86-7.134-14.86l-9.51.594s-2.378 9.51 2.972 11.888 10.105.595 13.672 2.378zm39.233-21.4c4.16-3.566 4.16-7.133 4.16-10.105 0-2.972-4.16-10.105-4.16-10.105l5.944-2.378s4.755 10.105 2.972 14.86c-1.783 4.756-5.35 5.945-8.916 7.728zm-70.144-43.393c-4.161-2.378-9.511 7.727-9.511 7.727s-1.783-9.51 1.783-12.483c3.567-2.972 10.106-2.972 11.889-.594 1.783 2.377 2.378 7.727 2.378 7.727l-6.54-2.377z" transform="matrix(.05975 0 0 .02249 518.383 320.009)" font-size="12" font-weight="100" font-stretch="ultra-condensed" letter-spacing="0" fill="#fff" fill-rule="evenodd" stroke="#838287" stroke-width="1pt" font-family="Bitstream Vera Sans"/><path style="marker:none" d="M585.885 355.739c-.848-9.327 1.696-16.11 3.816-17.806 2.12-1.695 4.663-5.935 4.663-5.935s2.968 6.783 2.12 8.479c-.848 1.696 3.391-2.968 5.935-3.815 2.544-.848 3.815-3.392 3.815-3.392s-1.271 5.935-1.271 9.327c0 3.391-.424 5.51-.424 5.51s2.967-3.815 4.663-3.815c1.696 0 0 8.48-1.696 10.599-1.696 2.12-12.718 10.174-12.718 10.174l-8.903-9.326zm-139.9 17.381c6.783 6.36 9.75 5.088 10.175 8.055.423 2.968.423 6.783.423 6.783s5.936-6.359 8.903-6.359c2.968 0 6.783 4.24 6.783 4.24s-2.967-5.936-2.967-8.48c0-2.543 7.63-.847 7.63-.847s-.847-3.392-5.935-4.24c-5.087-.847-13.566-2.12-13.566-2.12l-11.446 2.968zm-128.454 22.893c6.783 2.544 15.686 2.968 15.686 2.968v-7.631c0-2.544 6.783-5.935 6.783-5.935s-6.783-6.36-9.75-5.936c-2.968.424-5.512 3.392-5.512 3.392s-.848-1.696-.848-5.087c0-3.392.424-5.935.424-5.935s-2.12 3.815-4.24 6.359c-2.119 2.543-10.174 6.783-10.174 6.783l7.631 11.022z" font-size="12" font-weight="100" font-stretch="ultra-condensed" letter-spacing="0" fill="#007137" fill-rule="evenodd" stroke="#006025" stroke-width="1pt" font-family="Bitstream Vera Sans" transform="matrix(.05975 0 0 .02249 518.383 320.009)"/><path d="M160.25 384.567c-1.272 5.511.423 14.838.423 14.838s2.12-.424 3.816-1.272c1.696-.848 2.12-3.392 2.12-3.392s.847 5.088 3.391 7.207c2.544 2.12 2.968 5.088 2.968 5.088s2.967-2.12 3.391-6.783c.424-4.664 0-7.631 0-7.631s1.696 2.543 4.24 2.12c2.543-.425 5.51 0 5.51 0s0-3.816-2.967-5.512c-2.967-1.696-8.479-5.087-8.479-5.087l-14.414.424z" fill="#007137" fill-rule="evenodd" stroke="#006025" stroke-width="1pt" transform="matrix(.05975 0 0 .02249 518.383 320.009)"/><path d="M213.88 154.394c.37-5.172 9.42-14.407 9.79-22.534.369-8.127-8.682-17.547-15.516-23.273-6.834-5.726-23.827-14.038-23.827-37.126 0-23.088-7.019-32.139-12.19-37.495-5.172-5.357-15.147-6.465-15.147-6.465s7.204 6.465 11.268 14.222c4.063 7.758 8.496 15.146 8.127 31.77-.37 16.623 6.834 26.597 9.42 29.553 2.585 2.955 15.7 14.407 19.209 17.547 3.51 3.14 7.019 7.388 6.465 10.159-.554 2.77-4.618 6.649-6.28 6.649-1.663 0-31.77 34.91-31.954 37.126-.185 2.216-2.586 12.93-15.885 12.745-13.299-.185-28.63-8.497-37.68-8.312-9.05.185-39.712 15.33-47.47 15.146-7.757-.185-15.515-2.217-19.209-3.88-3.694-1.661-12.19-7.572-12.19-7.572s4.063 6.465 8.127 9.235c4.063 2.77 5.54 6.834 22.903 6.096 17.362-.74 30.661-11.452 47.285-11.452 16.623 0 18.84 12.56 38.973 11.636 20.133-.923 23.827-15.884 25.304-16.254 1.478-.37 30.107-22.35 30.477-27.521z" fill="#00386a" fill-rule="evenodd" stroke="#000" stroke-width="1pt" transform="matrix(.05975 0 0 .02249 518.383 320.009)"/><path d="M281.518 268.969c4.948 5.442 7.916 11.874 8.41 14.348.496 2.473 0 5.937 0 5.937s-1.483-5.443-4.452-4.453c-2.969.99-2.474.495-2.474.495s1.485 8.41.99 10.39c-.495 1.979-1.98-1.485-1.98-1.485l.495 9.4s-2.473-1.978-4.452-2.968c-1.98-.99-4.948-.495-4.948-.495s1.484 7.917.99 10.885c-.495 2.969-2.474 7.421-2.474 7.421l-3.958-3.958-2.474-4.947v17.811s-3.958-4.453-7.916-4.947c-3.958-.495-9.895-.495-9.895-.495s4.452 3.958 7.421 5.442c2.969 1.484 4.948 1.98 4.948 1.98s-3.959 4.452-5.443 7.42c-1.484 2.97-5.442 3.464-5.442 3.464s7.421 0 10.885-2.969c3.463-2.968 5.442-6.432 5.442-6.432s2.474 6.927 3.463 8.906c.99 1.98 2.969 2.969 2.969 2.969s0-9.4 1.979-14.348 6.432-7.917 6.432-7.917.99 3.464 3.463 6.432c2.474 2.969 6.432 6.927 6.432 6.927s-.495-11.38.495-16.327c.99-4.948 4.947-9.4 4.947-9.4s0 4.947 3.958 6.926c3.958 1.98 5.443 2.969 5.443 2.969s-1.98-10.885-.495-15.833c1.484-4.947 4.453-6.431 4.453-6.431s.99 3.463 5.442 4.947c4.453 1.484 6.927 1.484 6.927 1.484s-2.474-5.442-1.485-10.39c.99-4.947 2.969-13.358 2.969-13.358s2.969 6.432 7.421 6.927c4.453.494 5.443.494 5.443.494s-.99-6.926-.99-13.358 2.969-9.4 2.969-9.4 2.474 7.42 5.442 8.905c2.969 1.484 7.421 2.969 7.421 2.969s-1.484-7.422-.494-13.854c.99-6.431 4.453-11.874 5.937-9.4s1.979 7.916 4.453 9.895a61.11 61.11 0 0 1 4.453 3.958s-2.474-4.947.494-12.369c2.969-7.421 6.927-10.884 6.927-10.884s.495 9.4 2.474 11.874 5.442 5.937 5.442 5.937-.99-6.927.99-12.37c1.979-5.441 8.41-9.894 8.41-9.894s-1.979 8.905-1.979 12.369c0 3.463 2.969 6.926 2.969 6.926l5.937-14.842c1.98-4.948 9.895-9.4 9.895-9.4s-.99 5.441-.494 7.915c.494 2.474.989 12.864 2.968 11.38 1.98-1.485 4.453-7.916 6.432-11.874 1.979-3.959 9.895-4.948 9.895-4.948l-.99 16.822s2.97-5.937 8.906-8.906c5.937-2.969 8.906-1.484 8.906-1.484l-.495 15.832s7.916-4.453 13.359-5.937c5.442-1.484 9.895-1.484 9.895-1.484s-7.422 2.968-8.906 7.421c-1.484 4.453-.495 4.948-.495 4.948s7.422-2.969 11.875-2.474l8.905.99s-5.937 4.947-5.442 8.41c.495 3.464 1.484 5.937 1.484 5.937s4.453-2.968 7.422-4.452c2.968-1.485 5.442-2.969 7.421-1.485 1.98 1.485-2.474 6.927-3.463 8.906l-2.474 4.948s2.968-1.98 6.927-1.485c3.958.495 9.4 1.98 9.4 1.98s-.99 4.452-2.474 7.915c-1.484 3.464-2.968 7.422-2.968 7.422l12.863-3.958s0 6.432-.494 8.905c-.495 2.474-2.474 6.432-2.474 6.432s4.453-.99 6.926-2.474c2.474-1.484 5.443-2.968 5.443-2.968s.99 4.453.99 7.421v3.958s4.452-6.431 3.463-9.895c-.99-3.463.494-6.432.494-6.432s6.432 4.453 8.906 6.432l4.948 3.958s0-6.926-1.485-9.895l-3.958-7.916s5.443 2.969 8.411 3.958c2.969.99 6.927.99 6.927.99s-5.443-4.948-5.443-9.4c0-4.454 1.485-7.917 1.485-7.917s3.463 2.474 7.421 2.474 4.453-.495 4.453-.495l-5.442-9.895s8.41-2.474 12.863-3.463c4.453-.99 10.39-3.959 10.39-3.959s-15.832 76.688-51.455 70.256c-35.622-6.432-49.97-68.771-98.952-70.75-48.98-1.98-125.174 103.9-162.775 99.941-37.602-3.958-29.686-33.644-24.738-47.497 4.947-13.853 38.096-48.486 38.096-48.486l12.864.495z" fill="#fff" fill-rule="evenodd" stroke="#6a6d6b" stroke-width="1.125" transform="matrix(.05975 0 0 .02249 518.383 320.009)"/><path d="M529.705 324.155l-.266.217.354-.017-.073.122.384-.022-.222.111.458-.044-.103.1.295-.061-.073.111.34-.061-.207.083.25-.016.03.133.414-.05-1.581-.606zm-1.936.923l.31-.189.103.122.193-.066.118.072.222-.072.133.078.28-.073.104.09s.118-.095.177-.062c.06.033.118.1.118.1l.281-.067.015.117-.4.073-1.654-.123z" fill="#fefefe" fill-rule="evenodd"/><path d="M154.783 219.374c-2.4 3.14-2.77 6.65-2.955 9.05-.185 2.401.924 6.834 0 9.236-.923 2.4-3.51 5.171-6.095 6.28-2.586 1.108 5.356 3.14 7.573 2.585 2.216-.554 9.974-2.77 9.974-2.77s-.739 4.987-2.032 5.91c-1.293.924-5.541 2.956-5.541 2.956s7.942.554 10.713-.74c2.77-1.292 6.465-5.17 6.465-5.17s-.554 4.802.554 6.649c1.108 1.847 2.955 4.617 2.955 4.617s3.325-2.586 3.879-3.51c.554-.923 2.401-5.91 2.401-5.91s2.032 6.465 1.662 9.05c-.369 2.587-4.802 6.835-4.802 6.835s6.834-2.586 8.497-4.248c1.662-1.663 4.248-4.803 4.248-4.803s0 6.28.37 7.943c.369 1.662.369 6.834.369 6.834s4.617-2.032 5.725-2.77c1.109-.74 2.402-5.173 2.402-5.173s-.37 5.911.554 7.758c.923 1.847 4.063 4.618 4.063 4.618s2.032-2.032 3.14-4.248c1.109-2.217 2.586-5.542 2.586-5.542s2.032 5.172 3.694 6.28c1.663 1.109 4.803 2.956 4.803 2.956s1.847-1.663 2.4-3.14c.555-1.478 1.848-6.834 1.848-6.834s.923 5.171 2.586 7.388c1.662 2.216 5.171 2.4 5.171 2.4s-1.108-6.094.185-6.649c1.293-.554 5.357.555 6.834 2.217 1.478 1.662 4.249 3.694 4.249 3.694s.738-3.325 1.662-5.726c.923-2.401 2.216-7.203 2.216-7.203s.554 5.54.554 7.203c0 1.663-.738 12.19-22.349 24.935-21.61 12.745-36.756 30.846-38.05 38.973-1.292 8.127-.738 10.344-.738 10.344s-8.127.923-11.637 4.618c-3.509 3.694-3.509 12.005-3.509 12.005s-9.974-1.108-17.732-4.617c-7.757-3.51-13.114-4.433-13.114-4.433s-.923-3.694-1.847-4.618c-.923-.923-2.955-.923-2.955-.923s7.942-9.79 11.82-14.777c3.88-4.987 10.714-11.452 10.53-13.114-.186-1.662-6.28-9.79-7.758-9.235-1.478.554-9.605 14.407-11.268 16.254-1.662 1.847-4.063 8.127-6.28 8.312-2.216.184-1.108-9.974-.738-15.146.37-5.172.738-11.452-.37-11.637-1.108-.184-7.573.924-9.05 1.847-1.478.924-.185 21.057-.554 21.98-.37.924-6.28-.369-8.682-3.878-2.4-3.51-2.955-8.866-4.433-9.236-1.477-.37-8.496 1.109-8.865 2.956-.37 1.847 4.802 12.744 6.095 14.776 1.293 2.032 10.897 10.159 10.897 11.267 0 1.108-7.018.924-9.604-.185-2.586-1.108-15.33-8.68-16.808-8.127-1.478.554-3.695 9.05-2.771 10.16.923 1.107 9.79 2.585 12.19 4.063 2.402 1.477 7.02 7.203 9.236 7.203 2.216 0 12.006-1.293 13.114-.554 1.108.739 4.063 3.694 3.879 4.987-.185 1.293.739 9.42.184 13.668-.554 4.249 4.803 7.573 6.28 8.497 1.478.923 5.911 2.586 6.096 1.108.184-1.478-4.618-7.573-4.248-12.375.369-4.803 5.356-12.006 6.464-12.006 1.108 0 7.204 11.452 11.267 15.33 4.064 3.88 7.389 11.452 19.025 11.452s14.592-4.987 16.07-4.987c1.477 0 16.623 1.108 18.47 1.108 1.847 0 14.222 9.42 39.527 8.312 25.305-1.108 26.598-4.987 26.598-4.987s6.464 3.694 9.42 10.159c2.955 6.465 4.617 16.254 2.031 17.916-2.585 1.663-12.56-7.203-17.916-10.712-5.357-3.51-9.974-9.42-11.082-8.866-1.109.554-5.357 4.433-5.542 6.28-.184 1.847 19.58 14.591 19.025 15.7-.554 1.108-11.636-3.325-16.07-3.325-4.432 0-7.203 5.541-7.572 7.388-.37 1.847 4.987 5.172 6.28 4.987 1.293-.185 4.987-3.325 9.604-3.325 4.618 0 10.344 3.325 10.16 5.357-.185 2.032-3.325 4.618-6.465 4.802-3.14.185-8.682 1.109-9.975 2.032-1.292.924-.554 10.344 1.848 10.159 2.4-.185 10.343-6.834 12.375-6.65 2.032.185 4.802-.738 4.802.37s-8.496 6.65-9.235 9.42c-.739 2.77 1.478 5.172 4.433 6.834s1.477.185 4.617-.739c3.14-.923 16.44-20.872 17.917-21.241 1.478-.37 12.19-.37 14.961-.554 2.77-.185 7.204-5.172 10.159-5.172 2.955 0 3.694 3.694 4.618 4.064.923.37 7.018-5.357 7.018-7.758s-2.216-5.541-4.802-5.172c-2.586.37-5.356 4.064-8.496 4.064-3.14 0-16.07.554-16.809-1.108-.738-1.663 7.204-14.777 10.344-16.809 3.14-2.031 14.222-6.65 14.407-9.974.185-3.325.185-5.541-3.694-8.866-3.879-3.324-10.159-13.114-10.159-16.623 0-3.51 6.095-4.987 11.636-10.528 5.542-5.542 61.507-72.036 87.551-70.927 26.044 1.108 44.145 14.776 51.902 25.304 7.758 10.528 6.096 6.28 5.357 8.127-.739 1.847-11.083 4.803-14.592 9.05-3.51 4.25-5.172 18.102-5.726 21.057-.554 2.956-13.299 10.713-16.808 10.713-3.51 0-6.65 1.478-6.465 0 .185-1.477 2.586-9.235 1.847-17.362-.739-8.127-.739-13.853-3.14-13.668-2.4.184-4.063 3.51-4.248 5.356-.185 1.847 0 20.318-1.108 20.872-1.108.554-20.503-21.61-21.98-21.241-1.478.37-6.095 7.019-5.91 8.866.184 1.847 18.1 16.07 17.916 17.177-.185 1.109-7.573.924-10.713.37-3.14-.554-12.376-5.541-15.146-5.541-2.77 0-3.879 4.987-3.694 7.018.184 2.032 1.477 5.542 5.541 5.91 4.063.37 21.426-.738 21.426.924 0 1.663-2.586 5.172-8.312 6.835-5.726 1.662-10.713 1.847-12.375 2.216-1.663.37-1.108 1.662-1.108 3.51 0 1.847 2.031 3.324 5.356 4.063 3.325.739 11.636-.185 13.484-.739 1.847-.554 12.375-7.203 15.515-7.019 3.14.185 4.063 3.14 4.987 5.726.923 2.586 2.401 7.388 5.91 8.312 3.51.923 9.236 1.478 9.051 2.955-.185 1.478.554 6.834 4.248 6.465 3.694-.37 6.28-2.955 6.465-6.095.185-3.14-9.05-5.172-12.375-9.42-3.325-4.249-6.465-7.758-5.726-10.713.739-2.956 21.426-2.217 24.75-2.032 3.325.185 10.898 1.847 12.006.37 1.108-1.478 9.605-16.07 13.114-17.732 3.51-1.663 10.898-.74 12.56-1.847 1.663-1.109-.923-5.357 7.389-4.618 8.311.739 28.075 1.847 33.8 4.618 5.727 2.77 17.548 5.171 25.49 6.095 7.943.923 19.025 4.063 24.566 10.713 5.541 6.65 5.357 9.605 4.433 11.452-.924 1.847-13.484 1.293-17.178 1.108-3.694-.185-14.776-.554-15.146 4.433-.369 4.987 4.064 7.757 7.204 7.019 3.14-.74 3.14-3.51 7.758-3.51 4.617 0 15.515-2.586 15.7-.923.184 1.662-4.803 8.311-7.204 9.42-2.401 1.108-11.082 1.662-11.636 5.171-.554 3.51 3.324 6.465 6.095 6.28 2.77-.184 9.605-8.311 11.452-9.42 1.847-1.108 4.617-4.248 5.91-3.878 1.293.369.37 7.572-1.108 10.343-1.478 2.77-2.586 8.497-2.586 8.497s.37 3.324 3.879 3.14c3.51-.185 6.65-3.695 7.573-6.835s.37-18.1 2.216-18.655c1.847-.554 4.618 2.586 6.28 6.65 1.663 4.063 1.847 12.19 5.542 12.005 3.694-.184 7.203-6.834 6.834-11.267-.37-4.433-10.529-11.082-10.898-14.776-.37-3.694 26.967-18.286 27.152-21.241.184-2.956-4.618-6.834-6.834-7.204-2.217-.37-21.796 18.47-24.936 17.547-3.14-.923 2.032-23.088-1.847-25.674-3.879-2.586-7.203 1.478-11.451-.739-4.249-2.216-2.402-10.713-11.822-19.578-9.42-8.866-14.222-.555-14.222-3.51 0-2.955 9.05-19.394 12.19-28.26 3.14-8.866 4.064-28.445 13.669-31.4 9.605-2.955 14.961 2.586 21.98 2.77 7.019.185 13.114-2.4 13.114-2.4s-10.528.369-14.222-.185c-3.694-.554-8.497-4.248-8.497-4.248s14.592 2.4 21.241 2.4c6.65 0 24.936-1.662 24.936-1.662s-17.363-.923-23.458-1.108c-6.095-.185-8.127-3.14-7.758-4.063.37-.924 18.286 2.031 25.305 1.847 7.019-.185 25.305-4.987 25.305-4.987s-16.44 2.4-22.165 2.4c-5.726 0-14.038-3.14-17.732-3.324-3.694-.185-6.28-.923-5.726-2.401.554-1.478 7.02-2.586 9.79-2.586 2.77 0 13.483 2.401 16.808 2.217 3.325-.185 17.732-.924 24.935-3.51 7.204-2.586 12.56-5.726 12.56-5.726s-12.93 3.51-16.439 3.325c-3.509-.185-12.005-1.847-14.96-1.662-2.956.184-6.835-.554-6.65-2.586.185-2.032 10.713 2.216 28.445-6.28 17.731-8.497 26.228-19.025 26.228-19.025s-14.961 9.42-21.795 12.375c-6.835 2.956-8.128 3.325-9.051 1.478-.924-1.847 7.758-8.496 11.821-12.375 4.064-3.88 9.79-11.637 12.56-13.3 2.77-1.661 13.484-7.387 13.484-7.387s-11.083-.185-16.07 2.586c-4.987 2.77-15.146 13.852-16.623 12.929-1.478-.924.923-8.312 4.433-11.821 3.51-3.51 11.82-8.497 16.069-12.376 4.248-3.878 4.248-9.42 4.248-9.42s-3.879 5.172-6.28 7.02c-2.4 1.846-7.203 3.14-9.79 4.986-2.585 1.847-5.54 6.834-6.649 6.28-1.108-.554 1.293-8.127 3.695-12.006 2.4-3.878 6.464-9.604 10.897-13.852 4.433-4.249 13.114-10.713 13.114-10.713s-9.235 2.585-12.93 4.617c-3.693 2.032-10.527 8.497-12.56 11.267-2.03 2.77-4.986 9.79-6.28 8.866-1.292-.923 1.848-9.79 3.88-15.7s4.433-12.93 8.312-16.439c3.878-3.509 10.897-7.942 10.158-7.942-.738 0-12.19 2.955-17.362 7.942-5.172 4.987-12.006 22.165-13.299 21.796-1.293-.37-.554-9.974.554-14.038 1.109-4.064 5.172-16.993 5.172-16.993s-7.573 10.713-9.42 15.33c-1.847 4.618-7.388 21.242-8.127 24.382-.739 3.14-1.847 8.127-1.847 8.127s-1.478-6.65-.924-12.006c.555-5.356 6.465-24.381 6.465-24.381s-7.019 11.452-8.681 16.993c-1.662 5.54-4.618 19.21-5.91 23.457-1.294 4.249-1.478 6.835-2.402 6.65-.923-.185-2.401-9.235 0-17.917 2.401-8.68 7.388-20.687 7.388-20.687s-6.649 6.465-8.496 10.529c-1.847 4.063-3.51 13.668-4.802 17.731-1.293 4.064-1.478 17.547-2.586 18.101-1.109.555-2.032-12.929-1.663-16.069.37-3.14 4.803-19.394 4.803-19.394s-6.834 17.547-7.02 21.056c-.184 3.51-2.216 23.089-3.509 23.827-1.292.74-1.477-12.744-1.292-16.808.184-4.063 3.324-20.317 3.324-20.317s-5.172 14.222-6.464 18.84c-1.293 4.617-2.217 24.75-3.88 25.12-1.662.369-2.4-13.853-1.846-17.917.554-4.063 2.955-19.763 2.955-19.763s-4.802 11.636-6.095 17.731c-1.293 6.096-1.293 21.242-2.586 21.426-1.293.185-3.51-8.496-3.14-12.744.37-4.249 5.172-19.21 5.172-19.21s-6.835 15.885-8.312 19.025c-1.478 3.14-1.847 11.821-3.14 11.452-1.293-.37-2.401-4.064-2.032-7.204.37-3.14 3.879-16.439 3.879-16.439s-7.019 10.898-8.497 15.516c-1.477 4.617-.554 12.005-2.031 12.005-1.478 0-2.956-4.987-2.771-7.942.185-2.955 2.586-12.93 2.586-12.93s-4.618 9.79-5.172 13.3c-.554 3.509-.185 9.05-1.293 9.05-1.108 0-2.401-5.726-2.216-9.235.184-3.51 0-12.006 0-12.006s-2.401 12.56-2.77 15.146c-.37 2.586 1.292 11.082-.186 11.267-1.477.185-3.694-2.955-4.987-6.095-1.293-3.14-2.77-9.42-2.77-9.42s-.924 9.789-1.663 13.668c-.738 3.879 2.771 8.68 2.032 9.42-.739.739-4.063.923-7.388-1.663-3.325-2.585-4.802-3.324-4.802-3.324s3.51 10.713 4.433 13.853c.923 3.14 4.433 5.54 4.433 8.127 0 2.586-5.542 15.33-15.885 31.77-10.344 16.438-14.592 29.367-29.184 30.106-14.591.739-19.024-4.987-24.566-10.159-5.54-5.171-25.304-39.342-54.303-52.271-28.999-12.93-63.19-.893-82.748 9.974-30.983 17.213-61.543 75.975-102.512 79.423-9.957.838-20.502-10.159-19.579-15.515.924-5.357 4.248-13.853 20.872-29.553 16.623-15.7 20.318-26.044 21.98-31.4 1.662-5.356-1.108-15.7-1.108-15.7s2.586.37 3.51 1.847c.923 1.478 2.585 3.325 2.585 3.325s1.293-2.956 1.293-5.726-3.694-14.407-3.694-14.407 21.98 5.541 23.457 5.172c1.478-.37 13.115-8.866 13.115-8.866s-5.357 1.477-8.497.739c-3.14-.74-8.681-7.573-8.681-7.573s5.541 2.216 8.866 2.4c3.325.185 9.235-6.649 9.235-6.649s-8.127.185-11.452.185c-3.324 0-10.343-1.293-10.343-1.293s7.203-1.847 10.343-3.14c3.14-1.293 9.974-7.758 9.974-7.758l-13.668-6.464s5.541-4.618 7.573-7.388c2.032-2.771 3.879-4.803 3.879-4.803s-5.356.554-10.528-.185c-5.172-.738-8.497-3.509-8.497-3.509s3.325.37 6.834-1.108c3.51-1.478 5.726-4.064 5.726-4.064s-7.942-3.324-11.082-3.324c-3.14 0-8.312 2.585-8.312 2.585s6.28-6.649 6.465-9.42c.185-2.77-.739-7.942-.739-7.942s-.37 6.65-1.847 8.127c-1.478 1.478-3.879 2.586-4.618 2.586-.738 0 1.478-3.14.74-6.834-.74-3.694-7.39-9.605-7.39-9.605s2.956 7.388 2.772 10.344c-.185 2.955-7.02 15.884-12.745 15.146-5.726-.74-12.006-20.503-20.872-21.057-8.866-.554-7.573 2.586-7.573 2.586s-1.108-6.65-2.77-8.681c-1.663-2.032-4.249-4.618-4.249-4.618s-.61 7.887-.61 10.472c0 2.586-1.953 8.81-1.953 8.81l-3.347 7.5s-6.65-6.095-12.376-16.808c-5.725-10.713-7.018-9.974-6.649-15.146.37-5.171-7.019-16.992-8.681-16.992-1.662 0-2.401-4.433-4.803-7.943-2.4-3.51-8.68-5.172-8.68-5.172s4.986 5.172 4.986 9.236c0 4.063 0 4.617-1.293 5.54-1.293.924-12.005-.553-11.82.924.184 1.478 5.54 5.726 5.54 7.389 0 1.662-4.432 1.662-7.757 2.955-3.325 1.293-6.28 5.172-6.28 6.095 0 .924 5.356 3.694 4.987 5.91-.37 2.217-10.344 7.758-10.898 9.79-.554 2.032 4.248.185 4.064 2.401-.185 2.217 8.68 7.758 10.159 7.389 1.477-.37 4.063-.37 4.617.738.554 1.109-.184 3.88.37 6.096s5.725 8.496 8.865 11.082c3.14 2.586 25.86 11.452 24.751 27.152-1.108 15.7-9.79 12.745-12.375 12.375-2.586-.37-16.624-16.623-28.814-16.808-12.19-.185-12.376 2.401-17.732 2.032-5.357-.37-4.802-.554-8.497-6.28z" fill="#00386a" fill-rule="evenodd" stroke="#000" stroke-width="1pt" transform="matrix(.05975 0 0 .02249 518.383 320.009)"/><path d="M533.34 324.728c-.517.183-.458.133-.694.133-.237 0-.414-.078-.488-.117-.074-.039-.059-.072-.148-.077-.088-.006-.207.005-.207.005s-.014-.078.06-.122a.997.997 0 0 1 .458-.1c.207 0 .458.077.502.133.045.056.045.134.148.134.104 0 .37.01.37.01z" fill="#fff" fill-rule="evenodd"/><path style="marker:none" d="M500.696 344.667c14.348 5.937 42.55 10.39 51.455 12.369 8.906 1.979 24.738 2.968 31.665 12.863 6.926 9.896 5.442 14.843 5.442 14.843m-35.128 5.443c11.38-2.474 28.696-2.969 28.696-2.969m-12.863 21.769c8.905-4.452 18.306-17.316 18.306-17.316m.494 25.727c2.969-12.863 3.958-31.17 3.958-31.17m2.474-.989c13.854 11.874 15.338 25.727 15.338 25.727m-11.874-30.18c17.81-4.453 25.727-14.348 25.727-14.348m-55.413-97.962c8.411-28.696 25.728-29.686 32.16-31.665 6.431-1.979 33.643-7.916 38.59-11.874 4.948-3.958 15.338-11.38 20.286-19.296 4.947-7.916 6.926-11.874 6.926-11.874s-.99 19.296-4.947 27.707c-3.958 8.41-18.801 20.285-27.212 23.253-8.41 2.969-22.759 7.422-30.675 8.906-7.916 1.484-13.359 2.969-18.8 8.906-5.443 5.937-19.791 50.465-19.791 50.465M465.074 326.36c-17.812 2.97-14.348 12.864-17.317 20.78-2.969 7.917-3.463 11.38-10.39 14.348-6.927 2.969-14.348 4.453-14.348 4.453m44.034-41.065c1.979 12.864 18.8 22.264 18.8 22.264m-7.421-27.706c-.495 11.874 14.348 28.201 14.348 28.201m-103.9-9.895c9.896 9.4 26.223 25.728 26.223 25.728m3.463-32.16c1.485 16.822 1.98 26.222 0 30.675l-1.979 4.453m-35.127 15.832c14.347-1.484 17.316-2.473 20.78-5.442 3.463-2.969 11.873-7.421 11.873-7.421m5.443.495c4.453 19.295 17.316 23.253 17.316 23.253m-61.845-34.138c16.328 5.937 32.16 6.432 32.16 6.432m-153.376 30.18c8.411 9.895 26.717 20.78 26.717 20.78m-35.128-.99c19.79 3.464 23.254 4.948 29.686 4.948 6.432 0 8.906-.99 8.906-.99m34.633 4.948c-10.885 1.484-24.243-.99-24.243-.99m-28.696 25.727c6.926-6.431 13.853-13.852 16.821-17.316 2.969-3.463 1.485-6.926 1.485-6.926m-28.696 12.369c12.369-1.485 17.811-3.958 20.78-6.927 2.968-2.969 5.937-6.927 5.937-6.927M236.99 179.17c5.442 1.731 10.39-4.453 13.853-3.711 3.463.742 4.453 8.906 8.163 11.627 3.711 2.721 3.959 3.71 6.432 4.205 2.474.495 4.948-.247 4.948-.247s-4.206 5.69-6.185 7.174c-1.979 1.484-6.679.742-8.163 3.71-1.484 2.97-3.463 5.443-3.463 5.443s3.215-4.7 5.442-4.453c2.226.248 10.637 6.185 13.111 9.153 2.474 2.969 4.205 5.195 4.205 5.195s-4.7-.495-8.41.248c-3.711.742-7.422 2.72-11.133 2.473-3.71-.247-7.42-1.237-7.42-1.237s4.7 6.432 6.184 9.896c1.484 3.463-.248 4.947.99 6.926 1.236 1.98 2.72 2.227 2.72 2.227s-9.648-.248-14.595-.742c-4.948-.495-13.606-2.969-13.606-2.969s3.71 9.648 3.463 15.09c-.247 5.443-.494 12.122-.494 12.122l-11.133-4.948c-6.679-2.968-7.916-1.237-12.863-5.195-4.948-3.958-.495-2.721-9.895-10.142-9.4-7.422-18.06-8.164-21.275-8.164-3.216 0-7.916 1.237-10.39.495-2.474-.742-6.68-5.442-6.68-5.442m37.108-77.43c-.495-6.927 3.71-6.185 5.69-6.68 1.978-.494 5.937 2.969 5.937 5.938 0 2.968-6.432 4.205-6.432 4.205s4.7 1.98 5.195 4.205c.494 2.227.99 6.68 1.731 7.67.742.989 2.721 2.968 2.721 2.968m-9.895 17.564c5.937-7.669 13.359-8.906 13.359-8.906m-6.432 15.338c1.237-7.917 9.895-10.39 9.895-10.39m-.989 13.606c.742-8.659 8.163-8.659 8.163-8.659m26.964 79.657c-8.41 15.832-14.348 21.274-20.285 25.727-5.937 4.453-32.654 14.843-38.096 48.981-5.442 34.139 32.654 43.539 41.56 44.034 8.905.494 26.717-1.98 26.717-1.98" font-size="12" font-weight="100" font-stretch="ultra-condensed" letter-spacing="0" fill="none" stroke="#fff" stroke-width="2.5" font-family="Bitstream Vera Sans" transform="matrix(.05975 0 0 .02249 518.383 320.009)"/><path style="marker:none" d="M313.677 356.046c13.359-12.369 63.824-72.73 94.005-73.224 30.18-.495 53.434 22.264 58.381 31.17 4.948 8.905 8.411 13.358 8.411 13.358m-165.25 12.37c-5.937 17.316-4.947 25.232-4.452 29.685.494 4.452 11.874 18.306 11.38 21.769-.496 3.463-8.907 8.906-13.36 15.832-4.452 6.927-6.431 13.359-6.431 13.359m-30.675-54.424c2.968 11.875 10.39 16.822 13.358 20.78 2.969 3.958 9.4 11.38 8.906 17.812-.495 6.431-2.474 12.863-2.474 12.863m-96.478-73.719c-16.822 6.927-13.358 17.811-16.327 20.285-2.969 2.474-8.41-3.958-19.296-7.916-10.884-3.958-15.832-5.442-15.832-5.442" font-size="12" font-weight="100" font-stretch="ultra-condensed" letter-spacing="0" fill="none" stroke="#fff" stroke-width="2.5" font-family="Bitstream Vera Sans" transform="matrix(.05975 0 0 .02249 518.383 320.009)"/><path d="M534.42 325.228c.354.056.665.234.812.3.148.067.65.24 1.227.312.577.073.946.19 1.626.19.68 0 .901-.023.887-.156-.015-.134-.222-.217-.34-.217-.118 0-.03.055-.237.055s-.576.034-.842-.022-.976-.195-1.36-.317c-.384-.122-.517-.25-1.182-.267-.665-.017-.621.044-.591.122zm-1.656-.99s-.177.05-.399.006c-.222-.045-.28-.123-.266-.212.015-.089.148-.116.34-.122.192-.006.4.061.37.128-.03.067-.207.145-.045.2z" fill="#fff" fill-rule="evenodd"/><path style="marker:none" d="M206.81 199.207c-8.164-3.215-12.122-7.42-14.349-10.142-2.226-2.721-4.453-6.68-5.195-11.38-.742-4.7 0-7.174.99-9.4s2.721-2.474 2.721-2.474" font-size="12" font-weight="100" font-stretch="ultra-condensed" letter-spacing="0" fill="none" stroke="#fff" stroke-width="2.5" font-family="Bitstream Vera Sans" transform="matrix(.05975 0 0 .02249 518.383 320.009)"/><path d="M526.662 322.174a1.594 1.147 0 1 1-3.187 0 1.594 1.147 0 1 1 3.187 0zm5.972 2.431a.239.1 0 1 1-.478 0 .239.1 0 1 1 .478 0zm.059-.517a.239.1 0 1 1-.478 0 .239.1 0 1 1 .478 0z" fill="#e6170f" fill-rule="evenodd"/><path d="M530.18 323.904a.18.073 0 1 1-.36 0 .18.073 0 1 1 .36 0zm.503-.45a.18.073 0 1 1-.36 0 .18.073 0 1 1 .36 0z" fill="#fff" fill-rule="evenodd"/><path style="marker:none" d="M634.611 217.696c-1.656-17.398 8.285-46.395 8.285-46.395m.829 43.081c0-24.026 8.284-48.052 8.284-48.052m.829 36.453c-.829-19.055 13.255-48.88 13.255-48.88m-1.656 38.11c.828-16.57 20.711-40.595 20.711-40.595m-99.263 112.326c12.294-4.24 14.414-3.816 18.654-2.544 4.239 1.272 13.566 4.24 13.566 4.24m-19.925-10.599c11.87 0 15.261 4.24 19.5 4.24 4.24 0 11.871-1.272 15.263-.424 3.391.847 5.51 1.695 5.51 1.695m-6.783-12.294c5.936 2.968 12.295 4.24 16.958 3.815 4.664-.423 17.382-2.543 17.382-2.543m-13.99-12.294c6.359 2.543 25.436-3.816 25.436-3.816m-14.838-3.815c9.751-2.544 18.23-14.838 18.23-14.838" font-size="12" font-weight="100" font-stretch="ultra-condensed" letter-spacing="0" fill="none" stroke="#fff" stroke-width="1.25" font-family="Bitstream Vera Sans" transform="matrix(.05975 0 0 .02249 518.383 320.009)"/><path d="M534.981 324.555c0-.139.384-.111.562-.083.177.028.635.111.96.15.326.039 1.02.156 1.434.184.414.027.902.01 1.094.039.192.027.355.127.295.21-.059.084-.295.134-.812.129-.518-.006-1.242-.128-1.951-.245-.71-.117-.858-.083-1.168-.156-.31-.072-.443-.083-.414-.228z" fill="#fff" fill-rule="evenodd"/><path style="marker:none" d="M245.816 188.225c4.01-2.808 4.812-3.61 6.55-3.209 1.738.401 4.812 2.941 4.812 2.941m-11.629 5.481c7.218-4.144 10.827.802 10.827.802m-11.496 5.079c3.877-2.54 11.496 1.604 11.496 1.604m-8.555 2.54c6.15-.669 8.956 5.213 8.956 5.213" font-size="12" font-weight="100" font-stretch="ultra-condensed" letter-spacing="0" fill="none" stroke="#fff" stroke-width="2.5" font-family="Bitstream Vera Sans" transform="matrix(.05975 0 0 .02249 518.383 320.009)"/><g fill="none" stroke="#fff" stroke-width=".5"><path d="M292.202 339.178c5.914 8 14.61 16.35 14.61 16.35m14.611-45.918c4.522 12.523 14.61 20.176 14.61 20.176M329.076 303c6.261 14.263 13.218 22.264 13.218 22.264m-8.348-27.829c4.522 8.349 14.61 21.22 14.61 21.22m-9.392-27.134c17.74 22.611 13.914 22.263 13.914 22.263m-9.044-28.524c6.957 9.392 14.61 22.61 14.61 22.61m71.311-21.219c14.262-4.87 17.045-19.48 17.045-19.48m-29.22-8.349c12.87 17.046 16.697 27.83 16.697 27.83m-77.92 26.088c2.087-24.697 7.653-39.655 7.653-39.655m8-4.523c-1.739 18.785-1.391 29.916-1.391 29.916m13.566-35.829c-2.435 12.87-3.826 26.785-3.826 26.785m10.088-6.261c6.261-14.263 7.653-22.263 7.653-22.263m8-1.74c-1.739 14.958-1.739 21.568-1.739 21.568m14.61-20.524c-2.435 13.566-5.565 21.915-5.565 21.915m25.741 6.609c7.653-4.87 17.393-14.61 17.393-14.61m-9.392 19.132c17.74-10.783 19.828-12.175 19.828-12.175m-14.61 17.393c19.48-4.174 23.307-8 23.307-8m-11.132 21.915c14.958-1.74 25.394-4.522 25.394-4.522m-342.99 58.788c2.435-10.088 2.087-11.827 2.087-11.827m1.391 14.61c6.958-11.48 6.958-10.088 6.958-10.088m2.435 2.087c12.175 24.698 12.87 22.959 12.87 22.959m-2.782-22.611c10.088 20.524 12.523 20.176 12.523 20.176m-7.653-26.437c21.567 20.175 22.958 25.741 22.958 25.741m-36.177 2.087c20.872-9.392 26.437-22.958 26.437-22.958m-12.522 24.35c10.783-7.305 17.392-16.698 17.392-16.698m-37.916 5.914c29.22-21.915 29.568-20.176 29.568-20.176m166.973-74.442c4.174 8 14.958 21.915 14.958 21.915m-6.958-26.785c5.914 9.044 16.698 21.567 16.698 21.567m-9.74-26.437c8.696 14.262 14.262 20.524 14.262 20.524m-2.783-24.003c7.653 10.088 11.827 19.48 11.827 19.48m-.348-23.306c8.349 17.74 10.088 21.22 10.088 21.22m-2.087-24.003c7.305 13.219 11.827 23.307 11.827 23.307m-.695-22.959c7.653 20.176 10.088 22.61 10.088 22.61m2.782-.695c10.436-13.914 13.567-18.436 13.567-18.436m.347.695c13.567 31.308 18.09 36.178 18.09 36.178m-6.262-32.003c21.567 28.872 25.742 49.744 25.742 49.744" transform="matrix(.05975 0 0 .02249 518.383 320.009)"/><path d="M463.35 276.563c19.132 27.83 28.524 61.572 34.09 65.746 5.566 4.174 12.175 8 12.175 8m-25.394-18.784c53.57-3.478 74.79-4.174 74.79-4.174m-72.007 9.044c54.266.696 88.704 0 88.704 0" transform="matrix(.05975 0 0 .02249 518.383 320.009)"/><path d="M498.136 344.744c50.092-.696 42.786.348 55.657.348 12.871 0 28.873.695 28.873.695M460.219 306.48c34.438-8.35 26.785-5.219 26.785-5.219m-11.479 24.351c13.566-5.914 26.437-5.566 26.437-5.566m-5.218-5.218c10.088 20.176 19.133 34.438 19.133 34.438m1.739-20.872c9.392 19.828 16.697 23.655 16.697 23.655m-4.87-27.829c7.653 19.132 19.828 32.003 19.828 32.003m-11.827-37.221c17.045 28.873 25.741 40.7 25.741 40.7" transform="matrix(.05975 0 0 .02249 518.383 320.009)"/><path d="M545.445 310.306c17.045 29.916 36.177 47.657 37.569 53.222l1.739 6.957m-25.394-84.877c5.566 5.913 11.132 12.87 11.132 12.87m-28.177 16.35c11.131 1.043 22.61 1.043 22.61 1.043m-16.696-12.522c18.088-2.783 20.523-1.74 20.523-1.74m-12.523-12.175c12.175-.348 18.437-4.522 18.437-4.522m-11.827-8.697c11.131-.347 14.958-1.391 14.958-1.391m-1.392 60.18c2.783 10.088 17.393 29.22 18.437 35.134 1.043 5.913.695 9.74.695 9.74" transform="matrix(.05975 0 0 .02249 518.383 320.009)"/><path d="M520.399 352.049c50.787-1.044 42.786.348 49.048 1.043 6.261.696 27.829 1.74 27.829 1.74m-18.785 7.653c17.045 3.826 20.524 6.261 20.524 6.261m-46.961-70.268c5.566 9.045 12.87 16.35 12.87 16.35m1.044-42.439c6.61 10.088 7.305 11.48 7.305 11.48m-116.881 45.569c12.871 24.35 21.22 26.09 21.22 26.09m-48.701 8.696c10.088 8 10.436 5.566 10.436 5.566m-1.043 1.043c4.522-6.609 29.22-36.525 29.22-36.525m-6.609 37.222c8-6.61 21.567-23.655 21.567-23.655m-33.395-5.566c9.045 4.87 21.568 19.48 21.568 19.48m-28.177-3.479c9.392 9.045 18.784 16.35 18.784 16.35m-23.654-13.567c6.957 8.349 10.088 11.828 10.088 11.828m-2.087-18.437c13.566 10.088 18.784 13.566 18.784 13.566m-16.001 2.435c16.697-10.435 27.133-27.48 27.133-27.48m98.792-82.791c4.522 3.478 6.957 7.653 6.957 7.653m-1.391-17.741c16.35 1.74 31.307-4.522 41.047-7.305 9.74-2.783 22.263-5.218 22.263-5.218m-55.657 5.914c18.784-2.088 40.351-10.784 46.265-10.784 5.914 0 21.22-5.218 21.22-5.218m-12.176-4.175c4.523-.695 16.002-1.39 16.002-1.39l1.044-1.044m-7.653-5.914c8.348.348 10.435-2.435 10.435-2.435m-73.746 30.96c2.783 9.044 3.479 10.088 3.479 10.088m-14.263-1.74l6.262 7.653m12.523-20.524c2.783 9.74 6.261 13.567 6.261 13.567m4.871-17.741c3.826 10.088 4.87 13.567 4.87 13.567" transform="matrix(.05975 0 0 .02249 518.383 320.009)"/><path d="M617.104 232.385c7.305 11.48 7.653 12.175 7.653 12.175l.348 1.044m1.043-16.002c10.088 13.219 8.697 11.827 8.697 11.827m2.087-16.349c6.261 6.261 9.044 9.74 9.044 9.74m2.435-15.306c6.957 3.827 8.001 5.218 8.001 5.218m-371.515 38.613c-3.478-4.523-8.696-4.175-13.914-7.305-5.218-3.131-11.132-13.567-11.132-13.567m1.044.696c9.044 21.567 6.957 33.742 6.957 33.742m-13.218-9.74c9.392-1.74 9.392 10.088 11.131 13.914 1.74 3.827 4.87 13.915 4.87 13.915m-20.871-17.741s4.87 14.262 6.957 18.089c2.087 3.826 4.87 9.392 4.87 9.392m-19.481-18.785c-.347 11.132 8.35 28.525 8.35 28.525m-17.394-19.828c1.044 8.349 8.697 29.22 8.697 29.22m-17.393-21.915c2.783 25.046 22.959 81.747 22.959 81.747m-31.308-76.181c.348 21.22 20.524 75.833 20.524 75.833m-29.916-65.05c2.435 26.438 14.61 61.224 14.61 61.224m-23.307-48.353c2.435 22.96 10.436 39.656 10.436 39.656m73.747-103.662c-6.262 4.522-82.791 61.223-82.791 61.223" transform="matrix(.05975 0 0 .02249 518.383 320.009)"/><path d="M276.549 287.695c-36.873 25.394-76.877 52.527-77.92 54.614-1.044 2.087-1.044 2.435-1.044 2.435m0 6.957c5.565-1.391 43.482-27.133 43.482-27.133m-38.612 38.265c6.609-1.74 36.525-20.176 36.525-20.176m-27.481 32.699C227.5 367.355 250.11 351.7 250.11 351.7m-25.74 30.96c9.74-5.913 41.395-30.263 41.395-30.263M245.241 384.4c13.567-9.044 12.871-9.392 12.871-9.392m6.958-21.916c5.913 6.61 12.174 27.134 16.349 31.308 4.174 4.174 17.393 25.046 17.393 25.046m-21.915-58.093c3.478 8.001 27.48 45.222 27.48 45.222m-19.827-50.44c4.522 8.349 20.871 26.438 20.871 26.438m-.696-44.526c3.827 9.74 11.48 22.61 11.48 22.61m-5.914-26.089c4.87 8.696 12.523 18.784 12.523 18.784m-7.653-26.437c12.523 19.132 13.915 21.22 13.915 21.22m-49.396 11.827c-5.914 11.827-9.74 17.74-9.74 17.74m18.088-25.045c-4.87 24.35-10.784 34.09-10.784 34.09m4.523 8.349c14.262-37.57 17.393-52.18 17.393-52.18m-13.219 61.224c16.002-15.654 20.524-51.831 20.524-51.831m-17.393 60.527c9.74-14.61 13.914-26.785 13.914-26.785m-8.349 30.612c13.22-16.697 16.35-25.046 16.35-25.046m.348-59.832c-4.175 19.132-4.522 19.828-4.522 19.828m12.523 10.088c8-29.568 2.435-40.7 2.435-40.7m7.653 25.742c5.913-30.96 4.522-40.7 4.522-40.7m5.565 32.004c.696-8.001 4.523-41.048 4.523-41.048m10.088-6.609c-5.914 31.655-7.305 40.7-7.305 40.7m-98.083 30.782c1.334 9.731 5.988 22.845 9.55 30.338" transform="matrix(.05975 0 0 .02249 518.383 320.009)"/></g><path style="marker:none" d="M187.248 339.726c1.189 30.316 16.05 41.016 16.05 41.016m-67.239-26.18c.99 11.38-2.969 13.853-3.958 17.811-.99 3.958 2.968 8.411 2.968 8.411m-47.497-41.56c17.317 4.453 14.843 7.916 19.79 8.411 4.948.495 18.307.495 18.307.495m-18.306-32.654c2.474 13.853 17.316 25.233 17.316 25.233m3.464-33.149c-2.474 16.327 1.484 30.675 1.484 30.675m5.937.495c14.843-11.875 19.79-24.738 19.79-24.738m112.788 69.451c-15.195-19.663-9.832-30.39-9.832-30.39" font-size="12" font-weight="100" font-stretch="ultra-condensed" letter-spacing="0" fill="none" stroke="#fff" stroke-width="2.5" font-family="Bitstream Vera Sans" transform="matrix(.05975 0 0 .02249 518.383 320.009)"/><g stroke="wheat"><path fill="snow" stroke-width="1.552" stroke-linecap="square" stroke-dashoffset="1.061" d="M597.954 72.462h108.68v201.834h-108.68z"/><path d="M698.596 242.97h-92.604m92.443-23.29h-92.444m92.605-23.288h-92.604m92.604-23.288h-92.604m92.604 93.154h-92.604m92.604-139.688h-92.604m92.443-23.29h-92.444m92.605-22.977h-92.604m92.604 69.555h-92.604" stroke-width=".466" fill="#f0f0f0" fill-opacity=".2" fill-rule="evenodd"/><g stroke-width=".466"><path d="M675.388 80.88v185.53M652.294 80.88v185.53M629.2 80.88v185.53" fill="none"/><path d="M606.106 80.88v185.53m92.377-185.53v185.53" fill-rule="evenodd"/></g></g><path opacity=".3" fill="#97fc65" d="M608.086 175.463h19.134v88.87h-19.134z"/><path opacity=".3" fill="#e6b4ff" d="M677.369 82.225h19.134v19.134h-19.134z"/><text style="text-align:start;line-height:100%;-inkscape-font-specification:Arial Italic" font-size="15.748" font-style="italic" font-weight="400" font-family="Arial"><textPath xlink:href="#a"><tspan>main text</tspan></textPath></text><path d="M625.775 122.72c23.419 14.567 45.783 45.579 49.943 74.638" id="a" fill="none" fill-rule="evenodd" stroke="#000" stroke-width=".1" opacity=".1"/><text style="text-align:start;line-height:100%;-inkscape-font-specification:Times New Roman Bold Italic" x="143.117" y="37.764" font-size="29.15" font-style="italic" font-weight="700" font-family="Times New Roman"><tspan style="text-align:start;line-height:100%;-inkscape-font-specification:Times New Roman Bold Italic" x="143.117" y="37.764">Paper: <tspan fill="#888">Paper, Paperweight and Desk pad</tspan></tspan></text><text y="337.419" x="270.735" style="text-align:start;line-height:100%;-inkscape-font-specification:Arial Italic" font-size="12.467" font-style="italic" font-weight="400" fill="#888" font-family="Arial"><tspan y="337.419" x="270.735">Traditionally, Chinese </tspan><tspan y="349.886" x="270.735">calligraphy is written in </tspan><tspan y="362.353" x="270.735">columns from right to left.</tspan><tspan y="374.82" x="270.735">Each character fit within</tspan><tspan y="387.287" x="270.735">a virtual square.</tspan><tspan y="412.221" x="270.735">The main text is in one </tspan><tspan y="424.688" x="270.735">particular style, while the </tspan><tspan y="437.155" x="270.735">stamp area often uses </tspan><tspan y="449.622" x="270.735">an ancient style (such </tspan><tspan y="462.089" x="270.735">as Xiaozhuan) with writing </tspan><tspan y="474.556" x="270.735">in smaller characters.</tspan><tspan y="499.489" x="270.735">A red stamp end the page.</tspan></text><text style="text-align:start;line-height:100%;-inkscape-font-specification:Times New Roman Bold Italic" x="45.929" y="74.694" font-size="29.15" font-style="italic" font-weight="700" font-family="Times New Roman"><tspan style="text-align:start;line-height:100%;-inkscape-font-specification:Times New Roman Bold Italic" x="45.929" y="74.694">Paper</tspan></text><text style="text-align:start;line-height:100%;-inkscape-font-specification:Times New Roman Bold Italic" x="323.02" y="74.257" font-size="29.15" font-style="italic" font-weight="700" font-family="Times New Roman"><tspan style="text-align:start;line-height:100%;-inkscape-font-specification:Times New Roman Bold Italic" x="323.02" y="74.257">Paperweight</tspan></text><text y="157.626" x="269.402" style="text-align:start;line-height:100%;-inkscape-font-specification:Arial Italic" font-size="15.748" font-style="italic" font-weight="400" font-family="Arial"><tspan y="157.626" x="269.402">character&apos;s case, </tspan><tspan y="173.375" x="269.402" fill="#888">sometimes with such </tspan><tspan y="189.123" x="269.402" fill="#888">beginners friendly grid.</tspan></text><text y="319.754" x="621.02" style="text-align:start;line-height:100%;-inkscape-font-specification:Times New Roman Bold Italic" font-size="29.15" font-style="italic" font-weight="700" font-family="Times New Roman"><tspan y="319.754" x="621.02" style="text-align:start;line-height:100%;-inkscape-font-specification:Times New Roman Bold Italic">Desk pad</tspan></text><text style="text-align:start;line-height:100%;-inkscape-font-specification:Arial Italic" x="115.587" y="78.994" font-size="15.748" font-style="italic" font-weight="400" font-family="Arial"><tspan x="115.587" y="78.994">(gridded for beginners)</tspan></text><path d="M671.73 326.336c-6.147 16.692-8.418 20.252-16.324 29.517-.415-.301-2.2-2.899-2.2-2.899l-3.981 12.123 11.52-5.816s-2.647-1.07-2.812-1.266c11.205-13.536 11.937-23.405 13.797-31.659z" fill="#666" fill-rule="evenodd"/><text style="text-align:start;line-height:100%;-inkscape-font-specification:Arial Italic" x="464.824" y="184.129" font-size="15.748" font-style="italic" font-weight="400" fill="#888" fill-opacity=".842" font-family="Arial"><tspan x="464.824" y="184.129" fill="#000">Stamp area :</tspan><tspan x="464.824" y="199.877">author&apos;s name, </tspan><tspan x="464.824" y="215.626">the date and </tspan><tspan x="464.824" y="231.374">signature stamp.</tspan></text><text y="156.641" x="478.173" style="text-align:start;line-height:100%;-inkscape-font-specification:Arial Italic" font-size="15.748" font-style="italic" font-weight="400" font-family="Arial"><tspan y="156.641" x="478.173">Starting case</tspan></text><path d="M552.866 143.225c45.08-34.853 76.049-42.986 108.14-50.159.104.203.136 3.174.136 3.174l9.792-7.054-11.943-1.633s1.483 2.436 1.505 2.542c-43.577 8.473-75.26 23.58-107.63 53.13z" opacity=".4" fill="#e6b4ff" fill-rule="evenodd"/><path d="M568.204 196.949c16.445 6.781 19.915 9.187 28.87 17.441-.316.403-2.98 2.088-2.98 2.088l11.961 4.442-5.37-11.734s-1.17 2.604-1.373 2.761c-13.098-11.715-22.931-12.824-31.108-14.998z" opacity=".3" fill="#97fc65" fill-rule="evenodd"/><path d="M918.666 165.858a460.887 460.887 0 0 0 5.625 5.273c1.016 1.016 2.11 1.484 3.282 1.406.78-.078 1.367-.625 1.757-1.64.313-1.016.157-2.657-.468-4.922-.703-2.11-4.297-3.945-10.782-5.508-1.171-.312-1.992-.352-2.46-.117-.313.312-.43.937-.352 1.875.234.781 1.367 1.992 3.398 3.633m-11.367 25.43c1.406 2.89 2.813 4.96 4.219 6.21.781.313 1.523.196 2.227-.351.546-.547.859-1.368.937-2.461-.234-2.422-2.11-4.532-5.625-6.328-.781-.547-1.484-.782-2.11-.704-.312 0-.507.352-.585 1.055-.078.703.234 1.563.937 2.578m13.477 6.328c-15.469 3.516-27.032 5.704-34.688 6.563-.937.078-1.523.43-1.758 1.055-.234.78.235 1.601 1.407 2.46 2.812 2.11 5.78 2.618 8.906 1.524 12.734-4.453 26.953-7.852 42.656-10.195 1.25-.078 1.914-.43 1.992-1.055.078-.938-.547-1.719-1.875-2.344-2.343-1.015-6.367-.703-12.07.938 1.25-1.719 2.54-3.711 3.867-5.977.703-1.015 1.602-2.148 2.696-3.398 1.015-.782 1.25-1.563.703-2.344-.547-1.016-1.68-2.148-3.399-3.399a8.9 8.9 0 0 1 2.578-.585c3.047-.547 4.766-1.055 5.157-1.524.546-.547.703-1.054.468-1.523-.468-.781-1.601-1.406-3.398-1.875-1.875-.469-6.328.43-13.36 2.695-5.624 1.172-11.093 1.992-16.406 2.46-2.187.314-2.5 1.056-.937 2.227 2.344 1.407 5.937 1.68 10.781.82a292.713 292.713 0 0 1 11.133-1.991c.781 2.578-.625 7.578-4.219 15-.078.078-.156.234-.234.468m-11.016 40.547c3.75-.781 7.07-1.445 9.961-1.992 1.406-.312 1.797-.86 1.172-1.64-.703-.782-1.836-1.29-3.398-1.524-2.344-.234-4.883.508-7.618 2.227.078-3.047.274-5.704.586-7.97 3.125-.78 5.938-1.405 8.438-1.874 1.25-.313 1.601-.86 1.054-1.64-.703-.782-1.836-1.25-3.398-1.407-1.484 0-3.398.469-5.742 1.406-.078 0-.117.04-.117.117.078-3.359.312-5.703.703-7.03v-.704c6.406-2.11 10.195-2.969 11.367-2.578.703.469.937 1.445.703 2.93 1.016 12.5 1.094 23.632.234 33.398-.078 1.953-.703 3.125-1.875 3.516-.546.078-2.148-.196-4.804-.82-.782-.235-1.172-.118-1.172.35.078.548.586 1.173 1.523 1.876 1.875 1.953 3.477 3.906 4.805 5.86.781 1.015 1.64 1.523 2.578 1.523 1.172-.235 2.461-2.032 3.867-5.391 1.719-3.36 2.461-6.797 2.227-10.312a1642.521 1642.521 0 0 0-1.758-24.024c-.312-3.047.156-5.742 1.406-8.086.782-1.015.703-1.953-.234-2.812-1.172-.938-2.969-1.797-5.39-2.578-.938-.47-3.165.117-6.68 1.757-.235 0-2.774.938-7.618 2.813-1.64-1.64-3.671-2.461-6.093-2.461-1.016.312-1.328.898-.938 1.758 3.125 7.265 3.086 18.203-.117 32.812-1.64 4.688-2.461 7.11-2.46 7.266 0 2.344.663 4.375 1.991 6.094.547 1.015 1.172 1.328 1.875.937 3.047-1.953 4.61-7.617 4.688-16.992 0-1.719.078-3.32.234-4.805m37.735 1.172c3.28 1.406 6.328 1.719 9.14.938 4.297-.703 8.75-1.407 13.36-2.11 1.953-.312 3.124-.664 3.515-1.054.547-.547.703-1.094.469-1.641-.469-.781-1.64-1.445-3.516-1.992-1.484-.313-5.43.312-11.836 1.875-3.75.703-7.304 1.133-10.664 1.289-.469 0-.742.078-.82.234 0-4.219.039-7.187.117-8.906 2.344 1.016 9.18.508 20.508-1.524 1.953-.312 3.086-.624 3.398-.937.547-.469.703-.937.47-1.406-.313-.703-1.368-1.29-3.165-1.758-1.719-.469-3.477-.352-5.273.351a57.768 57.768 0 0 1-7.032 1.758c-2.656.47-5.586.782-8.789.938a72.12 72.12 0 0 1 .703-8.086c3.282.312 7.266.195 11.954-.352 6.64-1.406 10.078-2.148 10.312-2.226.469-.469.586-.938.352-1.407-.313-.703-1.368-1.289-3.164-1.757-1.72-.313-3.477-.157-5.274.468a775.96 775.96 0 0 1-6.445 1.641c-2.344.313-4.844.625-7.5.938.078-3.75.39-6.016.937-6.797 2.11-1.016 9.14-2.696 21.094-5.04.781-.077 1.21-.507 1.29-1.288-.001-.547-.782-1.172-2.345-1.875a585.493 585.493 0 0 0 4.22-9.61 5.793 5.793 0 0 1 1.874-1.758c1.016-.703 1.445-1.406 1.29-2.109-.235-.703-2.15-2.11-5.743-4.219-1.64-.78-3.125-.78-4.453 0-3.281 1.485-7.461 3.164-12.54 5.04-1.484.312-2.187-.274-2.109-1.759.703-4.296 1.328-8.007 1.875-11.132 2.657.937 6.797.742 12.422-.586a878.464 878.464 0 0 0 7.383-1.758c1.484-.312 2.344-.625 2.578-.938.547-.546.664-1.132.352-1.757-.547-.782-1.875-1.407-3.985-1.875-1.484-.235-5.312.664-11.484 2.695-2.11.469-4.336.898-6.68 1.289.547-2.89 1.094-4.922 1.641-6.094.781-1.953.117-3.476-1.992-4.57-3.594-1.484-5.938-1.992-7.031-1.524-.938.313-.938 1.133 0 2.461 1.25 1.876 1.484 7.97.703 18.282.078 3.125-.547 5.976-1.875 8.554-.782 1.172-.313 2.5 1.406 3.985 1.25 1.25 2.344 1.406 3.281.468 2.813-2.343 7.266-4.14 13.36-5.39 2.109-.547 2.89.703 2.343 3.75-.469 1.719-1.25 4.258-2.343 7.617a4.948 4.948 0 0 0-1.524.469c-5.86 2.187-11.133 3.867-15.82 5.039-.703-.469-1.524-.82-2.461-1.055-1.016-.312-1.836-.273-2.461.117-.547.313-.586 1.133-.117 2.461 1.015 3.047 1.484 6.016 1.406 8.907-.781 17.89-.352 29.296 1.29 34.218.546 2.188 1.796 4.258 3.75 6.211 6.561 5.625 16.327 7.578 29.296 5.86a312.38 312.38 0 0 0 4.805-1.055c3.359-1.016 6.64-2.813 9.843-5.39 1.485-1.016 1.836-2.54 1.055-4.571-.781-2.344-1.563-6.875-2.344-13.594.078-1.25-.156-2.148-.703-2.695-.469-.313-.937.234-1.406 1.64-2.89 7.032-5.195 11.563-6.914 13.594-1.016 1.485-3.125 2.657-6.328 3.516-7.5 1.719-14.375 1.21-20.625-1.524-3.985-2.109-6.328-5.937-7.031-11.484M331.67 226.628c2.135 2.583 4.097 4.196 5.884 4.842.894.149 1.59-.199 2.086-1.043.347-.745.422-1.589.223-2.532-.447-1.39-1.191-2.433-2.234-3.129-3.278-1.638-5.636-2.16-7.076-1.564a.573.573 0 0 0-.224.075c-.347.05-.422.447-.223 1.191.05.646.57 1.366 1.564 2.16m-14.673 12.96c1.34.795 2.88.944 4.618.448 6.405-2.086 14.921-3.7 25.548-4.842 2.433-.298 4.022-.347 4.767-.149.496.348.67.72.521 1.117 0 .15-1.067 2.235-3.203 6.257-.496.795-.596 1.291-.298 1.49.497.198 1.217 0 2.16-.596 3.178-1.937 6.083-3.203 8.715-3.799 2.135-.447 3.178-.968 3.129-1.564-.15-.496-2.036-2.185-5.661-5.065-1.341-1.092-4.27-1.192-8.79-.298-2.979.348-10.775 1.59-23.388 3.724-2.582.447-5.164.845-7.746 1.192-.497-1.54-1.142-2.557-1.937-3.054-.943-.745-1.465-.447-1.564.894.298 2.135-1.092 4.966-4.171 8.491-.894 1.043-.794 2.756.298 5.14.05.198.174.447.372.745.944 1.191 1.788 1.142 2.533-.15.894-1.34 1.639-2.954 2.234-4.84.646-2.136 1.267-3.85 1.863-5.14m21.451 23.91c9.236-.895 17.851-.87 25.846.074 1.093.149 1.813.025 2.16-.373.348-.645.249-1.241-.298-1.787-1.39-1.341-3.128-2.483-5.214-3.427-.645-.298-1.589-.248-2.83.15-1.241.347-8.02 1.24-20.334 2.68-.497-1.638-1.291-2.979-2.384-4.021.05-.05.15-.124.298-.224 6.009-4.816 9.609-7.423 10.8-7.82.944-.299 1.291-.87 1.043-1.714-.198-.794-1.936-2.11-5.214-3.948-.943-.496-1.986-.52-3.128-.074-2.88 1.043-6.58 2.135-11.098 3.277-1.192.348-3.178.472-5.96.373-1.19-.05-1.563.422-1.116 1.415.347.646.993 1.266 1.936 1.862 1.54.894 3.153.844 4.842-.149 1.043-.347 4.196-1.49 9.46-3.426.744-.199 1.415-.124 2.01.223.596.447.745 1.018.447 1.713a285.958 285.958 0 0 0-5.065 7.821 5.9 5.9 0 0 0-1.713-1.191c-.596-.348-1.043-.323-1.34.074-.2.199-.1.695.297 1.49.646 1.39 1.217 2.98 1.714 4.767-5.562.496-10.403 1.018-14.525 1.564-4.817.645-8.963.943-12.439.894-.645-.05-1.018.198-1.117.745-.05.595.372 1.241 1.266 1.936 2.086 1.49 3.898 1.986 5.438 1.49 5.263-1.837 12.587-3.153 21.972-3.948 1.192 9.435.82 15.443-1.117 18.025-.05 0-.1.05-.149.15-.347.198-2.88-.05-7.597-.745-.596-.199-1.043-.174-1.34.074-.299.05 0 .422.893 1.117 3.128 2.582 5.561 4.99 7.3 7.225.943 1.043 1.936 1.291 2.979.745 1.241-.645 2.284-2.507 3.128-5.586 1.093-3.923 1.34-9.211.745-15.865-.05-2.136-.248-3.998-.596-5.587" font-size="120" font-weight="400" font-family="Bitstream Vera Sans"/><path d="M618.618 254.314c.006-1.337.916-1.95 2.16-2.676.7-.492.747-.838.8-1.51.067-.415-.711-.842-1.13-.82-.303-.01-.097-.079-.529.137.634.182.905.745 1.055 1.108.148.233-.319.516-.388.19a2.027 2.027 0 0 0-1.025-.944c-.148.142-.123.104-.159.283.44.197 1.316 1.197.76 1.58-.22.258-.388-.9-.998-.971-.176.373-.031.623-.108.876.118.234-.343.59-.498.108-.038-.965.215-2.37 1.668-2.795.072-.371.03-.288.047-.53-1.771.09-1.148-1.746-.615-1.351.103.335-.262 1.046.659.858.048-.178-.023-.266.048-.55-.317-.117-.657-.398-.482-.892-.801-.017-1.16-.518-.376-.45.995-.005 1.993.006 2.985.045.563.105-.116.54-.422.343-.153.815-.376.958-.925.986a1.91 1.91 0 0 0-.05.568c.76.053.736-.265.919-.771.607-.196.527.685.25.935-.42.372-.745.16-1.212.321-.002.106.025.203-.038.432 1.43.465 1.286 1.188.965 2.25-.184.51-.699 1.066-1.324 1.316-.486.227-1.65 1.276-1.57 1.61.08.333-.254.763-.467.314zm2.806-7.948s-.943-.044-.989-.017c-.169.711 1.08.837.989.017zm3.504 8.198c.04-.04-.122-1.528-2.264-2.255-.568-.262-.274-2.952.225-4.035.312-.404.95-.21 1.444-.308.571-.005.527-.468.17-.636-.425-.075-1.292-.036-1.342-.266-.064-.294-.18-2.164.536-1.857l-.01.544c1.59.093 2.044-.038 1.975.377.003.259-1.359.099-1.938.095l-.05.464c.174.3 1.1.053 1.557.281.328.29.185.727.144 1.084-.34.912-1.421.004-2.004.779.543.386 1.51.547 2.012.814.273.468-1.601.01-2.053-.352l-.038.43c.35.393 2.219.757 2.115.983.01.42-1.464-.095-2.16-.46l-.04.439c.454.344 1.815.705 2.25.81.302.736-1.542.098-2.296-.286-.176.36.101.637.41.73 1.075.525 1.42.826 1.748 1.811.107.344.274.838-.39.814zm-5.121-9.073c-.258-.34 2.71-.277 2.466-.106.102.352-2.417.308-2.466.106z" fill="#d40000"/><text style="text-align:start;line-height:100%;-inkscape-font-specification:Arial Italic" x="673.203" y="341.878" font-size="15.748" font-style="italic" font-weight="400" fill="#888" fill-opacity=".842" font-family="Arial"><tspan x="673.203" y="341.878">to protect</tspan><tspan x="673.203" y="357.627">the table.</tspan></text></svg>