<svg xmlns="http://www.w3.org/2000/svg" version="1" width="300" height="300"><path d="M87.12 270.344c-6.593-11.457 38.46-66.119 84.522-98.744 1.744-2.298 4.107-26.393-6.588-14.67-21.571 11.268-69.16 45.33-76.587 41.888-9.182-10.06 10.444-15.657 16.965-20.31 9.677-4.181 18.347-11.185 27.186-15.924 11.665-4.458 21.416-11.646 30.53-20.038 3.082-3.554 3.535-3.085-3.65-10.883-9.735-10.567-6.028-5.719-15.512-.662-15.447 7.985-31.548 14.757-48.571 18.528-7.156 4.573-25.632 4.943-20.722-7.603 12.027-4.489 25.293-5.074 37.152-10.35 4.983-3.192 28.635-8.154 17.786-12.62-10.332-1.801-22.113-7.925-22.754-19.733-1.478-2.915.601-12.397 2.375-54.57.8-9.057 4.999-20.152 15.51-20.986 27.18-3.033 54.711-1.883 81.932.176 6.17.492 21.51 1.066 17.76 10.066-9.428 2.88-52.302-4.177-50.63 3.095v13.785c17.992.935 26.523-.627 39.559 1.685 11.218 2.48 9.344 8.671-3.786 9.197-11.41.756-23.785-2.125-36.388-.65-.582 8.59-.636 16.033.03 16.615 1.327 1.161 41.765 2.322 49.094 4.357 7.173 9.252-14.18 7.038-19.411 7.848-10.467.14-20.936.087-31.403.134-2.858 8.849-6.051 17.688-9.679 26.155 8.505 10.283 10.778 10.744 19.629 22.03 3.55 5.849 1.785 20.691 12.472 12.953 7.25-3.043 17.382-17.09 23.643-6.078 6.21 15.896 5.054 33.49 5.83 50.266-.29 14.155 1.227 28.6-1.757 42.523-1.813 7.123-10.494 8.313-8.826-.42-2.558-24.3-2.721-48.765-3.643-73.146-1.093-14.534-14.508 4.57-20.078 7.488-6.664 8.494-4.376 4.526-5.423 31.121-1.226 20.311-.465 40.923-4.504 60.945-.094 7.032-10.844 13.107-9.708 2.204-1.021-25.222.517-50.494 2.383-75.616 3.189-12.683-11.923 6.627-16.293 8.578-11.962 4.27-39.344 37.31-52.928 58.926-5.608 8.923-11.504 15.204-15.518 12.44zm61.092-161.353c8.031-8.519 9.076-18.235 7.541-19.833-1.411-1.47-37.855-4.023-38.271-3.01-9.624 23.42 16.791 26.917 30.73 22.843zm8.426-29.389c1.708-1.51 2.617-17.642 1.884-18.331-1.227-1.155-5.675-.975-9.962-.508-9.572-.456-16.01-.526-28.076-1.756-.187 6.299-2.895 16.738 1.297 18.401 13.335 1.476 33.522 3.375 34.857 2.194zm3.47-28.629c1.667-13.996-1.099-17.148-11.842-17.198-21.465-1.402-24.367-.916-25.246 12.337-2.997 7.688 34.815 5.88 37.089 4.861z"/></svg>