<svg xmlns="http://www.w3.org/2000/svg" width="300" height="300" version="1"><path d="M205.698 283.497c-8.364-14.95-25.806-20.654-37.77-32.082-5.61-3.784-22.716-15.934-18.055-17.987 16.18 8.547 33.958 15.688 52.454 15.727 17.236-1.285 22.136-20.935 28.185-34.02 2.767-14.65 15.23-30.668 8.635-45.183-19.727-10.317-43.368-5.846-64.108-.87-13.654.447-32.265 10.025-26.706 26.065 4.266 2.022 22.84-3.181 9.848-6.683-4.085-7.619 14.088 2.87 18.861 1.588 14.639 3.4 31.357 5.484 41.603 17.775-9.564 13.964-28.33-1.225-41.218-2.79-19.751-3.566-36.29 10.605-50.465 22.126-14.905 9.45-31.08.479-43.246-8.418-14.636-2.865-23.83 12.968-35.517 19.383-11.687 13.822-32.224 2.39-33.533-13.485.702-13.894 17.49 2.152 26.252-5.869 15.35-3.582 30.546-10.276 46.533-9.5 9.394 1.465 24.442 11.079 31.04.222-6.155 4.805-22.983-4.861-7.674-5.576 12.502 2.228 28.65-20.966 9.552-20.91-9.046 2.422-33.96-6.651-20.045-15.7 9.92-6.924 37.331-12.322 26.37-28.024-11.674 9.524-33.561-6.945-21.195-19.495 9.01-2.191 29.863-12.856 21.411-22.838-12.416 8.326-31.202-10.64-21.598-22.718 8.183-8.64 25.541-13.504 25.446-26.738-1.58-11.806-33.635-16.656-27.555-.17-13.817 15.095-8.113 37.12-14.16 55.111 3.259 14.563.284 30.081.37 45.108-2.883 13.613 3.42 32.394-6.73 42.366-10.903-6.112-16.166-22.244-16.373-34.678.58-20.402 5.78-40.382 5.763-60.852 1.094-18.517 1.094-38.123-7.631-55.015 12.095 4.324 27.281 16.606 35.515-.687 14.336-12.235 33.965-14.275 51.24-20.176 14.504-4.527 34.498-1.294 40.846 14.128-.975 11.706-31.438 17.25-18.905 31.358 19.06.683 13.65 22.339-.807 26.734-9.587 1.392-13.783 20.514-.156 13.562 11.507-2.774 37.74 10.392 19.094 20.581-10.104 9.081-36.603 15.22-33.105 30.463 12.195 1.832 24.52-5.2 37.253-5.022 16.495-1.585 33.292-2.936 49.763-1.248 15.663 3.738 27.333 15.668 37.76 27.137 6.285 11.92-10.74 18.94-13.288 29.9-11.63 23.887-19.229 52.087-41.847 68.277-6.394 2.45-15.237 17.323-22.107 9.123z"/></svg>