<svg xmlns="http://www.w3.org/2000/svg" version="1" width="300" height="300"><path d="M160.09 227.083c-7.746-4.266-17.61 14.881-24.968 18.834-7.978 5.795-16.935 19.993-26.93 16.363-1.78-14.9 7.042-10.898 44.368-54.22-7.005-7.82-12.041-12.358-20.434-20.634-34.715 20.379-28.722 25.345-57.958 30.36-3.783-13.486 7.43-10.865 47.23-41.048-8.953-8.516-10.855-9.945-20.42-15.362-12.42 4.788-33.943 19.651-54.932 22.792-9.272-12.61 6.171-10.177 46.32-30.931-13.873-13.637-25.329-25.368-21.844-42.181 6.177-25.732 22.161-48.25 40.382-67.004 12.98-12.163 28.34-25.415 47.118-25.45 11.5 2.274 20.169 11.375 29.73 17.636 29.57 22.654 36.237 26.913 74.157 56.518 11.164 14.307-11.206 16.47-19.125 8.387-13.49-6.635-24.581-20.693-37.735-27.854-4.486 4.964-8.304 8.83-16.238 17.587 29.515 23.734 32.612 26.241 46.283 36.07 6.475 7.151.718 18.127-9.165 9.017-16.205-10.447-30.898-23.02-46.253-34.646-6.566 6.728-12.401 12.306-20.17 20.89 13.074 13.536 29.014 22.713 41.568 34.942 6.437 3.647 18.417 22.11 4.043 20.353-16.493-4.226-25.34-19.98-39.286-28.458-6.294-4.438-14.356-10.432-20.69-14.813-8.497 7.512-15.766 11.557-24.802 21.368 8.552 5.217 18.465 13.33 26.329 21.41 13.164 12.213 25.285 29.128 44.87 30.197 19.348 3.86 23.577 2.472 31.765 10.75-3.43 14.2-27.134 4.684-46.43 6.066 4.153 17.596 4.511 37.615-5.847 53.154-24.582 11.267 1.896-25.316-10.935-50.093zm-28.103-103.666c-16.73-15.52-23.999-21.247-36.554-30.549-20.766 25.508-1.556 41.324 10.278 51.202 10.588-9.037 14.78-11.853 26.276-20.653zm32.157-31.98c-16.966-14.184-26.199-22.773-42.724-34.896-12.658 7.514-8.756 8.67-16.193 20.67 12.92 11.206 24.66 22.151 39.649 34.625 9.531-10.285 15.006-14.99 19.268-20.399zm29.078-30.803c-5.93-5.511-10.775-8.036-16.39-13.65-19.954-19.948-31.102-10.022-42.47.358 16.032 15.535 25.308 20.629 39.137 33.253 8.322-8.154 12.01-11.556 19.723-19.96z"/></svg>