<svg xmlns="http://www.w3.org/2000/svg" width="300" height="300" version="1"><path d="M111.057 251.556c10.92 6.25 25.812 8.002 39.586 10.624 35.485 6.754 66.928-10.585 73.653-40.54 6.667-29.693 12.337-73.05-42.383-74.456-.546-4.207 8.115-35.524 13.415-52.619.31-6.896-1.516-9.072-4.9-11.355-7.088-.42-22.902 7.092-41.593 7.006 11.665-8.657 58.22-43.674 73.367-51.68 8.056-4.26 6.91-4.126 7.788-9.257.352-2.06-19.422-2.887-24.37-2.915-34.629-.199-127.63 6.526-151.998 19.085 3.893 21.672 9.582 17.602 22.159 19.712C96.74 44.194 202.296 29.427 218.316 31.96c-7.785 2.392-41.761 41.71-76.06 61.899-1.062 6.225 4.015 6.79 6.597 6.582 7.654-2.262 23.154-2.797 34.72-5.433-2.396 10.273-8.95 47.811-11.532 56.802.835 1.854 8.272 3.972 9.592 2.158 39.606.29 35.648 40.493 30.526 64.164-5.39 24.908-30.384 38.568-57.933 36.176-11.176-.97-23.654-4.516-34.017-9.264m-4.743-2.334c-12.555-6.667-20.562-15.054-16.341-22.185 8.727-14.742 36.537-20.845 40.13-5.084 1.906 8.358-10.35 16.916-23.789 27.27m-8.226 6.547c-9.133 7.62-17.624 16.253-21.306 26.434 8.329-10.148 16.963-17.919 25.123-24.136 8.159-6.216-11.422 7.274 9.152-6.512 20.574-13.787 35.751-18.849 31.015-31.275-7.187-18.857-43-19.661-60.473 5.05-6.671 9.434 1.615 20.97 16.489 30.439" fill-rule="evenodd" stroke="#000" stroke-width="1.15"/></svg>