<svg xmlns="http://www.w3.org/2000/svg" width="300" height="300" viewBox="0 0 300 300"><path d="M166.992 184.314c7.416-2.344 14.063-2.344 19.922 0s10.145 5.475 12.891 9.375c2.729 3.918-2.93 6.061-16.992 6.445-14.063.402-34.771 2.344-62.109 5.859-27.356 3.516-45.904 6.445-55.664 8.789-9.778 2.344-18.567.787-26.367-4.688-7.818-5.457-6.262-8.002 4.688-7.617 10.932.402 32.41-1.758 64.453-6.445 32.024-5.456 51.745-9.374 59.178-11.718zm53.321-52.148c4.688-2.729 10.346-2.344 16.992 1.172 6.629 3.516 12.305 7.031 16.992 10.547s5.859 7.232 3.516 11.133c-2.344 3.918-4.303 8.203-5.859 12.891-1.574 4.688-3.332 16.607-5.273 35.742-1.959 19.152-4.889 33.984-8.789 44.531-3.918 10.547-10.748 19.135-20.508 25.781-9.777 6.629-15.051 6.244-15.82-1.172-.787-7.434-5.859-15.82-15.234-25.195s-7.818-11.316 4.688-5.859c12.488 5.475 20.893 6.262 25.195 2.344 4.285-3.9 8.002-14.832 11.133-32.813 3.113-17.963 4.486-32.025 4.102-42.188-.402-10.145-1.574-16.791-3.516-19.922-1.959-3.113-8.203-4.486-18.75-4.102-10.547.403-26.367 1.959-47.461 4.688-21.094 2.746-36.328 5.09-45.703 7.031-9.375 1.959-16.021 4.688-19.922 8.203-3.918 3.516-8.02 1.758-12.305-5.273-4.303-7.031-5.273-11.316-2.93-12.891 2.344-1.557 4.688-6.042 7.031-13.477 2.344-7.416 3.9-16.791 4.688-28.125.769-11.316-.201-20.105-2.93-26.367-2.747-6.244-.787-8.203 5.859-5.859 6.628 2.344 11.719 5.475 15.234 9.375 3.516 3.918 4.102 7.434 1.758 10.547-2.344 3.131-7.031 20.709-14.063 52.734.769 2.344 4.102 3.131 9.961 2.344 5.859-.769 25.195-3.113 58.008-7.031-3.918-8.588-4.889-15.234-2.93-19.922 1.941-4.688 4.102-12.104 6.445-22.266 2.344-10.144 4.102-20.893 5.273-32.227 1.172-11.316.385-17.578-2.344-18.75-2.746-1.172-12.506-.183-29.297 2.93-16.809 3.131-29.498 5.676-38.086 7.617-8.606 1.959-16.223.586-22.852-4.102-6.646-4.688-6.848-7.031-.586-7.031 7.031 0 16.003-.385 26.953-1.172 10.932-.769 22.064-2.344 33.398-4.688 11.316-2.344 19.922-5.072 25.781-8.203 5.859-3.113 11.133-3.516 15.82-1.172s9.559 5.273 14.648 8.789c5.072 3.516 5.273 7.434.586 11.719-4.688 4.303-8.404 14.465-11.133 30.469-2.746 16.021-6.848 34.973-12.305 56.836 24.997-2.343 39.847-4.869 44.535-7.616z"/></svg>