<?xml version="1.0" encoding="UTF-8" standalone="no"?>
<!-- Created with Inkscape (http://www.inkscape.org/) -->
<svg
   xmlns:dc="http://purl.org/dc/elements/1.1/"
   xmlns:cc="http://web.resource.org/cc/"
   xmlns:rdf="http://www.w3.org/1999/02/22-rdf-syntax-ns#"
   xmlns:svg="http://www.w3.org/2000/svg"
   xmlns="http://www.w3.org/2000/svg"
   xmlns:sodipodi="http://sodipodi.sourceforge.net/DTD/sodipodi-0.dtd"
   xmlns:inkscape="http://www.inkscape.org/namespaces/inkscape"
   width="300"
   height="300"
   id="svg2"
   sodipodi:version="0.32"
   inkscape:version="0.45"
   version="1.0"
   sodipodi:docbase="/home/michelet/Images"
   sodipodi:docname="馬-caoshu.svg"
   inkscape:output_extension="org.inkscape.output.svg.inkscape"
   sodipodi:modified="true">
  <defs
     id="defs4" />
  <sodipodi:namedview
     id="base"
     pagecolor="#ffffff"
     bordercolor="#666666"
     borderopacity="1.0"
     inkscape:pageopacity="0.0"
     inkscape:pageshadow="2"
     inkscape:zoom="0.98994949"
     inkscape:cx="538.93625"
     inkscape:cy="174.03551"
     inkscape:document-units="px"
     inkscape:current-layer="layer1"
     width="300px"
     height="300px"
     inkscape:window-width="1269"
     inkscape:window-height="941"
     inkscape:window-x="0"
     inkscape:window-y="27" />
  <metadata
     id="metadata7">
    <rdf:RDF>
      <cc:Work
         rdf:about="">
        <dc:format>image/svg+xml</dc:format>
        <dc:type
           rdf:resource="http://purl.org/dc/dcmitype/StillImage" />
      </cc:Work>
    </rdf:RDF>
  </metadata>
  <g
     inkscape:label="Calque 1"
     inkscape:groupmode="layer"
     id="layer1">
    <path
       style="fill:#000000;fill-rule:evenodd;stroke:#000000;stroke-width:1.14955914px;stroke-linecap:butt;stroke-linejoin:miter;stroke-opacity:1"
       d="M 111.05668,251.55635 C 121.97738,257.80555 136.86916,259.55752 150.64325,262.1795 C 186.12786,268.93422 217.57054,251.59502 224.2962,221.63981 C 230.96289,191.94725 236.63293,148.59081 181.91302,147.18359 C 181.36718,142.97671 190.02786,111.66037 195.32808,94.565428 C 195.63762,87.669209 193.81175,85.492652 190.42733,83.210061 C 183.3403,82.79087 167.526,90.302004 148.83453,90.216252 C 160.5002,81.559071 207.05537,46.542321 222.20156,38.535575 C 230.25824,34.276569 229.11261,34.410088 229.98985,29.278622 C 230.34193,27.219093 210.56761,26.392345 205.62057,26.363923 C 170.99118,26.164964 77.989319,32.88968 53.621728,45.449207 C 57.514555,67.120546 63.203687,63.050535 75.780508,65.16138 C 96.741872,44.193658 202.29598,29.426768 218.31645,31.959781 C 210.53079,34.352073 176.55462,73.670547 142.25683,93.858959 C 141.19431,100.08448 146.2712,100.64964 148.85259,100.4413 C 156.5067,98.178741 172.0074,97.643867 183.57294,95.008256 C 181.17736,105.28102 174.6225,142.81927 172.04144,151.81004 C 172.87648,153.66391 180.31287,155.78191 181.63342,153.96772 C 221.23922,154.25893 217.28121,194.46089 212.15876,218.13216 C 206.7687,243.04012 181.77477,256.69998 154.22553,254.30769 C 143.04961,253.3372 130.57175,249.79231 120.20923,245.04366 M 115.46621,242.71024 C 102.91128,236.04305 94.903979,227.65578 99.125031,220.52534 C 107.85208,205.78315 135.66202,199.67961 139.2554,215.44057 C 141.16099,223.79873 128.90504,232.35655 115.46621,242.71024 M 107.24003,249.25774 C 98.107121,256.87782 89.616326,265.51094 85.933519,275.69156 C 94.262687,265.54354 102.89739,257.77303 111.05668,251.55635 C 119.21599,245.33964 99.635223,258.8304 120.20923,245.04366 C 140.78322,231.25692 155.96009,226.1953 151.2241,213.76887 C 144.03734,194.91201 108.22479,194.10798 90.750646,218.8188 C 84.079588,228.25261 92.365758,239.78831 107.24003,249.25774"
       id="path2160"
       sodipodi:nodetypes="cssccccsscccccccccssccsscccccssc" />
  </g>
</svg>
