<?xml version="1.0" encoding="UTF-8" standalone="no"?>
<!-- Created with Inkscape (http://www.inkscape.org/) -->
<svg
   xmlns:dc="http://purl.org/dc/elements/1.1/"
   xmlns:cc="http://creativecommons.org/ns#"
   xmlns:rdf="http://www.w3.org/1999/02/22-rdf-syntax-ns#"
   xmlns:svg="http://www.w3.org/2000/svg"
   xmlns="http://www.w3.org/2000/svg"
   xmlns:sodipodi="http://sodipodi.sourceforge.net/DTD/sodipodi-0.dtd"
   xmlns:inkscape="http://www.inkscape.org/namespaces/inkscape"
   width="300"
   height="300"
   id="svg2458"
   sodipodi:version="0.32"
   inkscape:version="0.46"
   version="1.0"
   sodipodi:docname="馬-kaiti.svg"
   inkscape:output_extension="org.inkscape.output.svg.inkscape">
  <defs
     id="defs2460">
    <inkscape:perspective
       sodipodi:type="inkscape:persp3d"
       inkscape:vp_x="0 : 526.18109 : 1"
       inkscape:vp_y="0 : 1000 : 0"
       inkscape:vp_z="744.09448 : 526.18109 : 1"
       inkscape:persp3d-origin="372.04724 : 350.78739 : 1"
       id="perspective2466" />
  </defs>
  <sodipodi:namedview
     id="base"
     pagecolor="#ffffff"
     bordercolor="#666666"
     borderopacity="1.0"
     gridtolerance="10000"
     guidetolerance="10"
     objecttolerance="10"
     inkscape:pageopacity="0.0"
     inkscape:pageshadow="2"
     inkscape:zoom="1.8566667"
     inkscape:cx="150"
     inkscape:cy="150"
     inkscape:document-units="px"
     inkscape:current-layer="layer1"
     showgrid="false"
     inkscape:window-width="1280"
     inkscape:window-height="740"
     inkscape:window-x="0"
     inkscape:window-y="26" />
  <metadata
     id="metadata2463">
    <rdf:RDF>
      <cc:Work
         rdf:about="">
        <dc:format>image/svg+xml</dc:format>
        <dc:type
           rdf:resource="http://purl.org/dc/dcmitype/StillImage" />
      </cc:Work>
    </rdf:RDF>
  </metadata>
  <g
     inkscape:label="Layer 1"
     inkscape:groupmode="layer"
     id="layer1"
     transform="translate(-210.7695,-224.07839)">
    <path
       style="fill:#000000;fill-opacity:1"
       d="M 427.68934,521.30631 C 426.12073,519.86036 422.76954,515.34919 420.24237,511.28151 C 417.71519,507.21381 412.28514,498.83816 408.1757,492.66903 C 397.06337,475.98725 397.57213,475.01889 413.98083,481.61967 C 420.06532,484.06731 426.32846,486.19205 427.89893,486.34135 C 430.42558,486.5815 431.11849,486.33939 433.91752,484.23851 C 438.46418,480.82591 445.37195,472.77515 448.2944,467.48283 C 452.67049,459.55795 455.17378,450.22895 457.28462,433.97894 C 459.46513,417.19245 461.12933,389.06683 460.26545,383.60202 C 459.55839,379.12905 457.62773,376.31149 454.02944,374.50121 C 451.05323,373.00392 450.73183,372.97931 436.13175,373.13038 C 377.84948,373.73345 307.92982,383.44739 292.70858,393.05615 C 286.85871,396.749 283.74638,396.3225 279.39491,391.23171 C 276.59767,387.95921 274.47239,383.26499 273.25671,377.67398 C 272.56698,374.50177 272.63218,373.8382 273.99511,370.16097 C 277.50588,360.68887 280.26526,347.97032 281.76713,334.33811 C 282.71446,325.73953 283.85329,285.80851 283.49926,273.60468 C 283.2087,263.5889 283.05103,262.46452 281.20506,257.24377 C 280.11484,254.16047 278.63644,250.8142 277.91973,249.80773 C 274.7092,245.29896 275.34741,240.51189 279.33391,239.2004 C 282.76078,238.07306 291.1861,239.97709 297.93029,243.40295 C 300.72764,244.82395 299.74505,244.84848 320.35859,242.84291 C 335.01606,241.41683 349.70194,239.47441 370.02085,236.27443 C 391.30225,232.92283 395.7702,232.05016 413.32131,227.81697 C 418.8926,226.47316 422.10118,226.93287 429.86071,230.1865 C 437.03855,233.19623 439.85088,236.72947 437.18806,239.39223 C 434.17507,242.40524 403.97061,248.03693 372.40531,251.47116 L 368.46334,251.90003 L 370.29849,253.73518 C 372.87207,256.30875 373.10687,258.29159 371.68544,265.4481 C 370.31713,272.3372 369.67027,280.24739 370.47522,280.24739 C 370.75809,280.24739 377.3194,279.21991 385.05592,277.96408 C 392.79242,276.70826 401.11508,275.64849 403.55078,275.60899 C 414.27111,275.43527 430.49478,280.8547 430.94739,284.76067 C 431.0853,285.9507 430.66344,286.80227 429.47146,287.73986 C 426.01194,290.46114 421.005,291.7288 408.92823,292.94102 C 402.49111,293.58716 390.91531,294.88367 383.20429,295.82216 L 369.18422,297.52847 L 368.79698,304.86207 C 368.58401,308.89558 368.25139,313.97502 368.05782,316.14973 C 367.76474,319.44303 367.86894,320.10372 368.68167,320.10372 C 369.21835,320.10372 376.28703,319.0902 384.38988,317.85144 C 404.82855,314.7268 407.68905,314.58594 416.5199,316.26919 C 424.4249,317.77599 432.42921,321.077 433.63333,323.32693 C 434.16552,324.32142 434.09463,324.96675 433.32388,326.14309 C 431.01231,329.67096 425.10337,331.232 408.29558,332.75515 C 394.41227,334.01331 367.70823,337.07251 367.33288,337.44788 C 367.08688,337.69386 365.95712,356.42413 365.92851,360.73101 C 365.91446,362.84681 366.13901,363.63806 366.69947,363.44795 C 368.46782,362.84815 397.7158,359.9152 414.11883,358.69283 C 423.75877,357.97446 436.28502,356.8166 441.95501,356.11987 C 460.62064,353.82616 460.99718,353.82707 467.1311,356.17932 C 481.08889,361.53188 493.91473,368.80017 495.11161,372.03566 C 495.84499,374.01822 495.18409,376.09001 491.49661,383.36773 C 486.24466,393.73316 484.34274,402.09215 482.64394,422.2751 C 480.44041,448.45483 478.22825,462.2093 474.0429,475.75388 C 468.36256,494.13671 462.44424,503.76309 450.79502,513.56727 C 445.14565,518.32196 437.05691,522.81922 432.8621,523.53777 C 430.76956,523.89615 430.26104,523.67683 427.68934,521.30631 z M 318.65669,370.43976 C 328.46555,368.89662 338.8396,367.29808 341.7102,366.88747 L 346.92948,366.14089 L 346.92948,352.85639 L 346.92948,339.5719 L 344.24077,339.96048 C 337.32987,340.9592 319.95259,342.24035 313.39955,342.23422 C 309.15237,342.23023 304.44035,341.83054 302.07874,341.27382 C 299.85372,340.74934 297.94924,340.40428 297.8465,340.50699 C 297.40342,340.95009 296.22656,367.88399 296.57431,369.62278 C 297.06356,372.06894 298.04514,373.24549 299.5968,373.24549 C 300.27094,373.24549 308.84788,371.98294 318.65669,370.43976 z M 322.73099,326.32959 L 346.29685,323.65179 L 346.29685,312.07185 C 346.29685,305.70285 346.08335,300.49247 345.82237,300.49313 C 345.56141,300.49383 341.21989,300.94362 336.1746,301.4926 C 324.66829,302.74468 308.70657,302.7787 303.77721,301.56165 L 300.16494,300.66983 L 299.83414,303.26958 C 299.55473,305.46532 298.21619,326.14427 298.21619,328.26502 C 298.21619,328.64765 298.42968,328.97121 298.69066,328.984 C 298.95164,328.99687 309.76978,327.80235 322.73099,326.32959 z M 323.83812,286.88536 C 333.92873,285.68295 343.1099,284.53872 344.24077,284.34254 L 346.29685,283.9859 L 346.29685,276.77036 C 346.29685,268.76253 345.603,264.61568 343.44768,259.74211 C 341.20992,254.68215 341.44464,254.75787 330.68841,255.6263 C 325.52896,256.04284 317.88143,256.22195 313.69397,256.02433 L 306.0804,255.66494 L 304.68474,259.57368 C 303.40412,263.16028 302.15752,271.83694 301.05318,284.85039 L 300.63574,289.76969 L 303.06362,289.4206 C 304.39899,289.22859 313.74751,288.08774 323.83812,286.88536 z M 230.20738,479.22922 C 223.80811,477.51418 220.37545,470.80381 220.42368,460.1035 C 220.45498,453.15676 221.63903,448.49397 225.12736,441.58039 C 230.43101,431.069 236.14385,417.64692 238.50472,410.1509 C 239.79508,406.05378 241.19943,402.72746 241.72376,402.52625 C 243.21727,401.95317 245.34484,404.78536 247.79471,410.60783 C 251.83105,420.20093 252.87789,425.12628 252.49303,432.71367 C 251.69582,448.43063 244.65668,470.65149 238.41432,477.15663 C 237.1622,478.46147 235.8943,479.52904 235.5967,479.52904 C 235.29912,479.52904 234.6765,479.65233 234.21312,479.80298 C 233.74972,479.95365 231.94715,479.69548 230.20738,479.22922 z M 301.64387,452.38152 C 299.74443,451.56066 295.37813,446.46413 291.56893,440.62164 C 286.68468,433.1303 278.60434,418.38349 278.60434,416.96102 C 278.60434,415.08607 280.34271,413.73446 282.75411,413.73446 C 285.48864,413.73446 295.89997,417.02906 301.6957,419.7284 C 308.36761,422.83582 311.09983,425.1255 313.17232,429.34623 C 314.79616,432.65324 314.98114,433.677 314.98114,439.35639 C 314.98114,446.41953 314.18488,448.69909 310.90088,451.03754 C 308.81461,452.5231 303.69234,453.26676 301.64387,452.38152 z M 357.17502,446.24096 C 353.05999,444.14243 345.08913,433.72679 335.93467,418.48598 C 332.36672,412.5459 331.93201,411.48809 332.52444,410.18787 C 333.85743,407.26221 337.39151,407.44636 348.51109,411.02076 C 366.43716,416.78313 371.60242,421.98507 371.60242,434.27605 C 371.60242,439.38432 369.96361,443.4638 367.06292,445.57591 C 364.74036,447.26714 359.83426,447.59707 357.17502,446.24096 z M 413.50917,440.23593 C 410.01962,438.50861 402.83335,431.43895 396.87946,423.876 C 389.31926,414.27264 382.99347,405.27937 382.99168,404.1319 C 382.98479,399.80586 390.09612,400.21909 406.59204,405.50321 C 419.68232,409.69639 425.17857,413.32132 427.96747,419.60091 C 430.11289,424.43159 430.07064,432.53966 427.87965,436.45432 C 425.09821,441.42399 419.09878,443.00273 413.50917,440.23593 z"
       id="path2441"
       inkscape:label="Ma" />
  </g>
</svg>
