<?xml version="1.0" encoding="UTF-8" standalone="no"?>
<!-- Created with Inkscape (http://www.inkscape.org/) -->
<svg
   xmlns:dc="http://purl.org/dc/elements/1.1/"
   xmlns:cc="http://web.resource.org/cc/"
   xmlns:rdf="http://www.w3.org/1999/02/22-rdf-syntax-ns#"
   xmlns:svg="http://www.w3.org/2000/svg"
   xmlns="http://www.w3.org/2000/svg"
   xmlns:sodipodi="http://sodipodi.sourceforge.net/DTD/sodipodi-0.dtd"
   xmlns:inkscape="http://www.inkscape.org/namespaces/inkscape"
   width="300"
   height="300"
   id="svg2"
   sodipodi:version="0.32"
   inkscape:version="0.45.1"
   version="1.0"
   sodipodi:docbase="C:\Documents and Settings\Martin\桌面"
   sodipodi:docname="drawing.svg"
   inkscape:output_extension="org.inkscape.output.svg.inkscape">
  <defs
     id="defs4" />
  <sodipodi:namedview
     id="base"
     pagecolor="#ffffff"
     bordercolor="#666666"
     borderopacity="1.0"
     gridtolerance="10000"
     guidetolerance="10"
     objecttolerance="10"
     inkscape:pageopacity="0.0"
     inkscape:pageshadow="2"
     inkscape:zoom="0.92866688"
     inkscape:cx="189.71421"
     inkscape:cy="138.58066"
     inkscape:document-units="px"
     inkscape:current-layer="layer1"
     width="300px"
     height="300px"
     inkscape:window-width="742"
     inkscape:window-height="577"
     inkscape:window-x="22"
     inkscape:window-y="0" />
  <metadata
     id="metadata7">
    <rdf:RDF>
      <cc:Work
         rdf:about="">
        <dc:format>image/svg+xml</dc:format>
        <dc:type
           rdf:resource="http://purl.org/dc/dcmitype/StillImage" />
      </cc:Work>
    </rdf:RDF>
  </metadata>
  <g
     inkscape:label="Layer 1"
     inkscape:groupmode="layer"
     id="layer1">
    <path
       style="fill:#000000"
       d="M 190.6131,248.48795 C 165.96731,245.92242 157.66313,243.39759 140.38068,233.21513 C 131.02899,227.70531 126.83594,223.37507 127.8645,220.2894 C 128.1257,219.50581 139.9619,219.22411 168.67524,219.3181 C 192.23668,219.39523 210.64525,219.04357 212.77673,218.47563 C 214.92437,217.90338 217.76928,215.98155 219.66516,213.82225 C 225.64486,207.01175 233.61808,187.4222 233.61808,179.54107 C 233.61808,175.94363 231.18411,172.87057 227.32645,171.59743 C 222.72707,170.0795 198.78494,167.58581 182.11808,166.88875 C 171.88425,166.46075 161.72255,166.87158 144.34395,168.41595 C 131.26818,169.57794 118.23054,170.52866 115.37142,170.52866 C 108.43041,170.52866 82.59187,176.10335 75.26505,179.18166 C 68.32995,182.09538 65.56642,181.92804 63.92663,178.49512 C 62.88234,176.30889 63.26343,174.25359 66.70657,163.50221 C 74.81116,138.19521 78.25302,115.46579 77.141,94.595165 C 76.51717,82.88699 73.8592,77.92022 66.33029,74.393865 C 57.90132,70.445948 52.78288,62.214695 57.21468,59.734537 C 58.21148,59.176698 61.12293,59.384235 64.96468,60.286983 C 73.30963,62.247907 98.77986,60.501601 114.23174,56.909103 C 120.21923,55.517038 133.89308,53.362831 144.61808,52.121977 C 162.11487,50.097645 166.42948,49.948428 186.61808,50.669444 C 204.89782,51.322287 212.93462,52.111341 229.4657,54.876233 C 252.14258,58.669035 253.36664,59.23512 254.32394,66.372342 C 255.04663,71.760396 253.859,73.065018 246.03019,75.483091 C 238.30767,77.868334 236.45888,77.9383 215.61808,76.634003 C 194.17157,75.291797 175.98585,75.261466 173.55234,76.563843 C 171.32677,77.754931 170.98137,81.75535 172.96217,83.399265 C 173.77591,84.074608 183.34448,84.919863 197.21217,85.541427 C 234.24424,87.201242 242.07919,88.652099 245.05166,94.400221 C 247.24164,98.635178 247.01527,100.80803 244.05086,104.00669 C 241.49477,106.76476 241.44164,106.77407 231.80086,106.15313 C 226.47533,105.81013 210.58307,105.43064 196.48473,105.30982 C 176.26037,105.1365 170.51025,105.37326 169.23473,106.43185 C 167.00703,108.28068 167.2111,110.13019 169.84648,111.97608 C 171.63795,113.23088 173.84377,113.42161 181.09648,112.94881 C 191.76161,112.25356 234.31903,115.03558 236.14028,116.54708 C 236.83472,117.12342 237.96988,118.96376 238.66285,120.63674 C 239.82213,123.43548 239.70913,123.89222 237.24856,126.35358 L 234.57433,129.02866 L 201.9306,129.7376 C 176.97342,130.2796 169.094,130.75054 168.46779,131.7376 C 166.83364,134.3134 167.51035,140.40064 169.55234,141.49348 C 170.65643,142.08437 178.48917,142.53309 187.80234,142.53898 C 208.17766,142.55186 224.26884,143.90933 241.53085,147.07157 C 248.90787,148.42297 257.23287,149.53117 260.03085,149.53424 C 265.58535,149.54033 272.21004,151.05941 273.12281,152.53632 C 274.46779,154.71254 270.41818,159.51792 264.64705,162.5939 C 255.20018,167.62903 250.93504,175.93419 243.54908,203.67624 C 235.89387,232.42961 231.31875,240.17853 218.11808,246.74899 C 211.01506,250.28442 209.059,250.40809 190.6131,248.48795 z M 126.20319,146.60826 C 135.6,145.60025 144.25719,144.25699 145.44139,143.62322 C 150.55511,140.88644 148.51482,133.16023 142.37565,132.01381 C 138.06953,131.2097 109.58271,134.96145 102.71145,137.23765 C 96.20564,139.39278 92.81351,143.15679 94.51387,146.33394 C 96.36522,149.79322 96.50157,149.7944 126.20319,146.60826 z M 124.11808,117.52866 C 132.73889,115.87866 140.87808,114.52866 142.20518,114.52866 C 147.46347,114.52866 150.84821,107.30575 146.36808,105.6452 C 142.04145,104.04154 105.89874,108.36929 100.43895,111.14479 C 94.16027,114.33656 96.93357,120.52866 104.64177,120.52866 C 106.73293,120.52866 115.49727,119.17866 124.11808,117.52866 z M 114.61808,89.471621 C 118.19308,88.912368 126.29308,88.077818 132.61808,87.617067 C 145.29387,86.693685 149.37085,85.361888 150.25046,81.85722 C 151.3754,77.375111 149.88941,74.690234 145.56702,73.395214 C 142.2737,72.408511 139.11644,72.504022 128.32673,73.916753 C 111.94809,76.06126 105.05036,77.359669 100.86808,79.085491 C 98.15128,80.20658 97.61808,80.955259 97.61808,83.648892 C 97.61808,90.30414 101.27952,91.558232 114.61808,89.471621 z M 35.61808,225.66736 C 34.2075,225.2694 31.70183,222.8574 29.86808,220.13234 C 27.02783,215.91155 26.61808,214.48087 26.61808,208.7848 L 26.61808,202.26698 L 30.35676,202.87368 C 32.7059,203.25489 36.1338,202.83894 39.57978,201.75452 C 43.99169,200.36614 46.33584,198.70874 51.56762,193.27866 C 55.14454,189.56616 58.85335,186.52866 59.80942,186.52866 C 62.40071,186.52866 63.61808,189.68877 63.61808,196.41539 C 63.61808,201.62492 62.97982,203.68147 58.86808,211.72042 C 54.91354,219.45202 53.44822,221.36899 50.11808,223.16742 C 45.56747,225.62496 39.29869,226.70575 35.61808,225.66736 z M 94.44913,212.49392 C 93.53121,211.95826 92.02644,209.54635 91.1052,207.13411 C 89.09534,201.87137 89.30578,201.36094 97.80981,190.87194 C 103.97425,183.26863 106.11332,182.20844 108.95475,185.34818 C 110.98344,187.58986 112.83004,196.79238 111.9712,200.38064 C 109.7496,209.66253 100.52509,216.03958 94.44913,212.49392 z M 193.03675,207.49839 C 189.16198,206.31697 187.72077,204.68407 183.11016,196.25149 C 179.50458,189.65705 175.21287,175.99332 176.23016,174.34731 C 177.06895,172.99013 183.28917,173.42742 184.53729,174.93131 C 185.17754,175.70277 188.21087,177.52215 191.27801,178.97437 C 199.81309,183.01554 208.17937,189.08274 210.58568,192.97624 C 213.84705,198.25324 213.0216,201.32118 207.41603,204.7569 C 202.10915,208.00954 197.55864,208.87712 193.03675,207.49839 z M 135.69481,203.93977 C 131.94399,200.78366 131.73509,197.59569 134.87628,191.44814 C 137.4712,186.36968 145.33145,175.52121 146.39962,175.54397 C 149.95706,175.61979 151.61808,180.75983 151.61808,191.69255 C 151.61808,200.50891 151.54336,200.79604 148.51232,203.62745 C 144.48587,207.38872 139.9257,207.49983 135.69481,203.93977 z "
       id="path2185" />
  </g>
</svg>
