<?xml version="1.0" encoding="utf-8"?>
<!-- Generator: Adobe Illustrator 16.0.3, SVG Export Plug-In . SVG Version: 6.00 Build 0)  -->
<!DOCTYPE svg PUBLIC "-//W3C//DTD SVG 1.1//EN" "http://www.w3.org/Graphics/SVG/1.1/DTD/svg11.dtd">
<svg version="1.1" id="Layer_1" xmlns="http://www.w3.org/2000/svg" xmlns:xlink="http://www.w3.org/1999/xlink" x="0px" y="0px"
	 width="300px" height="300px" viewBox="0 0 300 300" enable-background="new 0 0 300 300" xml:space="preserve">
<g>
	<path d="M166.992,184.314c7.416-2.344,14.063-2.344,19.922,0s10.145,5.475,12.891,9.375c2.729,3.918-2.93,6.061-16.992,6.445
		c-14.063,0.402-34.771,2.344-62.109,5.859c-27.356,3.516-45.904,6.445-55.664,8.789c-9.778,2.344-18.567,0.787-26.367-4.688
		c-7.818-5.457-6.262-8.002,4.688-7.617c10.932,0.402,32.41-1.758,64.453-6.445C139.838,190.576,159.559,186.658,166.992,184.314z
		 M220.313,132.166c4.688-2.729,10.346-2.344,16.992,1.172c6.629,3.516,12.305,7.031,16.992,10.547s5.859,7.232,3.516,11.133
		c-2.344,3.918-4.303,8.203-5.859,12.891c-1.574,4.688-3.332,16.607-5.273,35.742c-1.959,19.152-4.889,33.984-8.789,44.531
		c-3.918,10.547-10.748,19.135-20.508,25.781c-9.777,6.629-15.051,6.244-15.82-1.172c-0.787-7.434-5.859-15.82-15.234-25.195
		s-7.818-11.316,4.688-5.859c12.488,5.475,20.893,6.262,25.195,2.344c4.285-3.9,8.002-14.832,11.133-32.813
		c3.113-17.963,4.486-32.025,4.102-42.188c-0.402-10.145-1.574-16.791-3.516-19.922c-1.959-3.113-8.203-4.486-18.75-4.102
		c-10.547,0.403-26.367,1.959-47.461,4.688c-21.094,2.746-36.328,5.09-45.703,7.031c-9.375,1.959-16.021,4.688-19.922,8.203
		c-3.918,3.516-8.02,1.758-12.305-5.273c-4.303-7.031-5.273-11.316-2.93-12.891c2.344-1.557,4.688-6.042,7.031-13.477
		c2.344-7.416,3.9-16.791,4.688-28.125c0.769-11.316-0.201-20.105-2.93-26.367c-2.747-6.244-0.787-8.203,5.859-5.859
		c6.628,2.344,11.719,5.475,15.234,9.375c3.516,3.918,4.102,7.434,1.758,10.547c-2.344,3.131-7.031,20.709-14.063,52.734
		c0.769,2.344,4.102,3.131,9.961,2.344c5.859-0.769,25.195-3.113,58.008-7.031c-3.918-8.588-4.889-15.234-2.93-19.922
		c1.941-4.688,4.102-12.104,6.445-22.266c2.344-10.144,4.102-20.893,5.273-32.227c1.172-11.316,0.385-17.578-2.344-18.75
		c-2.746-1.172-12.506-0.183-29.297,2.93c-16.809,3.131-29.498,5.676-38.086,7.617c-8.606,1.959-16.223,0.586-22.852-4.102
		c-6.646-4.688-6.848-7.031-0.586-7.031c7.031,0,16.003-0.385,26.953-1.172c10.932-0.769,22.064-2.344,33.398-4.688
		c11.316-2.344,19.922-5.072,25.781-8.203c5.859-3.113,11.133-3.516,15.82-1.172s9.559,5.273,14.648,8.789
		c5.072,3.516,5.273,7.434,0.586,11.719c-4.688,4.303-8.404,14.465-11.133,30.469c-2.746,16.021-6.848,34.973-12.305,56.836
		C200.775,137.439,215.625,134.913,220.313,132.166z"/>
</g>
</svg>
