<svg xmlns="http://www.w3.org/2000/svg" width="300" height="300" version="1"><path d="M190.613 248.488c-24.646-2.566-32.95-5.09-50.232-15.273-9.352-5.51-13.545-9.84-12.516-12.926.26-.783 12.097-1.065 40.81-.97 23.562.076 41.97-.275 44.102-.843 2.147-.573 4.992-2.494 6.888-4.654 5.98-6.81 13.953-26.4 13.953-34.28 0-3.598-2.434-6.671-6.292-7.945-4.599-1.518-28.541-4.011-45.208-4.708-10.234-.428-20.395-.017-37.774 1.527-13.076 1.162-26.113 2.113-28.973 2.113-6.94 0-32.78 5.574-40.106 8.653-6.935 2.913-9.699 2.746-11.338-.687-1.045-2.186-.664-4.241 2.78-14.993 8.104-25.307 11.546-48.036 10.434-68.907-.624-11.708-3.282-16.675-10.81-20.201-8.43-3.948-13.548-12.18-9.116-14.66.996-.557 3.908-.35 7.75.553 8.345 1.96 33.815.215 49.267-3.378 5.987-1.392 19.661-3.546 30.386-4.787 17.497-2.024 21.811-2.174 42-1.453 18.28.653 26.317 1.442 42.848 4.207 22.677 3.793 23.9 4.36 24.858 11.496.723 5.388-.465 6.693-8.294 9.111-7.722 2.385-9.571 2.455-30.412 1.151-21.446-1.342-39.632-1.373-42.066-.07-2.225 1.19-2.57 5.191-.59 6.835.814.676 10.382 1.52 24.25 2.142 37.032 1.66 44.867 3.111 47.84 8.86 2.19 4.234 1.963 6.407-1.001 9.606-2.556 2.758-2.61 2.767-12.25 2.146-5.326-.343-21.218-.722-35.316-.843-20.225-.174-25.975.063-27.25 1.122-2.228 1.849-2.024 3.698.611 5.544 1.792 1.255 3.998 1.446 11.25.973 10.666-.695 53.223 2.087 55.044 3.598.695.576 1.83 2.417 2.523 4.09 1.16 2.798 1.046 3.255-1.414 5.717l-2.675 2.675-32.643.709c-24.958.542-32.837 1.013-33.463 2-1.634 2.575-.958 8.663 1.084 9.755 1.104.591 8.937 1.04 18.25 1.046 20.376.013 36.467 1.37 53.729 4.533 7.377 1.351 15.702 2.46 18.5 2.462 5.554.006 12.179 1.525 13.092 3.002 1.345 2.177-2.705 6.982-8.476 10.058-9.447 5.035-13.712 13.34-21.098 41.082-7.655 28.754-12.23 36.503-25.43 43.073-7.104 3.535-9.06 3.66-27.506 1.739zm-64.41-101.88c9.397-1.008 18.054-2.351 19.238-2.985 5.114-2.737 3.074-10.463-3.065-11.61-4.306-.803-32.793 2.948-39.665 5.225-6.505 2.155-9.897 5.919-8.197 9.096 1.851 3.46 1.988 3.46 31.69.274zm-2.085-29.08c8.62-1.65 16.76-3 18.087-3 5.258 0 8.643-7.222 4.163-8.883-4.327-1.603-40.47 2.724-45.929 5.5-6.279 3.192-3.505 9.384 4.203 9.384 2.09 0 10.855-1.35 19.476-3zm-9.5-28.056c3.575-.56 11.675-1.394 18-1.855 12.676-.923 16.753-2.255 17.632-5.76 1.125-4.482-.36-7.167-4.683-8.462-3.293-.986-6.45-.891-17.24.522-16.379 2.144-23.277 3.443-27.459 5.168-2.717 1.122-3.25 1.87-3.25 4.564 0 6.655 3.662 7.91 17 5.823zm-79 136.195c-1.41-.398-3.916-2.81-5.75-5.535-2.84-4.22-3.25-5.651-3.25-11.347v-6.518l3.739.607c2.349.38 5.777-.035 9.223-1.12 4.412-1.388 6.756-3.045 11.988-8.475 3.577-3.713 7.285-6.75 8.241-6.75 2.592 0 3.81 3.16 3.81 9.886 0 5.21-.64 7.266-4.75 15.305-3.955 7.732-5.42 9.649-8.75 11.447-4.552 2.458-10.82 3.539-14.5 2.5zm58.831-13.173c-.918-.536-2.423-2.948-3.344-5.36-2.01-5.263-1.8-5.773 6.705-16.262 6.164-7.603 8.303-8.664 11.145-5.524 2.028 2.242 3.875 11.444 3.016 15.033-2.221 9.282-11.446 15.659-17.522 12.113zm98.588-4.996c-3.875-1.181-5.316-2.814-9.927-11.247-3.605-6.594-7.897-20.258-6.88-21.904.839-1.357 7.06-.92 8.307.584.64.772 3.674 2.591 6.741 4.043 8.535 4.042 16.901 10.109 19.308 14.002 3.261 5.277 2.436 8.345-3.17 11.78-5.307 3.254-9.857 4.121-14.38 2.742zm-57.342-3.558c-3.751-3.156-3.96-6.344-.819-12.492 2.595-5.078 10.455-15.927 11.524-15.904 3.557.076 5.218 5.216 5.218 16.149 0 8.816-.075 9.103-3.106 11.934-4.026 3.762-8.586 3.873-12.817.313z"/></svg>