<svg xmlns="http://www.w3.org/2000/svg" version="1" width="300" height="300"><path d="M151.255 285.242c-.674-6.239 16.495-18.141 2.58-16.72-9.022 5.162-21.45 5.497-31.059 1.616-14.321-7.1 8.163-10.19 14.632-9.809 4.444-.613 13.276-2.608 6.129-6.68-3.938-4.876-12.82-9.808-10.863-16.149 9.51-1.835 16.71 7.62 25.295 10.618 3.337 2.332 5.16 4.699 10.296.636 4.768-3.95 10.706-6.913 1.94-10.122-8.41-3.08-15.887-5.143-25.437-10.084-10.978-5.574-23.546-5.62-35.235-8.81-6.418 2.445 4.502 17.06-2.678 23.681-2.128 4.056-8.748-8.594-10.087-11.734-5.387-10.83-6.215-23.333-6.849-35.327 1.24-6.434-4.067-24.01 4.374-22.998 6.568 8.618 1.147 22.996 11.651 29.231 12.575 7.346 27.666 7.516 41.622 10.23 1.665-7.852-7.904-20.226-9.62-30.089-5.756-16.576-.88-34.212-2.908-51.16-6.713-7.755-19.858-6.474-29.27-10.502-13.877-7.424-.619 18.083-11.407 18.422-6.594-9.764-7-21.964-3.963-33.03.784-4.969 3.35-22.693 9.69-14.399-2.123 10.816 4.403 17.476 15.242 17.163 14.24 2.357 28.23 6.266 42.526 8.139 6.741-5.478-4.328-18.237-4.275-26.742-7.429-7.52-23.676 1.127-32.889-7.312-6.104-7.423-15.783-10.784-23.908-4.191-13.228-.44-10.918-15.082-14.25-23.8-.975-7.176 10.606-8.232 2.446-15.926-2.525-3.335-4.042-6.547.343-9.04 7.298-8.046 19.53-2.195 28.928-2.694 13.37.822 26.263 4.409 38.943 8.422 13.006 1.15 26.466.369 39.118-2.993 10.072-2.98 18.859-8.28 24.117-17.688 8.813-5.173 6.168 14.609 5.647 20.116-.655 10.707-6.37 20.071-14.397 26.932-5.558 7.179-21.425 11.014-18.38 21.858 9.731 6.342 24.63 3.515 31.612 14.374-3.763 8.05-18.516-.106-25.77-1.983-7.574-2.013-1.867 12.738 5.295 9.863 6.626 2.026 28.16 4.117 19.862 13.43-9.32 1.041-20.577-4.745-27.429-7.67-5.29 11.56-7.701 24.176-7.76 36.845-3.997 11.891-4.789 24.094 2.576 34.87 6.65 15.556 7.315 32.943 5.795 49.56-2.271 10.363-8.36 19.82-17.913 24.646-4.204 8.854-7.192 19.058-15.147 25.69-2.144 1.976-7.385 5.834-9.165 1.31zm33.687-53.724c-3.41-17.654-5.158-35.891-12.992-52.345-5.715-10.848 1.425-21.512 3.698-31.922-1.009-3.697 1.088-12.36-3.22-13.275-7.75-.173-15.568-1.18-23.28-.164-3.558 10.524-2.182 22.297-1.382 33.242 1.706 11.098 3.692 22.533 9.12 32.426 3.82 8.83 9.956 17.89 12.91 27.746 1.739 2.389 17.69 12.853 15.146 4.292zm-5.744-125.373c1.574-7.539-2.29-29.415-12.699-19.958.27 9.66 3.124 19.535 7.38 28.29 6.144 13.112 4.935-3.92 5.32-8.332zm-30.721-33.177c-2.11-9.446-.062-25.461-12.232-27.877-11.39-4.066-23.842-7.72-36.048-5.68 4.202 3.264 12.433 11.5 1.995 14.735-7.078-.72-11.732 5.824-3.673 9.137 8.557-4.466 22.124-5.479 25.926 5.434 6.036 7.261 15.87 5.899 24.032 4.25zm26.362-3.658c3.443-8.698 5.171-23.826-9.937-21.511-12.476 1.91-6.9 21.729-.506 23.724 3.523-.409 7.089-1.039 10.443-2.213zm24.659-14.458c4.186-2.731 15.516-17.943 3.137-12.043-9.916.152-19.524 13.527-11.254 19.067 2.92-2.076 5.532-4.554 8.117-7.024zm-.854 94.23c-12.359-4.74-15.27-11.282 1.267-8.594 8.554 1.6 23.45 3.516 24.476 11.926-8.634.565-17.816.616-25.743-3.332zm11.465-14.304c-30.068-9.076-22.297-13.906-2.523-10.346 5.685 1.293 23.71 6.419 15.739 12.29-4.465.308-9.01-.454-13.216-1.944z"/></svg>