<svg xmlns="http://www.w3.org/2000/svg" width="300" height="300" version="1"><path d="M216.92 297.228c-1.569-1.446-4.92-5.957-7.447-10.025-2.527-4.068-7.957-12.443-12.067-18.612-11.112-16.682-10.603-17.65 5.805-11.05 6.085 2.448 12.348 4.573 13.918 4.722 2.527.24 3.22-.002 6.019-2.103 4.547-3.412 11.454-11.463 14.377-16.756 4.376-7.924 6.88-17.253 8.99-33.503 2.18-16.787 3.845-44.913 2.981-50.377-.707-4.473-2.638-7.29-6.236-9.101-2.976-1.497-3.298-1.522-17.898-1.371-58.282.603-128.202 10.317-143.423 19.926-5.85 3.693-8.962 3.266-13.314-1.825-2.797-3.272-4.922-7.966-6.138-13.557-.69-3.173-.624-3.836.739-7.513 3.51-9.473 6.27-22.191 7.772-35.823.947-8.599 2.086-48.53 1.732-60.734-.29-10.015-.448-11.14-2.294-16.36-1.09-3.084-2.57-6.43-3.286-7.437-3.21-4.508-2.572-9.296 1.414-10.607 3.427-1.127 11.853.777 18.597 4.203 2.797 1.42 1.815 1.445 22.428-.56 14.658-1.427 29.343-3.369 49.662-6.569 21.282-3.352 25.75-4.224 43.3-8.457 5.572-1.344 8.78-.885 16.54 2.37 7.178 3.009 9.99 6.542 7.328 9.205-3.013 3.013-33.218 8.645-64.783 12.079l-3.942.429 1.835 1.835c2.574 2.573 2.808 4.556 1.387 11.713-1.368 6.889-2.015 14.799-1.21 14.799.283 0 6.844-1.027 14.58-2.283 7.737-1.256 16.06-2.316 18.495-2.355 10.72-.174 26.944 5.245 27.397 9.151.138 1.19-.284 2.042-1.476 2.98-3.46 2.72-8.466 3.988-20.543 5.2-6.437.647-18.013 1.943-25.724 2.882l-14.02 1.706-.388 7.334c-.212 4.033-.545 9.113-.739 11.287-.293 3.294-.189 3.954.624 3.954.537 0 7.606-1.013 15.708-2.252 20.44-3.125 23.3-3.265 32.13-1.582 7.905 1.507 15.91 4.808 17.114 7.058.532.994.461 1.64-.31 2.816-2.311 3.528-8.22 5.089-25.028 6.612-13.883 1.258-40.587 4.317-40.963 4.692-.246.246-1.375 18.977-1.404 23.284-.014 2.115.21 2.907.771 2.717 1.768-.6 31.016-3.533 47.42-4.756 9.64-.718 22.166-1.876 27.836-2.573 18.665-2.293 19.042-2.292 25.176.06 13.957 5.352 26.783 12.62 27.98 15.856.733 1.983.073 4.055-3.615 11.332-5.252 10.366-7.154 18.725-8.853 38.908-2.203 26.18-4.415 39.934-8.6 53.478-5.68 18.383-11.6 28.01-23.248 37.814-5.65 4.755-13.739 9.252-17.933 9.97-2.093.359-2.601.14-5.173-2.231zM107.887 146.36c9.81-1.543 20.183-3.141 23.054-3.552l5.219-.746v-26.569l-2.689.388c-6.91.999-24.288 2.28-30.841 2.274-4.247-.004-8.96-.404-11.32-.96-2.226-.525-4.13-.87-4.233-.767-.443.443-1.62 27.377-1.272 29.115.49 2.447 1.47 3.623 3.022 3.623.674 0 9.251-1.262 19.06-2.806zm4.074-44.11l23.566-2.678v-11.58c0-6.369-.213-11.579-.474-11.578-.261 0-4.603.45-9.648 1-11.506 1.251-27.468 1.285-32.397.068l-3.613-.892-.33 2.6c-.28 2.196-1.618 22.875-1.618 24.996 0 .382.213.706.474.719.261.012 11.08-1.182 24.04-2.655zm1.108-39.444c10.09-1.202 19.271-2.347 20.402-2.543l2.056-.356v-7.216c0-8.008-.693-12.155-2.849-17.028-2.238-5.06-2.003-4.985-12.76-4.116-5.159.416-12.806.596-16.994.398l-7.613-.36-1.396 3.91c-1.28 3.586-2.527 12.263-3.631 25.276l-.418 4.92 2.428-.35c1.335-.192 10.684-1.333 20.775-2.535zM19.438 255.151c-6.4-1.715-9.832-8.426-9.784-19.126.031-6.947 1.216-11.61 4.704-18.523 5.304-10.511 11.016-23.933 13.377-31.43 1.29-4.097 2.695-7.423 3.22-7.624 1.493-.573 3.62 2.259 6.07 8.081 4.037 9.594 5.083 14.519 4.699 22.106-.798 15.717-7.837 37.938-14.08 44.443-1.251 1.305-2.52 2.373-2.817 2.373-.297 0-.92.123-1.383.274-.464.15-2.266-.108-4.006-.574zm71.436-26.848c-1.9-.82-6.265-5.917-10.075-11.76-4.884-7.491-12.964-22.238-12.964-23.66 0-1.875 1.738-3.227 4.15-3.227 2.734 0 13.145 3.295 18.941 5.994 6.672 3.107 9.404 5.397 11.477 9.618 1.624 3.307 1.809 4.33 1.809 10.01 0 7.063-.797 9.343-4.08 11.681-2.087 1.486-7.21 2.23-9.258 1.344zm55.532-6.14c-4.116-2.099-12.086-12.515-21.24-27.755-3.569-5.94-4.003-6.998-3.411-8.299 1.333-2.925 4.867-2.741 15.987.833 17.926 5.763 23.09 10.965 23.09 23.256 0 5.108-1.638 9.187-4.539 11.3-2.322 1.69-7.228 2.02-9.887.665zm56.334-6.005c-3.49-1.728-10.676-8.797-16.63-16.36-7.56-9.604-13.886-18.597-13.888-19.744-.007-4.327 7.105-3.913 23.6 1.37 13.09 4.194 18.587 7.819 21.376 14.099 2.145 4.83 2.103 12.938-.088 16.853-2.781 4.97-8.78 6.548-14.37 3.782z"/></svg>