<svg xmlns="http://www.w3.org/2000/svg" version="1" width="300" height="300"><path d="M140.86 251.979c-9.849 4.859-15.787 16.825-27.305 18.303-7.094-4.864 9.927-13.878 13.25-19.444 8.757-5.506 13.63-24.053 1.24-27.218-12.255-1.019-25.52-2.833-36.156-9.07-1.71-9.9 15.505-1.453 21.98-2.948 15.584 1.143 35.406-2.135 42.1-18.393 5.891-11.997-.191-25.693-5.826-36.664-6.232-11.547-15.192-21.202-23.98-30.82-11.382 15.397-24.2 30.437-40.57 40.622-3.46-3.967 10.366-13.85 13.09-19.885 9.003-10.93 18.943-21.996 21.861-36.35 2.882-12.647-15.695-6.957-23.063-8.529-9.202-.454-25.989 6.35-22.708-9.795 1.526-13.654 2.024-29.337 12.949-39.266 7.034-8.232 15.412-15.937 26.28-17.375 10.396-4.383 22.403-3.879 33.48-5.814 14.746-1.548 29.71-3.273 43.32-9.546 6.093-4.208 29.261-5.245 18.244 5.31-7.228 6.672-3.395 13.64-5.399 28.71 1.718 11.869 11.424 22.023 20.435 33.62 6.787 8.735 12.701 18.847 17.189 28.002-9.15 5.742-10.817-4.724-44.33-41.736-12.264 5.172-7.203 17.487.012 25.094 5.268 8.848 11.919 18.003 12.314 28.627-6.615 6.007-11.35-12.37-17.263-16.604-6.124-5.652-10.243-20.336-20.798-15.146-3.698 1.252-9.44 1.73-4.82 6.137 4.293 7.485 9.482 13.882 13.237 21.45 4.28 6.452 13.616 21.09 8.933 23.21-9.266-2.43-16.453-15.714-23.524-24.366-7.425-6.962-8.73-24.73-22.182-20.645-11.595-1.408-7.349 14.411-4.239 20.57 6.699 8.667 13.815 17.098 19.777 26.384 7.719 9.185 8.89 22.162 10.274 33.657.76 11.705-6.858 23.789-16.695 29.334-8.554 4.049-5.8 21.025 1.592 24.308 11.124 2.75 20.951 5.77 29.6 11.44-5.07 8.091-19.63.18-27.942 1.405-4.421 17.71 5.085 29.081-.169 31.791-4.522 2.332-8.026-15.577-14.188-28.36zM112.767 47.984c-11.066.568-14.831 7.34-20.78 19.09-7.274 14.373-9.183 22.225 7.042 24.88 5.489.659 13.113 4.288 21.87-.214-9.587-12.226-8.768-29.102-8.132-43.756zm41.702 38.61c14.016-5.329 16.345-23.594 9.708-35.49-3.863-14.613-19.733-6.624-30.274-6.309-13.463 1.68-10.68 18.204-10.036 27.847.405 10.313 8.965 19.72 19.85 16.606 3.679-.397 7.328-1.236 10.752-2.654zM139.673 69.48c-8.8-5.77-1.122-18.069 7.438-9.765 9.373 5.495-.286 19.176-7.438 9.765zm48.462-6.667c2.46-8.017 11.732-27.478-.723-29.219-18.136 3.462-16.852 3.416-9.407 17.369 3.726 7.652.022 17.33 2.122 24.446 4.004-3.077 5.793-8.22 8.008-12.596z"/></svg>